<svg xmlns="http://www.w3.org/2000/svg" xmlns:xlink="http://www.w3.org/1999/xlink" width="500" zoomAndPan="magnify" viewBox="0 0 375 374.999991" height="500" preserveAspectRatio="xMidYMid meet" version="1.0"><defs><clipPath id="b4786515e0"><path d="M 104 260 L 107 260 L 107 264 L 104 264 Z M 104 260 " clip-rule="nonzero"/></clipPath><clipPath id="8aa1106a78"><path d="M 97.054688 211.890625 L 279.078125 193.015625 L 287.277344 272.09375 L 105.253906 290.964844 Z M 97.054688 211.890625 " clip-rule="nonzero"/></clipPath><clipPath id="e58676824b"><path d="M 97.054688 211.890625 L 279.078125 193.015625 L 287.277344 272.09375 L 105.253906 290.964844 Z M 97.054688 211.890625 " clip-rule="nonzero"/></clipPath><clipPath id="967c6a180e"><path d="M 111 228 L 113 228 L 113 230 L 111 230 Z M 111 228 " clip-rule="nonzero"/></clipPath><clipPath id="e1518e273b"><path d="M 97.054688 211.890625 L 279.078125 193.015625 L 287.277344 272.09375 L 105.253906 290.964844 Z M 97.054688 211.890625 " clip-rule="nonzero"/></clipPath><clipPath id="fa744128f7"><path d="M 97.054688 211.890625 L 279.078125 193.015625 L 287.277344 272.09375 L 105.253906 290.964844 Z M 97.054688 211.890625 " clip-rule="nonzero"/></clipPath><clipPath id="54a9f45fed"><path d="M 113 226 L 115 226 L 115 228 L 113 228 Z M 113 226 " clip-rule="nonzero"/></clipPath><clipPath id="25e189d4e4"><path d="M 97.054688 211.890625 L 279.078125 193.015625 L 287.277344 272.09375 L 105.253906 290.964844 Z M 97.054688 211.890625 " clip-rule="nonzero"/></clipPath><clipPath id="5eea451268"><path d="M 97.054688 211.890625 L 279.078125 193.015625 L 287.277344 272.09375 L 105.253906 290.964844 Z M 97.054688 211.890625 " clip-rule="nonzero"/></clipPath><clipPath id="4aa6112ec2"><path d="M 122 220 L 124 220 L 124 222 L 122 222 Z M 122 220 " clip-rule="nonzero"/></clipPath><clipPath id="167a2661f3"><path d="M 97.054688 211.890625 L 279.078125 193.015625 L 287.277344 272.09375 L 105.253906 290.964844 Z M 97.054688 211.890625 " clip-rule="nonzero"/></clipPath><clipPath id="a5c65933b9"><path d="M 97.054688 211.890625 L 279.078125 193.015625 L 287.277344 272.09375 L 105.253906 290.964844 Z M 97.054688 211.890625 " clip-rule="nonzero"/></clipPath><clipPath id="74fa14a518"><path d="M 163 282 L 164 282 L 164 283 L 163 283 Z M 163 282 " clip-rule="nonzero"/></clipPath><clipPath id="5ad1df5985"><path d="M 97.054688 211.890625 L 279.078125 193.015625 L 287.277344 272.09375 L 105.253906 290.964844 Z M 97.054688 211.890625 " clip-rule="nonzero"/></clipPath><clipPath id="e8e2829bf5"><path d="M 97.054688 211.890625 L 279.078125 193.015625 L 287.277344 272.09375 L 105.253906 290.964844 Z M 97.054688 211.890625 " clip-rule="nonzero"/></clipPath><clipPath id="42a30f4b70"><path d="M 125 276 L 127 276 L 127 277 L 125 277 Z M 125 276 " clip-rule="nonzero"/></clipPath><clipPath id="a45a69b116"><path d="M 97.054688 211.890625 L 279.078125 193.015625 L 287.277344 272.09375 L 105.253906 290.964844 Z M 97.054688 211.890625 " clip-rule="nonzero"/></clipPath><clipPath id="bdf64ffe37"><path d="M 97.054688 211.890625 L 279.078125 193.015625 L 287.277344 272.09375 L 105.253906 290.964844 Z M 97.054688 211.890625 " clip-rule="nonzero"/></clipPath><clipPath id="8cfa460cc7"><path d="M 126 218 L 128 218 L 128 219 L 126 219 Z M 126 218 " clip-rule="nonzero"/></clipPath><clipPath id="4dc18074a3"><path d="M 97.054688 211.890625 L 279.078125 193.015625 L 287.277344 272.09375 L 105.253906 290.964844 Z M 97.054688 211.890625 " clip-rule="nonzero"/></clipPath><clipPath id="5991b5d7db"><path d="M 97.054688 211.890625 L 279.078125 193.015625 L 287.277344 272.09375 L 105.253906 290.964844 Z M 97.054688 211.890625 " clip-rule="nonzero"/></clipPath><clipPath id="15fad7aa7d"><path d="M 114 226 L 116 226 L 116 227 L 114 227 Z M 114 226 " clip-rule="nonzero"/></clipPath><clipPath id="3f1ee7e922"><path d="M 97.054688 211.890625 L 279.078125 193.015625 L 287.277344 272.09375 L 105.253906 290.964844 Z M 97.054688 211.890625 " clip-rule="nonzero"/></clipPath><clipPath id="707b00bd67"><path d="M 97.054688 211.890625 L 279.078125 193.015625 L 287.277344 272.09375 L 105.253906 290.964844 Z M 97.054688 211.890625 " clip-rule="nonzero"/></clipPath><clipPath id="8b77f70b63"><path d="M 101 201 L 284 201 L 284 284 L 101 284 Z M 101 201 " clip-rule="nonzero"/></clipPath><clipPath id="c526cd9593"><path d="M 97.054688 211.890625 L 279.078125 193.015625 L 287.277344 272.09375 L 105.253906 290.964844 Z M 97.054688 211.890625 " clip-rule="nonzero"/></clipPath><clipPath id="bf96ef20d7"><path d="M 97.054688 211.890625 L 279.078125 193.015625 L 287.277344 272.09375 L 105.253906 290.964844 Z M 97.054688 211.890625 " clip-rule="nonzero"/></clipPath><clipPath id="7c5ae99085"><path d="M 278 220 L 281 220 L 281 224 L 278 224 Z M 278 220 " clip-rule="nonzero"/></clipPath><clipPath id="b69923fddd"><path d="M 97.054688 211.890625 L 279.078125 193.015625 L 287.277344 272.09375 L 105.253906 290.964844 Z M 97.054688 211.890625 " clip-rule="nonzero"/></clipPath><clipPath id="873fcafc30"><path d="M 97.054688 211.890625 L 279.078125 193.015625 L 287.277344 272.09375 L 105.253906 290.964844 Z M 97.054688 211.890625 " clip-rule="nonzero"/></clipPath><clipPath id="e3b0a696af"><path d="M 272 255 L 273 255 L 273 256 L 272 256 Z M 272 255 " clip-rule="nonzero"/></clipPath><clipPath id="488eab6111"><path d="M 97.054688 211.890625 L 279.078125 193.015625 L 287.277344 272.09375 L 105.253906 290.964844 Z M 97.054688 211.890625 " clip-rule="nonzero"/></clipPath><clipPath id="6e4459dc58"><path d="M 97.054688 211.890625 L 279.078125 193.015625 L 287.277344 272.09375 L 105.253906 290.964844 Z M 97.054688 211.890625 " clip-rule="nonzero"/></clipPath><clipPath id="be4b90179e"><path d="M 270 256 L 271 256 L 271 258 L 270 258 Z M 270 256 " clip-rule="nonzero"/></clipPath><clipPath id="5406ad1c32"><path d="M 97.054688 211.890625 L 279.078125 193.015625 L 287.277344 272.09375 L 105.253906 290.964844 Z M 97.054688 211.890625 " clip-rule="nonzero"/></clipPath><clipPath id="554bad88af"><path d="M 97.054688 211.890625 L 279.078125 193.015625 L 287.277344 272.09375 L 105.253906 290.964844 Z M 97.054688 211.890625 " clip-rule="nonzero"/></clipPath><clipPath id="90ab68fe9e"><path d="M 261 262 L 263 262 L 263 264 L 261 264 Z M 261 262 " clip-rule="nonzero"/></clipPath><clipPath id="fbb929a799"><path d="M 97.054688 211.890625 L 279.078125 193.015625 L 287.277344 272.09375 L 105.253906 290.964844 Z M 97.054688 211.890625 " clip-rule="nonzero"/></clipPath><clipPath id="11e7cff19f"><path d="M 97.054688 211.890625 L 279.078125 193.015625 L 287.277344 272.09375 L 105.253906 290.964844 Z M 97.054688 211.890625 " clip-rule="nonzero"/></clipPath><clipPath id="62a5abc675"><path d="M 220 201 L 222 201 L 222 202 L 220 202 Z M 220 201 " clip-rule="nonzero"/></clipPath><clipPath id="544cefc9cb"><path d="M 97.054688 211.890625 L 279.078125 193.015625 L 287.277344 272.09375 L 105.253906 290.964844 Z M 97.054688 211.890625 " clip-rule="nonzero"/></clipPath><clipPath id="4c43d27b16"><path d="M 97.054688 211.890625 L 279.078125 193.015625 L 287.277344 272.09375 L 105.253906 290.964844 Z M 97.054688 211.890625 " clip-rule="nonzero"/></clipPath><clipPath id="3a753db7d8"><path d="M 220 201 L 221 201 L 221 202 L 220 202 Z M 220 201 " clip-rule="nonzero"/></clipPath><clipPath id="d2404d47cb"><path d="M 97.054688 211.890625 L 279.078125 193.015625 L 287.277344 272.09375 L 105.253906 290.964844 Z M 97.054688 211.890625 " clip-rule="nonzero"/></clipPath><clipPath id="38397b6db4"><path d="M 97.054688 211.890625 L 279.078125 193.015625 L 287.277344 272.09375 L 105.253906 290.964844 Z M 97.054688 211.890625 " clip-rule="nonzero"/></clipPath><clipPath id="bd732ab394"><path d="M 258 208 L 259 208 L 259 209 L 258 209 Z M 258 208 " clip-rule="nonzero"/></clipPath><clipPath id="9adb0bd946"><path d="M 97.054688 211.890625 L 279.078125 193.015625 L 287.277344 272.09375 L 105.253906 290.964844 Z M 97.054688 211.890625 " clip-rule="nonzero"/></clipPath><clipPath id="de39c6bd04"><path d="M 97.054688 211.890625 L 279.078125 193.015625 L 287.277344 272.09375 L 105.253906 290.964844 Z M 97.054688 211.890625 " clip-rule="nonzero"/></clipPath><clipPath id="e7f0c0f086"><path d="M 256 265 L 258 265 L 258 266 L 256 266 Z M 256 265 " clip-rule="nonzero"/></clipPath><clipPath id="646b179d10"><path d="M 97.054688 211.890625 L 279.078125 193.015625 L 287.277344 272.09375 L 105.253906 290.964844 Z M 97.054688 211.890625 " clip-rule="nonzero"/></clipPath><clipPath id="8dd7b705ec"><path d="M 97.054688 211.890625 L 279.078125 193.015625 L 287.277344 272.09375 L 105.253906 290.964844 Z M 97.054688 211.890625 " clip-rule="nonzero"/></clipPath><clipPath id="4a48ff2ec5"><path d="M 269 258 L 270 258 L 270 259 L 269 259 Z M 269 258 " clip-rule="nonzero"/></clipPath><clipPath id="d0d5e7e923"><path d="M 97.054688 211.890625 L 279.078125 193.015625 L 287.277344 272.09375 L 105.253906 290.964844 Z M 97.054688 211.890625 " clip-rule="nonzero"/></clipPath><clipPath id="9a094cc9a1"><path d="M 97.054688 211.890625 L 279.078125 193.015625 L 287.277344 272.09375 L 105.253906 290.964844 Z M 97.054688 211.890625 " clip-rule="nonzero"/></clipPath><clipPath id="ae05729e0f"><path d="M 126 136 L 252 136 L 252 249.8125 L 126 249.8125 Z M 126 136 " clip-rule="nonzero"/></clipPath></defs><g clip-path="url(#b4786515e0)"><g clip-path="url(#8aa1106a78)"><g clip-path="url(#e58676824b)"><path fill="#a4b385" d="M 104.566406 260.902344 C 104.460938 260.722656 104.359375 260.59375 104.277344 260.644531 C 104.234375 260.667969 104.292969 260.828125 104.371094 260.988281 C 104.449219 261.148438 104.554688 261.3125 104.585938 261.351562 C 105.214844 262.242188 105.699219 262.816406 106.183594 263.386719 C 105.835938 262.722656 105.3125 262.105469 104.894531 261.449219 C 104.796875 261.300781 104.679688 261.078125 104.566406 260.902344 Z M 104.566406 260.902344 " fill-opacity="1" fill-rule="nonzero"/></g></g></g><g clip-path="url(#967c6a180e)"><g clip-path="url(#e1518e273b)"><g clip-path="url(#fa744128f7)"><path fill="#a4b385" d="M 111.765625 228.964844 C 111.933594 228.832031 112.109375 228.683594 112.144531 228.511719 C 112.085938 228.453125 111.980469 228.441406 111.832031 228.578125 C 111.671875 228.71875 111.425781 228.949219 111.402344 229.050781 C 111.359375 229.246094 111.597656 229.101562 111.765625 228.964844 Z M 111.765625 228.964844 " fill-opacity="1" fill-rule="nonzero"/></g></g></g><g clip-path="url(#54a9f45fed)"><g clip-path="url(#25e189d4e4)"><g clip-path="url(#5eea451268)"><path fill="#a4b385" d="M 113.949219 227.167969 C 114.132812 227.039062 114.296875 226.90625 114.261719 226.761719 C 114.171875 226.660156 113.957031 226.765625 113.796875 226.878906 C 113.628906 227.003906 113.359375 227.308594 113.378906 227.328125 C 113.46875 227.441406 113.699219 227.351562 113.949219 227.167969 Z M 113.949219 227.167969 " fill-opacity="1" fill-rule="nonzero"/></g></g></g><g clip-path="url(#4aa6112ec2)"><g clip-path="url(#167a2661f3)"><g clip-path="url(#a5c65933b9)"><path fill="#a4b385" d="M 122.773438 221.222656 C 122.957031 221.144531 123.121094 220.96875 123.046875 220.867188 C 122.964844 220.753906 122.738281 220.917969 122.574219 220.980469 C 122.390625 221.085938 122.128906 221.234375 122.171875 221.328125 C 122.242188 221.484375 122.5625 221.308594 122.773438 221.222656 Z M 122.773438 221.222656 " fill-opacity="1" fill-rule="nonzero"/></g></g></g><g clip-path="url(#74fa14a518)"><g clip-path="url(#5ad1df5985)"><g clip-path="url(#e8e2829bf5)"><path fill="#a4b385" d="M 163.890625 282.726562 C 163.910156 282.730469 163.925781 282.734375 163.941406 282.742188 C 163.941406 282.734375 163.941406 282.726562 163.941406 282.722656 L 163.914062 282.722656 C 163.90625 282.722656 163.898438 282.722656 163.890625 282.726562 Z M 163.890625 282.726562 " fill-opacity="1" fill-rule="nonzero"/><path fill="#a4b385" d="M 163.152344 282.742188 C 163.277344 282.757812 163.40625 282.789062 163.527344 282.785156 C 163.652344 282.777344 163.773438 282.746094 163.890625 282.726562 C 163.78125 282.695312 163.675781 282.660156 163.5625 282.632812 C 163.355469 282.589844 163.203125 282.613281 163.152344 282.742188 Z M 163.152344 282.742188 " fill-opacity="1" fill-rule="nonzero"/></g></g></g><g clip-path="url(#42a30f4b70)"><g clip-path="url(#a45a69b116)"><g clip-path="url(#bdf64ffe37)"><path fill="#a4b385" d="M 125.570312 276.0625 L 125.839844 276.207031 L 126.125 276.253906 C 126.054688 276.210938 125.988281 276.148438 125.910156 276.121094 C 125.800781 276.085938 125.660156 275.996094 125.570312 276.0625 Z M 125.570312 276.0625 " fill-opacity="1" fill-rule="nonzero"/></g></g></g><g clip-path="url(#8cfa460cc7)"><g clip-path="url(#4dc18074a3)"><g clip-path="url(#5991b5d7db)"><path fill="#a4b385" d="M 127.128906 218.804688 C 127.257812 218.734375 127.464844 218.59375 127.453125 218.558594 C 127.429688 218.46875 127.261719 218.582031 127.148438 218.617188 C 127.023438 218.683594 126.875 218.75 126.878906 218.851562 C 126.878906 218.867188 127.0625 218.847656 127.132812 218.804688 Z M 127.128906 218.804688 " fill-opacity="1" fill-rule="nonzero"/></g></g></g><g clip-path="url(#15fad7aa7d)"><g clip-path="url(#3f1ee7e922)"><g clip-path="url(#707b00bd67)"><path fill="#a4b385" d="M 115.035156 226.058594 C 114.972656 226.089844 114.910156 226.117188 114.851562 226.152344 L 114.757812 226.25 C 114.820312 226.21875 114.886719 226.191406 114.945312 226.152344 C 114.980469 226.132812 115.003906 226.089844 115.035156 226.058594 Z M 115.035156 226.058594 " fill-opacity="1" fill-rule="nonzero"/></g></g></g><g clip-path="url(#8b77f70b63)"><g clip-path="url(#c526cd9593)"><g clip-path="url(#bf96ef20d7)"><path fill="#a4b385" d="M 283.03125 232.160156 C 282.976562 231.726562 282.917969 231.292969 282.824219 230.867188 C 282.730469 230.441406 282.644531 230.011719 282.507812 229.597656 C 282.410156 229.28125 282.3125 228.96875 282.207031 228.660156 C 282.105469 228.847656 282.296875 229.238281 282.34375 229.53125 L 282.414062 230.011719 L 282.464844 230.492188 C 282.414062 230.347656 282.359375 230.207031 282.308594 230.066406 C 282.257812 229.925781 282.199219 229.785156 282.15625 229.636719 C 281.761719 228.253906 281.144531 226.996094 280.5625 225.640625 L 280.207031 224.839844 C 280.082031 224.574219 279.949219 224.3125 279.816406 224.050781 C 279.558594 223.523438 279.257812 223.011719 278.945312 222.511719 C 278.789062 222.257812 278.621094 222.011719 278.445312 221.773438 C 278.265625 221.53125 278.085938 221.296875 277.894531 221.0625 C 277.511719 220.605469 277.089844 220.171875 276.636719 219.769531 C 276.25 219.441406 275.894531 218.882812 275.785156 218.523438 C 275.75 218.417969 275.726562 218.335938 275.683594 218.238281 C 275.640625 218.144531 275.59375 218.046875 275.535156 217.953125 C 275.421875 217.761719 275.277344 217.566406 275.117188 217.390625 C 274.800781 217.042969 274.421875 216.789062 274.097656 216.707031 C 273.910156 216.660156 274.84375 217.613281 273.871094 216.96875 C 272.527344 216.09375 271.46875 215.039062 270.253906 214.246094 C 270.140625 214.175781 270 213.980469 270.003906 213.914062 C 270.019531 213.792969 270.234375 213.957031 270.359375 214.03125 C 270.570312 214.152344 270.777344 214.3125 270.992188 214.445312 C 271.152344 214.542969 271.316406 214.625 271.480469 214.714844 C 271.46875 214.566406 271.269531 214.402344 271.121094 214.234375 C 270.960938 214.054688 270.769531 213.882812 270.566406 213.738281 C 270.363281 213.59375 270.152344 213.460938 269.949219 213.335938 C 269.796875 213.246094 269.644531 213.164062 269.492188 213.082031 C 269.34375 213.007812 269.191406 212.933594 269.039062 212.859375 C 268.738281 212.707031 268.441406 212.527344 268.160156 212.28125 C 267.125 211.378906 265.785156 211.109375 264.652344 210.503906 C 264.523438 210.433594 264.324219 210.398438 264.203125 210.398438 C 263.074219 210.433594 263.089844 210.386719 262.199219 210.058594 C 261.546875 209.808594 261.03125 209.472656 260.355469 209.230469 C 258.21875 208.5 256.140625 207.730469 254.058594 207.097656 C 253.941406 207.0625 253.765625 206.929688 253.761719 206.867188 C 253.742188 206.699219 253.992188 206.785156 254.171875 206.835938 C 254.589844 206.957031 255.007812 207.085938 255.429688 207.222656 C 255.851562 207.355469 256.269531 207.484375 256.695312 207.625 C 256.824219 207.667969 257.082031 207.691406 257.082031 207.671875 C 257.085938 207.570312 257.074219 207.433594 256.757812 207.425781 C 256.757812 207.425781 256.523438 207.34375 256.171875 207.21875 C 255.820312 207.101562 255.351562 206.941406 254.886719 206.78125 C 254.417969 206.632812 253.953125 206.480469 253.601562 206.367188 C 253.425781 206.3125 253.277344 206.269531 253.175781 206.238281 C 253.074219 206.207031 253.011719 206.1875 253.011719 206.1875 C 252.792969 206.171875 252.578125 206.265625 252.363281 206.054688 C 252.339844 206.027344 251.214844 205.800781 251.1875 205.8125 C 251.128906 205.835938 251.074219 205.859375 251.015625 205.886719 C 251.339844 205.992188 251.664062 206.097656 251.988281 206.207031 C 252.183594 206.269531 252.382812 206.316406 252.578125 206.378906 C 252.691406 206.414062 252.902344 206.441406 252.863281 206.539062 C 252.828125 206.632812 252.621094 206.550781 252.484375 206.535156 C 252.289062 206.515625 252.078125 206.523438 251.898438 206.464844 C 249.863281 205.78125 247.734375 205.605469 245.746094 204.957031 C 245.402344 204.84375 244.765625 204.96875 244.761719 204.675781 C 244.757812 204.402344 245.359375 204.664062 245.695312 204.691406 C 245.839844 204.707031 245.988281 204.730469 246.132812 204.75 C 246.023438 204.695312 245.914062 204.636719 245.800781 204.585938 C 245.113281 204.289062 244.363281 204.109375 243.601562 204.015625 C 243.394531 203.988281 243.105469 204.019531 242.992188 204.09375 C 242.683594 204.296875 241.871094 204.257812 241.898438 204.0625 C 241.980469 203.472656 241.332031 203.585938 240.808594 203.53125 C 240.242188 203.476562 239.675781 203.5625 239.101562 203.339844 C 238.996094 203.296875 238.722656 203.300781 238.710938 203.324219 C 238.671875 203.421875 238.863281 203.429688 238.976562 203.476562 C 239.308594 203.621094 240.019531 203.414062 239.980469 203.789062 C 239.964844 203.957031 239.246094 203.773438 238.933594 203.65625 C 238.199219 203.382812 236.984375 204.039062 236.648438 203.066406 L 236.460938 203.117188 C 235.578125 203.347656 234.953125 203.300781 234.140625 202.992188 C 233.777344 202.851562 233.972656 202.890625 234.167969 202.863281 C 234.339844 202.839844 234.730469 202.988281 234.636719 202.746094 C 234.582031 202.605469 234.304688 202.523438 234.058594 202.484375 C 233.542969 202.40625 233.054688 202.445312 232.585938 202.523438 C 232.570312 202.625 232.878906 202.703125 232.738281 202.796875 C 232.691406 202.828125 232.488281 202.789062 232.363281 202.769531 C 232.003906 202.710938 232.152344 202.570312 232.15625 202.457031 C 231.804688 202.25 231.460938 202.136719 231.105469 202.386719 C 230.640625 202.71875 230.21875 202.761719 229.273438 202.648438 C 228.6875 202.578125 228.230469 202.503906 228.578125 202.074219 C 228.691406 201.9375 228.324219 201.976562 228.183594 201.949219 C 227.71875 201.847656 227.265625 201.839844 226.855469 201.972656 C 226.3125 201.628906 225.621094 202.039062 225.414062 201.933594 C 224.949219 201.707031 224.515625 201.667969 224 201.601562 C 223.285156 201.507812 223.214844 201.945312 223.003906 201.96875 C 222.269531 202.050781 221.503906 202.210938 220.671875 202.054688 C 220.089844 201.953125 220.339844 201.742188 220.328125 201.5625 L 219.695312 201.546875 C 219.6875 201.640625 219.8125 201.75 219.625 201.820312 C 219.601562 201.832031 219.523438 201.820312 219.507812 201.808594 C 219.386719 201.6875 219.632812 201.640625 219.652344 201.546875 C 217.996094 201.121094 216.265625 201.550781 214.589844 201.316406 C 214.351562 201.285156 214.230469 201.429688 214.171875 201.625 C 213.984375 201.605469 213.800781 201.59375 213.613281 201.589844 C 213.609375 201.585938 213.605469 201.582031 213.601562 201.578125 C 213.054688 201.101562 211.273438 201.078125 210.820312 201.53125 C 210.777344 201.574219 210.726562 201.613281 210.671875 201.652344 C 210.207031 201.613281 209.738281 201.597656 209.269531 201.582031 C 208.984375 201.574219 208.707031 201.558594 208.457031 201.601562 C 208.074219 201.375 208.015625 201.414062 207.585938 201.78125 C 207.46875 201.882812 207.382812 201.957031 207.171875 201.957031 C 206.308594 201.960938 205.445312 201.972656 204.582031 201.984375 C 204.582031 201.980469 204.578125 201.976562 204.578125 201.972656 C 204.671875 201.828125 204.65625 201.753906 204.59375 201.722656 C 205.039062 201.691406 205.484375 201.648438 205.929688 201.632812 C 206.03125 201.628906 206.222656 201.679688 206.222656 201.550781 C 206.222656 201.539062 206.0625 201.535156 205.980469 201.523438 C 204.878906 201.351562 203.652344 201.746094 202.613281 201.332031 C 201.75 201.875 200.566406 201.484375 199.617188 201.773438 C 199.4375 201.828125 199.105469 201.707031 199.085938 201.878906 C 199.074219 201.972656 199.40625 201.890625 199.578125 201.910156 C 199.644531 201.914062 199.726562 201.914062 199.800781 201.914062 C 199.660156 201.9375 199.523438 201.96875 199.390625 202.015625 C 199.585938 202.054688 199.789062 202.082031 199.992188 202.09375 C 199.941406 202.183594 199.78125 202.253906 199.660156 202.230469 C 199.035156 202.097656 198.324219 202.285156 197.640625 202.394531 C 197.113281 202.472656 196.601562 202.503906 196.144531 202.304688 C 196.238281 202.28125 196.363281 202.285156 196.453125 202.277344 C 196.96875 202.226562 197.488281 202.199219 198.003906 202.160156 C 198.140625 202.148438 198.273438 202.117188 198.40625 202.097656 C 198.320312 201.96875 198.121094 202.035156 197.96875 202.039062 C 197.6875 202.046875 197.40625 202.058594 197.128906 202.066406 C 197.160156 202.058594 197.191406 202.054688 197.226562 202.050781 C 197.503906 201.996094 197.832031 202.089844 198.0625 201.914062 C 197.851562 201.839844 197.621094 201.914062 197.398438 201.914062 C 197.128906 201.921875 196.851562 201.902344 196.609375 202.015625 C 196.671875 202.046875 196.738281 202.066406 196.8125 202.074219 C 196.476562 202.082031 196.136719 202.09375 195.800781 202.105469 C 195.785156 202.089844 195.765625 202.078125 195.75 202.0625 C 195.699219 202.023438 195.488281 202.039062 195.351562 202.046875 C 194.648438 202.082031 193.941406 202.128906 193.238281 202.183594 C 193.105469 202.195312 192.925781 202.183594 192.867188 202.265625 C 192.484375 202.300781 192.105469 202.339844 191.726562 202.390625 C 191.40625 202.332031 190.839844 202.359375 190.277344 202.441406 C 189.609375 202.542969 188.953125 202.722656 188.730469 202.902344 C 188.566406 203.039062 188.433594 203.171875 188.277344 203.222656 C 188.207031 203.226562 188.136719 203.234375 188.066406 203.238281 C 187.949219 203.222656 187.8125 203.15625 187.648438 203.027344 L 187.898438 202.953125 C 187.820312 202.9375 187.742188 202.902344 187.660156 202.90625 C 187.609375 202.910156 187.558594 202.925781 187.503906 202.945312 C 187.199219 202.796875 186.539062 202.613281 186.082031 203.089844 C 185.628906 203.566406 184.988281 203.65625 184.417969 203.292969 C 184.328125 203.234375 184.25 203.160156 184.097656 203.195312 C 183.953125 203.230469 183.984375 203.3125 183.964844 203.390625 C 183.910156 203.582031 183.738281 203.738281 183.527344 203.828125 C 183.332031 203.851562 183.132812 203.875 182.9375 203.894531 C 182.824219 203.875 182.714844 203.832031 182.625 203.757812 C 182.5625 203.714844 182.507812 203.675781 182.453125 203.640625 C 182.667969 203.613281 182.886719 203.589844 183.101562 203.5625 C 183.332031 203.53125 183.695312 203.511719 183.707031 203.375 C 183.726562 203.132812 183.253906 203.261719 183.085938 203.277344 C 182.273438 203.359375 181.492188 203.515625 180.640625 203.5625 C 180.476562 203.570312 180.3125 203.597656 180.140625 203.628906 C 179.976562 203.578125 179.765625 203.636719 179.324219 203.785156 C 179.238281 203.8125 179.152344 203.839844 179.066406 203.867188 C 178.789062 203.921875 178.503906 203.960938 178.214844 203.953125 C 178.070312 203.949219 177.882812 204.078125 177.707031 204.167969 C 177.480469 204.207031 177.253906 204.238281 177.023438 204.269531 C 175.734375 204.445312 174.449219 204.632812 173.164062 204.839844 C 173.164062 204.832031 173.164062 204.820312 173.160156 204.808594 C 173.121094 204.699219 172.5625 204.742188 172.269531 204.84375 C 171.855469 204.988281 171.101562 204.863281 170.90625 205.21875 C 170.421875 205.292969 169.871094 205.320312 169.492188 205.546875 C 169.527344 205.453125 169.535156 205.371094 169.332031 205.386719 C 168.996094 205.410156 168.683594 205.484375 168.363281 205.5625 C 168.144531 205.613281 167.734375 205.738281 167.878906 205.8125 C 167.886719 205.816406 167.886719 205.816406 167.894531 205.820312 C 166.90625 206 165.921875 206.191406 164.9375 206.394531 C 164.929688 206.394531 164.921875 206.398438 164.910156 206.402344 C 165.003906 206.332031 165.105469 206.269531 165.242188 206.238281 C 165.109375 206.257812 164.972656 206.273438 164.835938 206.296875 C 164.59375 206.339844 164.285156 206.285156 164.160156 206.507812 C 164.144531 206.539062 164.324219 206.617188 164.433594 206.617188 C 164.472656 206.617188 164.503906 206.609375 164.539062 206.605469 L 164.535156 206.605469 C 164.445312 206.722656 164.375 206.8125 164.3125 206.886719 C 163.640625 207.105469 162.972656 207.296875 162.46875 206.796875 C 162.449219 206.773438 162.289062 206.808594 162.199219 206.828125 C 161.667969 206.945312 161.136719 207.066406 160.609375 207.195312 C 160.078125 207.320312 159.550781 207.441406 159.019531 207.574219 C 158.574219 207.683594 158.773438 207.699219 158.96875 207.792969 C 159.132812 207.871094 159.050781 208.039062 158.738281 208.117188 C 158.40625 208.195312 158.074219 208.277344 157.742188 208.355469 C 157.433594 208.273438 157.089844 208.265625 156.773438 208.351562 C 156.832031 208.230469 157.285156 207.988281 156.632812 208.148438 C 155.058594 208.527344 153.488281 208.933594 151.921875 209.359375 C 151.71875 209.417969 151.480469 209.480469 151.34375 209.632812 C 151.125 209.875 150.8125 210.101562 150.46875 210.285156 C 150.441406 210.117188 150.382812 210.121094 150.066406 210.214844 C 149.609375 210.351562 149.15625 210.488281 148.699219 210.632812 C 148.695312 210.589844 148.722656 210.542969 148.792969 210.492188 C 149.089844 210.277344 149.46875 210.09375 148.703125 210.3125 C 145.847656 211.144531 143 212.066406 140.160156 213.082031 C 139.84375 213.191406 139.5625 213.265625 139.554688 213.621094 C 139.554688 213.792969 139.132812 214.035156 138.695312 214.195312 C 138.261719 214.359375 137.8125 214.457031 137.753906 214.324219 C 137.625 214.027344 137.476562 214.105469 137.128906 214.238281 C 134.757812 215.136719 132.382812 216.097656 130.027344 217.1875 C 129.605469 217.382812 128.707031 217.589844 129.242188 218.035156 C 129.292969 218.078125 129.140625 218.203125 128.992188 218.289062 C 128.929688 218.3125 128.875 218.339844 128.824219 218.371094 C 127.820312 218.738281 126.878906 219.261719 125.910156 219.742188 C 125.648438 219.875 125.441406 219.875 125.597656 219.613281 C 125.699219 219.449219 126.082031 219.402344 126.09375 219.191406 C 125.875 219.285156 125.652344 219.367188 125.441406 219.476562 C 124.945312 219.734375 124.457031 220.019531 123.96875 220.304688 C 123.847656 220.375 123.738281 220.457031 123.621094 220.535156 C 123.746094 220.628906 123.921875 220.441406 124.074219 220.40625 C 124.230469 220.367188 124.410156 220.136719 124.554688 220.246094 C 124.625 220.300781 124.644531 220.386719 124.464844 220.488281 C 124.242188 220.613281 124.003906 220.761719 123.761719 220.917969 C 123.515625 221.074219 123.269531 221.242188 123.035156 221.386719 C 122.5625 221.679688 122.132812 221.914062 121.855469 221.894531 C 121.246094 221.851562 120.738281 222.054688 120.261719 222.347656 C 120.023438 222.488281 119.792969 222.648438 119.5625 222.808594 C 119.328125 222.972656 119.097656 223.132812 118.851562 223.265625 C 118.605469 223.40625 118.289062 223.59375 118.320312 223.84375 C 118.339844 224.011719 118.316406 224.144531 118.253906 224.257812 C 118.023438 224.355469 117.832031 224.449219 117.796875 224.570312 C 117.792969 224.589844 117.78125 224.613281 117.777344 224.632812 C 117.609375 224.699219 117.410156 224.753906 117.195312 224.800781 C 116.34375 225 116.339844 225.007812 115.984375 225.75 C 115.9375 225.847656 115.78125 225.984375 115.65625 226.078125 C 114.125 227.230469 112.59375 228.484375 111.089844 229.917969 C 110.757812 230.238281 110.734375 230.113281 110.621094 230.011719 C 110.289062 229.730469 109.84375 230.421875 109.488281 230.773438 C 109.253906 231.011719 108.652344 231.53125 109.003906 231.566406 C 109.371094 231.609375 109.261719 231.753906 108.910156 232.164062 C 108.261719 232.925781 107.628906 233.722656 106.996094 234.585938 C 106.75 234.921875 106.519531 235.121094 106.273438 235.117188 C 105.789062 235.105469 105.550781 235.371094 105.519531 235.992188 C 105.515625 236.058594 105.515625 236.113281 105.5 236.183594 C 105.496094 236.199219 105.492188 236.210938 105.492188 236.222656 C 105.445312 236.246094 105.398438 236.265625 105.355469 236.28125 C 105.308594 236.394531 105.273438 236.511719 105.210938 236.621094 C 104.980469 237 104.878906 237.394531 104.914062 237.664062 C 104.902344 237.683594 104.894531 237.699219 104.886719 237.71875 C 104.730469 238.015625 104.558594 238.320312 104.390625 238.625 C 104.304688 238.777344 104.21875 238.929688 104.136719 239.082031 C 104.058594 239.238281 103.980469 239.390625 103.910156 239.546875 C 103.683594 240.035156 103.589844 239.832031 103.433594 239.859375 C 103.308594 239.882812 104.242188 237.742188 103.265625 239.707031 C 102.351562 241.605469 101.71875 243.644531 101.375 245.714844 C 101.324219 245.972656 101.269531 246.347656 101.351562 246.578125 C 101.644531 247.410156 101.664062 248.632812 101.382812 248.644531 C 101.074219 248.652344 101.089844 248.914062 101.089844 249.511719 L 101.09375 250.167969 L 101.125 250.820312 L 101.160156 251.472656 C 101.175781 251.691406 101.210938 251.90625 101.234375 252.125 C 101.292969 252.554688 101.351562 252.988281 101.445312 253.417969 C 101.535156 253.84375 101.621094 254.273438 101.757812 254.6875 C 101.855469 255 101.957031 255.3125 102.058594 255.625 C 102.160156 255.4375 101.96875 255.046875 101.921875 254.75 L 101.851562 254.273438 L 101.804688 253.792969 C 101.851562 253.933594 101.90625 254.074219 101.957031 254.214844 C 102.011719 254.359375 102.066406 254.5 102.113281 254.644531 C 102.503906 256.03125 103.121094 257.285156 103.703125 258.640625 L 104.058594 259.445312 C 104.183594 259.707031 104.316406 259.96875 104.449219 260.234375 C 104.707031 260.761719 105.007812 261.269531 105.324219 261.773438 C 105.476562 262.027344 105.644531 262.269531 105.824219 262.511719 C 106 262.75 106.183594 262.988281 106.371094 263.21875 C 106.753906 263.675781 107.175781 264.109375 107.628906 264.511719 C 108.015625 264.84375 108.375 265.398438 108.484375 265.757812 C 108.519531 265.867188 108.539062 265.945312 108.585938 266.042969 C 108.625 266.140625 108.675781 266.234375 108.730469 266.332031 C 108.84375 266.523438 108.988281 266.714844 109.148438 266.890625 C 109.46875 267.242188 109.84375 267.492188 110.171875 267.578125 C 110.359375 267.625 109.421875 266.667969 110.394531 267.316406 C 111.742188 268.191406 112.796875 269.242188 114.011719 270.035156 C 114.125 270.105469 114.269531 270.300781 114.261719 270.367188 C 114.25 270.488281 114.035156 270.328125 113.910156 270.253906 C 113.695312 270.128906 113.488281 269.972656 113.273438 269.839844 C 113.117188 269.738281 112.949219 269.660156 112.789062 269.570312 C 112.796875 269.714844 113 269.882812 113.144531 270.046875 C 113.304688 270.226562 113.5 270.398438 113.699219 270.546875 C 113.902344 270.691406 114.113281 270.824219 114.316406 270.949219 C 114.46875 271.039062 114.621094 271.121094 114.773438 271.199219 C 114.925781 271.277344 115.074219 271.351562 115.226562 271.425781 C 115.527344 271.578125 115.824219 271.757812 116.105469 272.003906 C 117.140625 272.902344 118.484375 273.171875 119.613281 273.777344 C 119.746094 273.851562 119.945312 273.886719 120.066406 273.882812 C 121.195312 273.851562 121.175781 273.894531 122.066406 274.226562 C 122.71875 274.476562 123.238281 274.8125 123.914062 275.054688 C 126.046875 275.785156 128.128906 276.554688 130.207031 277.183594 C 130.324219 277.222656 130.5 277.351562 130.507812 277.414062 C 130.523438 277.582031 130.273438 277.5 130.097656 277.449219 C 129.675781 277.328125 129.257812 277.199219 128.835938 277.0625 C 128.417969 276.929688 127.996094 276.800781 127.574219 276.65625 C 127.445312 276.617188 127.183594 276.59375 127.183594 276.609375 C 127.179688 276.714844 127.191406 276.851562 127.507812 276.855469 C 127.507812 276.855469 127.742188 276.9375 128.097656 277.0625 C 128.445312 277.183594 128.914062 277.34375 129.382812 277.5 C 129.847656 277.652344 130.316406 277.800781 130.667969 277.914062 C 130.84375 277.972656 130.988281 278.015625 131.089844 278.046875 L 131.257812 278.09375 C 131.472656 278.109375 131.691406 278.019531 131.902344 278.230469 C 131.929688 278.257812 133.054688 278.480469 133.078125 278.46875 C 133.140625 278.449219 133.195312 278.421875 133.25 278.398438 C 132.925781 278.292969 132.601562 278.183594 132.277344 278.078125 C 132.085938 278.011719 131.882812 277.96875 131.6875 277.90625 C 131.574219 277.867188 131.367188 277.84375 131.402344 277.746094 C 131.4375 277.652344 131.644531 277.734375 131.78125 277.746094 C 131.976562 277.765625 132.191406 277.761719 132.367188 277.820312 C 134.402344 278.503906 136.53125 278.679688 138.519531 279.324219 C 138.863281 279.4375 139.5 279.3125 139.503906 279.605469 C 139.507812 279.878906 138.910156 279.621094 138.574219 279.589844 C 138.425781 279.578125 138.28125 279.554688 138.132812 279.535156 C 138.246094 279.589844 138.351562 279.644531 138.46875 279.699219 C 139.15625 279.996094 139.90625 280.175781 140.664062 280.269531 C 140.875 280.292969 141.164062 280.265625 141.277344 280.191406 C 141.585938 279.984375 142.398438 280.027344 142.367188 280.222656 C 142.285156 280.8125 142.933594 280.695312 143.457031 280.75 C 144.027344 280.804688 144.589844 280.71875 145.164062 280.945312 C 145.269531 280.988281 145.546875 280.980469 145.554688 280.957031 C 145.59375 280.863281 145.402344 280.855469 145.292969 280.808594 C 144.957031 280.664062 144.25 280.871094 144.285156 280.496094 C 144.304688 280.328125 145.019531 280.511719 145.332031 280.628906 C 146.070312 280.898438 147.28125 280.246094 147.621094 281.21875 L 147.804688 281.167969 C 148.691406 280.933594 149.3125 280.980469 150.125 281.292969 C 150.492188 281.433594 150.292969 281.394531 150.097656 281.421875 C 149.929688 281.445312 149.539062 281.296875 149.632812 281.539062 C 149.683594 281.675781 149.960938 281.761719 150.207031 281.800781 C 150.722656 281.875 151.210938 281.835938 151.683594 281.761719 C 151.699219 281.660156 151.386719 281.582031 151.53125 281.488281 C 151.574219 281.457031 151.777344 281.496094 151.902344 281.515625 C 152.265625 281.574219 152.113281 281.710938 152.109375 281.828125 C 152.460938 282.035156 152.804688 282.148438 153.160156 281.898438 C 153.628906 281.566406 154.046875 281.523438 154.992188 281.636719 C 155.578125 281.707031 156.039062 281.78125 155.6875 282.210938 C 155.578125 282.347656 155.945312 282.304688 156.085938 282.335938 C 156.546875 282.433594 157 282.445312 157.410156 282.308594 C 157.953125 282.65625 158.644531 282.246094 158.855469 282.347656 C 159.316406 282.578125 159.75 282.617188 160.269531 282.683594 C 160.984375 282.777344 161.050781 282.339844 161.261719 282.316406 C 162 282.230469 162.765625 282.074219 163.59375 282.226562 C 164.175781 282.332031 163.925781 282.542969 163.941406 282.722656 L 164.570312 282.738281 C 164.578125 282.644531 164.453125 282.535156 164.644531 282.460938 C 164.667969 282.453125 164.742188 282.464844 164.757812 282.476562 C 164.878906 282.59375 164.632812 282.644531 164.617188 282.738281 C 166.269531 283.160156 168 282.730469 169.675781 282.964844 C 169.914062 283 170.035156 282.851562 170.09375 282.660156 C 170.28125 282.675781 170.464844 282.691406 170.652344 282.695312 C 170.65625 282.699219 170.660156 282.699219 170.664062 282.703125 C 171.210938 283.183594 172.992188 283.207031 173.445312 282.753906 C 173.488281 282.707031 173.539062 282.667969 173.59375 282.632812 C 174.058594 282.667969 174.53125 282.6875 174.996094 282.703125 C 175.28125 282.710938 175.5625 282.726562 175.8125 282.679688 C 176.191406 282.90625 176.253906 282.871094 176.683594 282.5 C 176.796875 282.402344 176.882812 282.328125 177.097656 282.328125 C 177.960938 282.320312 178.824219 282.3125 179.6875 282.296875 C 179.6875 282.304688 179.691406 282.308594 179.6875 282.3125 C 179.59375 282.457031 179.609375 282.527344 179.675781 282.5625 C 179.230469 282.59375 178.785156 282.636719 178.335938 282.648438 C 178.234375 282.652344 178.042969 282.601562 178.042969 282.734375 C 178.042969 282.742188 178.203125 282.746094 178.289062 282.761719 C 179.386719 282.929688 180.617188 282.539062 181.652344 282.949219 C 182.515625 282.410156 183.699219 282.796875 184.648438 282.507812 C 184.828125 282.453125 185.160156 282.574219 185.183594 282.402344 C 185.195312 282.308594 184.863281 282.394531 184.691406 282.375 C 184.621094 282.367188 184.542969 282.371094 184.46875 282.367188 C 184.605469 282.347656 184.742188 282.316406 184.878906 282.265625 C 184.679688 282.226562 184.476562 282.203125 184.273438 282.191406 C 184.324219 282.097656 184.484375 282.027344 184.605469 282.054688 C 185.234375 282.1875 185.941406 282 186.625 281.890625 C 187.152344 281.8125 187.664062 281.78125 188.121094 281.976562 C 188.03125 282.003906 187.90625 282 187.8125 282.007812 C 187.296875 282.058594 186.78125 282.082031 186.265625 282.125 C 186.128906 282.136719 185.992188 282.164062 185.859375 282.1875 C 185.949219 282.316406 186.148438 282.25 186.300781 282.246094 C 186.578125 282.234375 186.859375 282.226562 187.140625 282.21875 C 187.105469 282.222656 187.074219 282.230469 187.042969 282.234375 C 186.765625 282.289062 186.433594 282.195312 186.203125 282.367188 C 186.417969 282.445312 186.644531 282.367188 186.867188 282.367188 C 187.136719 282.359375 187.414062 282.378906 187.65625 282.269531 C 187.59375 282.238281 187.527344 282.21875 187.457031 282.210938 C 187.792969 282.199219 188.128906 282.191406 188.464844 282.179688 C 188.480469 282.195312 188.5 282.207031 188.515625 282.21875 C 188.566406 282.261719 188.777344 282.246094 188.914062 282.238281 C 189.621094 282.203125 190.324219 282.152344 191.027344 282.101562 C 191.160156 282.089844 191.339844 282.101562 191.402344 282.019531 C 191.78125 281.984375 192.160156 281.941406 192.542969 281.894531 C 192.859375 281.953125 193.425781 281.921875 193.988281 281.839844 C 194.65625 281.738281 195.3125 281.5625 195.535156 281.378906 C 195.699219 281.246094 195.832031 281.113281 195.988281 281.0625 C 196.058594 281.054688 196.128906 281.050781 196.199219 281.042969 C 196.316406 281.0625 196.453125 281.125 196.621094 281.253906 L 196.367188 281.332031 C 196.449219 281.347656 196.527344 281.382812 196.605469 281.378906 C 196.65625 281.375 196.710938 281.355469 196.761719 281.335938 C 197.070312 281.488281 197.730469 281.667969 198.183594 281.195312 C 198.636719 280.71875 199.277344 280.625 199.847656 280.988281 C 199.9375 281.046875 200.015625 281.125 200.167969 281.089844 C 200.316406 281.054688 200.28125 280.972656 200.304688 280.894531 C 200.359375 280.703125 200.527344 280.546875 200.738281 280.457031 C 200.933594 280.433594 201.132812 280.410156 201.328125 280.386719 C 201.441406 280.410156 201.550781 280.453125 201.644531 280.523438 C 201.703125 280.570312 201.761719 280.609375 201.816406 280.644531 C 201.597656 280.667969 201.378906 280.695312 201.164062 280.722656 C 200.933594 280.753906 200.570312 280.773438 200.558594 280.910156 C 200.539062 281.148438 201.011719 281.023438 201.179688 281.003906 C 201.996094 280.925781 202.773438 280.769531 203.625 280.722656 C 203.789062 280.714844 203.957031 280.6875 204.128906 280.652344 C 204.292969 280.707031 204.5 280.648438 204.941406 280.5 C 205.027344 280.472656 205.113281 280.445312 205.199219 280.417969 C 205.476562 280.363281 205.761719 280.324219 206.050781 280.328125 C 206.195312 280.332031 206.382812 280.207031 206.558594 280.117188 C 206.785156 280.078125 207.011719 280.042969 207.242188 280.011719 C 208.53125 279.839844 209.816406 279.648438 211.101562 279.445312 C 211.101562 279.453125 211.105469 279.464844 211.109375 279.476562 C 211.144531 279.585938 211.707031 279.542969 211.996094 279.441406 C 212.410156 279.296875 213.167969 279.421875 213.363281 279.0625 C 213.847656 278.988281 214.398438 278.964844 214.773438 278.738281 C 214.742188 278.828125 214.730469 278.910156 214.933594 278.898438 C 215.269531 278.871094 215.585938 278.796875 215.902344 278.722656 C 216.121094 278.671875 216.53125 278.546875 216.386719 278.472656 C 216.382812 278.46875 216.378906 278.464844 216.371094 278.464844 C 217.359375 278.28125 218.34375 278.09375 219.328125 277.890625 C 219.335938 277.886719 219.347656 277.886719 219.355469 277.882812 C 219.261719 277.949219 219.160156 278.015625 219.023438 278.042969 C 219.160156 278.027344 219.296875 278.011719 219.429688 277.988281 C 219.671875 277.941406 219.980469 278 220.105469 277.777344 C 220.125 277.746094 219.941406 277.667969 219.832031 277.667969 C 219.796875 277.667969 219.761719 277.671875 219.730469 277.679688 L 219.730469 277.675781 C 219.820312 277.5625 219.890625 277.472656 219.953125 277.394531 C 220.625 277.175781 221.292969 276.984375 221.796875 277.488281 C 221.816406 277.507812 221.976562 277.476562 222.066406 277.457031 C 222.597656 277.339844 223.128906 277.214844 223.65625 277.089844 C 224.1875 276.964844 224.71875 276.84375 225.246094 276.710938 C 225.695312 276.597656 225.492188 276.582031 225.296875 276.492188 C 225.132812 276.414062 225.214844 276.242188 225.527344 276.167969 C 225.859375 276.085938 226.191406 276.007812 226.527344 275.929688 C 226.832031 276.011719 227.179688 276.019531 227.492188 275.933594 C 227.4375 276.054688 226.980469 276.292969 227.636719 276.136719 C 229.207031 275.757812 230.777344 275.351562 232.34375 274.921875 C 232.550781 274.867188 232.789062 274.800781 232.921875 274.652344 C 233.144531 274.410156 233.453125 274.183594 233.796875 274 C 233.824219 274.167969 233.886719 274.160156 234.199219 274.070312 C 234.65625 273.933594 235.113281 273.792969 235.566406 273.652344 C 235.574219 273.691406 235.542969 273.742188 235.472656 273.792969 C 235.175781 274.007812 234.796875 274.191406 235.5625 273.972656 C 238.421875 273.140625 241.269531 272.214844 244.105469 271.203125 C 244.421875 271.089844 244.707031 271.019531 244.710938 270.664062 C 244.714844 270.488281 245.136719 270.25 245.570312 270.085938 C 246.003906 269.925781 246.453125 269.828125 246.511719 269.960938 C 246.644531 270.257812 246.789062 270.179688 247.136719 270.046875 C 249.511719 269.148438 251.882812 268.1875 254.238281 267.097656 C 254.660156 266.902344 255.5625 266.691406 255.027344 266.25 C 254.972656 266.207031 255.125 266.082031 255.273438 265.992188 C 255.335938 265.96875 255.390625 265.941406 255.441406 265.914062 C 256.445312 265.546875 257.386719 265.023438 258.355469 264.539062 C 258.617188 264.410156 258.828125 264.410156 258.667969 264.671875 C 258.570312 264.832031 258.1875 264.882812 258.171875 265.089844 C 258.390625 264.996094 258.613281 264.917969 258.824219 264.804688 C 259.320312 264.546875 259.808594 264.261719 260.296875 263.980469 C 260.417969 263.910156 260.527344 263.824219 260.644531 263.746094 C 260.519531 263.652344 260.34375 263.839844 260.195312 263.878906 C 260.035156 263.917969 259.855469 264.148438 259.710938 264.035156 C 259.644531 263.984375 259.621094 263.894531 259.804688 263.792969 C 260.023438 263.671875 260.265625 263.523438 260.507812 263.367188 C 260.75 263.210938 260.996094 263.042969 261.230469 262.894531 C 261.703125 262.605469 262.132812 262.371094 262.410156 262.390625 C 263.019531 262.433594 263.53125 262.230469 264.007812 261.9375 C 264.246094 261.792969 264.476562 261.636719 264.707031 261.476562 C 264.9375 261.3125 265.171875 261.152344 265.414062 261.015625 C 265.664062 260.878906 265.976562 260.6875 265.945312 260.4375 C 265.925781 260.273438 265.953125 260.136719 266.011719 260.023438 C 266.246094 259.929688 266.433594 259.832031 266.46875 259.714844 C 266.476562 259.691406 266.484375 259.671875 266.492188 259.652344 C 266.660156 259.582031 266.855469 259.53125 267.070312 259.484375 C 267.925781 259.28125 267.925781 259.277344 268.28125 258.53125 C 268.328125 258.4375 268.488281 258.300781 268.613281 258.203125 C 270.144531 257.054688 271.671875 255.800781 273.175781 254.363281 C 273.511719 254.046875 273.53125 254.171875 273.644531 254.269531 C 273.980469 254.554688 274.421875 253.859375 274.777344 253.507812 C 275.015625 253.273438 275.613281 252.75 275.261719 252.714844 C 274.898438 252.675781 275.007812 252.527344 275.355469 252.117188 C 276.003906 251.355469 276.636719 250.5625 277.269531 249.699219 C 277.515625 249.363281 277.746094 249.160156 277.996094 249.164062 C 278.476562 249.179688 278.714844 248.914062 278.746094 248.289062 C 278.75 248.226562 278.753906 248.171875 278.765625 248.097656 C 278.769531 248.085938 278.773438 248.074219 278.773438 248.058594 C 278.820312 248.039062 278.867188 248.015625 278.910156 248.003906 C 278.960938 247.890625 278.992188 247.769531 279.054688 247.664062 C 279.285156 247.285156 279.386719 246.890625 279.351562 246.617188 C 279.363281 246.601562 279.371094 246.582031 279.382812 246.566406 C 279.535156 246.265625 279.707031 245.964844 279.878906 245.660156 C 279.960938 245.507812 280.046875 245.355469 280.128906 245.203125 C 280.207031 245.046875 280.285156 244.890625 280.355469 244.738281 C 280.582031 244.25 280.675781 244.453125 280.832031 244.425781 C 280.957031 244.398438 280.023438 246.542969 281 244.578125 C 281.914062 242.679688 282.546875 240.640625 282.890625 238.566406 C 282.941406 238.3125 283 237.9375 282.914062 237.703125 C 282.621094 236.875 282.601562 235.652344 282.882812 235.640625 C 283.191406 235.632812 283.175781 235.371094 283.175781 234.773438 L 283.171875 234.117188 L 283.144531 233.464844 L 283.105469 232.8125 C 283.089844 232.59375 283.058594 232.378906 283.03125 232.160156 Z M 223.75 275.242188 C 223.828125 275.152344 223.875 275.042969 224.085938 275.042969 C 224.140625 275.042969 224.214844 275.097656 224.210938 275.128906 C 224.117188 275.222656 223.925781 275.230469 223.75 275.242188 Z M 219.554688 276.085938 C 219.554688 276.0625 219.558594 276.042969 219.566406 276.023438 C 219.628906 276.011719 219.695312 276.003906 219.734375 275.988281 C 219.996094 275.882812 220.222656 275.90625 220.363281 276.007812 C 219.941406 276.121094 219.542969 276.230469 219.554688 276.085938 Z M 216.167969 278.300781 C 216.132812 278.234375 216.179688 278.1875 216.269531 278.15625 C 216.292969 278.214844 216.246094 278.261719 216.167969 278.300781 Z M 216.507812 276.621094 C 216.648438 276.585938 216.816406 276.566406 216.964844 276.546875 C 217.25 276.53125 217.65625 276.378906 217.898438 276.402344 C 217.828125 276.636719 217.5 276.734375 217.074219 276.738281 C 216.894531 276.789062 216.671875 276.84375 216.457031 276.804688 C 216.414062 276.796875 216.316406 276.800781 216.242188 276.796875 C 216.257812 276.738281 216.304688 276.695312 216.378906 276.664062 C 216.421875 276.648438 216.464844 276.632812 216.507812 276.621094 Z M 207.582031 278.414062 C 207.488281 278.402344 207.414062 278.355469 207.324219 278.332031 C 207.25 278.191406 207.457031 278.210938 207.550781 278.199219 C 207.644531 278.191406 207.757812 278.148438 207.859375 278.125 C 207.894531 278.121094 207.925781 278.117188 207.960938 278.113281 C 208.023438 278.109375 208.082031 278.121094 208.117188 278.171875 C 208.15625 278.226562 208.109375 278.269531 208.035156 278.300781 C 207.871094 278.332031 207.71875 278.371094 207.582031 278.414062 Z M 209.339844 278.050781 C 209.234375 278.042969 209.203125 278.011719 209.261719 277.953125 C 209.277344 277.9375 209.335938 277.917969 209.363281 277.921875 C 209.425781 277.925781 209.484375 277.945312 209.542969 277.960938 Z M 211.144531 277.695312 C 211.191406 277.667969 211.238281 277.609375 211.296875 277.597656 C 211.3125 277.59375 211.328125 277.59375 211.339844 277.589844 C 211.386719 277.625 211.429688 277.65625 211.460938 277.695312 C 211.480469 277.71875 211.46875 277.773438 211.421875 277.824219 C 211.3125 277.808594 211.210938 277.777344 211.144531 277.695312 Z M 202.441406 280.484375 C 202.402344 280.503906 202.367188 280.535156 202.328125 280.542969 C 202.160156 280.570312 202.074219 280.527344 202.050781 280.4375 C 202.101562 280.402344 202.152344 280.367188 202.203125 280.332031 Z M 199.605469 279.394531 C 199.585938 279.320312 199.644531 279.277344 199.746094 279.246094 C 199.820312 279.257812 199.867188 279.285156 199.863281 279.335938 C 199.859375 279.425781 199.804688 279.480469 199.722656 279.519531 C 199.664062 279.5 199.621094 279.460938 199.605469 279.394531 Z M 202.15625 278.976562 C 202.171875 279 202.171875 279.027344 202.140625 279.050781 C 202.046875 279.136719 201.867188 279.191406 201.71875 279.253906 C 201.710938 279.257812 201.632812 279.191406 201.585938 279.160156 C 201.601562 279.101562 201.652344 279.054688 201.714844 279.023438 C 201.894531 278.996094 202.054688 278.972656 202.15625 278.976562 Z M 192.347656 281.542969 C 192.363281 281.542969 192.375 281.539062 192.390625 281.539062 C 192.398438 281.546875 192.40625 281.550781 192.414062 281.5625 C 192.390625 281.554688 192.363281 281.550781 192.335938 281.542969 C 192.34375 281.542969 192.34375 281.542969 192.351562 281.542969 Z M 193.742188 281.480469 C 193.753906 281.453125 193.769531 281.429688 193.792969 281.410156 C 193.84375 281.421875 193.894531 281.4375 193.945312 281.457031 C 193.957031 281.460938 193.957031 281.476562 193.953125 281.492188 C 193.882812 281.488281 193.8125 281.484375 193.742188 281.480469 Z M 189.703125 280.398438 C 189.667969 280.402344 189.632812 280.40625 189.597656 280.40625 C 189.492188 280.40625 189.460938 280.375 189.5 280.324219 C 189.613281 280.304688 189.695312 280.3125 189.703125 280.398438 Z M 189.335938 281.78125 C 189.648438 281.773438 189.957031 281.746094 190.265625 281.707031 C 190.273438 281.714844 190.273438 281.722656 190.269531 281.734375 C 190.199219 281.886719 189.800781 281.886719 189.53125 281.898438 C 189.417969 281.90625 189.253906 281.910156 189.121094 281.902344 C 189.175781 281.84375 189.277344 281.78125 189.335938 281.78125 Z M 190.960938 280.238281 L 190.964844 280.234375 Z M 187.027344 280.507812 C 187.042969 280.597656 186.835938 280.65625 186.742188 280.636719 C 186.4375 280.578125 186.175781 280.804688 185.847656 280.683594 C 185.65625 280.613281 185.351562 280.640625 185.101562 280.621094 C 185.175781 280.597656 185.25 280.574219 185.324219 280.554688 C 185.910156 280.429688 186.46875 280.5 187.027344 280.507812 Z M 180.292969 280.910156 C 180.65625 280.894531 180.882812 280.882812 181.105469 280.882812 C 181.210938 280.878906 181.351562 280.871094 181.402344 280.925781 C 181.390625 280.929688 181.375 280.933594 181.363281 280.9375 C 180.832031 280.976562 179.917969 280.996094 179.964844 280.902344 C 179.96875 280.898438 179.972656 280.894531 179.976562 280.886719 C 180.089844 280.894531 180.199219 280.910156 180.292969 280.910156 Z M 176.53125 281.042969 C 176.582031 281.035156 176.636719 281.03125 176.6875 281.027344 C 176.703125 281.035156 176.722656 281.042969 176.746094 281.050781 C 176.664062 281.054688 176.59375 281.050781 176.53125 281.042969 Z M 160.515625 209.039062 C 160.4375 209.128906 160.390625 209.242188 160.179688 209.242188 C 160.125 209.242188 160.050781 209.1875 160.054688 209.152344 C 160.148438 209.0625 160.339844 209.054688 160.515625 209.039062 Z M 164.714844 208.195312 C 164.710938 208.21875 164.707031 208.238281 164.699219 208.257812 C 164.636719 208.269531 164.570312 208.28125 164.535156 208.296875 C 164.269531 208.398438 164.042969 208.378906 163.902344 208.277344 C 164.324219 208.164062 164.722656 208.054688 164.714844 208.195312 Z M 168.097656 205.980469 C 168.132812 206.046875 168.085938 206.09375 168 206.128906 C 167.972656 206.070312 168.019531 206.023438 168.097656 205.980469 Z M 167.757812 207.664062 C 167.621094 207.699219 167.449219 207.714844 167.300781 207.734375 C 167.015625 207.75 166.609375 207.90625 166.367188 207.882812 C 166.4375 207.644531 166.765625 207.546875 167.191406 207.546875 C 167.371094 207.492188 167.59375 207.4375 167.808594 207.476562 C 167.851562 207.484375 167.953125 207.484375 168.023438 207.488281 C 168.007812 207.546875 167.960938 207.589844 167.890625 207.621094 C 167.84375 207.636719 167.800781 207.648438 167.757812 207.664062 Z M 176.683594 205.867188 C 176.777344 205.882812 176.851562 205.929688 176.941406 205.953125 C 177.019531 206.089844 176.808594 206.074219 176.71875 206.082031 C 176.621094 206.089844 176.507812 206.132812 176.40625 206.15625 C 176.371094 206.164062 176.339844 206.167969 176.304688 206.171875 C 176.242188 206.175781 176.183594 206.160156 176.148438 206.109375 C 176.109375 206.054688 176.15625 206.015625 176.234375 205.980469 C 176.394531 205.949219 176.546875 205.910156 176.683594 205.867188 Z M 174.925781 206.234375 C 175.03125 206.238281 175.0625 206.273438 175.003906 206.328125 C 174.988281 206.34375 174.929688 206.363281 174.902344 206.363281 C 174.839844 206.355469 174.78125 206.335938 174.722656 206.324219 Z M 173.121094 206.585938 C 173.074219 206.617188 173.027344 206.671875 172.96875 206.6875 C 172.953125 206.691406 172.9375 206.691406 172.925781 206.695312 C 172.878906 206.660156 172.835938 206.625 172.804688 206.585938 C 172.785156 206.566406 172.796875 206.511719 172.84375 206.457031 C 172.957031 206.472656 173.054688 206.507812 173.121094 206.585938 Z M 181.824219 203.796875 C 181.863281 203.777344 181.898438 203.75 181.9375 203.742188 C 182.105469 203.710938 182.191406 203.753906 182.21875 203.847656 L 182.0625 203.953125 Z M 184.660156 204.886719 C 184.679688 204.960938 184.621094 205.007812 184.519531 205.039062 C 184.445312 205.023438 184.398438 204.996094 184.402344 204.945312 C 184.410156 204.859375 184.464844 204.800781 184.546875 204.761719 C 184.601562 204.785156 184.644531 204.820312 184.660156 204.886719 Z M 182.113281 205.304688 C 182.09375 205.285156 182.09375 205.257812 182.125 205.230469 C 182.21875 205.148438 182.398438 205.089844 182.550781 205.027344 C 182.558594 205.023438 182.636719 205.089844 182.679688 205.125 C 182.664062 205.183594 182.613281 205.226562 182.550781 205.261719 C 182.375 205.285156 182.210938 205.308594 182.113281 205.304688 Z M 191.917969 202.738281 C 191.902344 202.742188 191.890625 202.742188 191.875 202.742188 C 191.867188 202.738281 191.859375 202.730469 191.851562 202.722656 C 191.878906 202.726562 191.902344 202.734375 191.929688 202.738281 C 191.925781 202.738281 191.921875 202.738281 191.917969 202.738281 Z M 190.523438 202.800781 C 190.511719 202.832031 190.496094 202.851562 190.476562 202.875 C 190.421875 202.863281 190.371094 202.847656 190.320312 202.824219 C 190.308594 202.820312 190.308594 202.808594 190.3125 202.789062 C 190.382812 202.792969 190.453125 202.800781 190.523438 202.800781 Z M 194.5625 203.886719 C 194.597656 203.878906 194.636719 203.875 194.667969 203.875 C 194.773438 203.875 194.804688 203.910156 194.769531 203.957031 C 194.65625 203.980469 194.570312 203.96875 194.5625 203.886719 Z M 194.929688 202.503906 C 194.617188 202.507812 194.308594 202.539062 194 202.574219 C 193.992188 202.566406 193.992188 202.558594 193.996094 202.546875 C 194.066406 202.398438 194.46875 202.398438 194.734375 202.382812 C 194.847656 202.378906 195.011719 202.375 195.144531 202.382812 C 195.089844 202.441406 194.988281 202.503906 194.929688 202.503906 Z M 193.304688 204.046875 Z M 197.238281 203.777344 C 197.226562 203.6875 197.429688 203.625 197.523438 203.644531 C 197.828125 203.703125 198.089844 203.476562 198.417969 203.597656 C 198.609375 203.667969 198.914062 203.644531 199.164062 203.664062 L 198.941406 203.730469 C 198.355469 203.855469 197.796875 203.78125 197.238281 203.777344 Z M 203.972656 203.375 C 203.613281 203.386719 203.386719 203.398438 203.160156 203.402344 C 203.054688 203.402344 202.914062 203.414062 202.863281 203.355469 C 202.878906 203.351562 202.890625 203.347656 202.902344 203.34375 C 203.4375 203.304688 204.351562 203.285156 204.300781 203.378906 C 204.296875 203.386719 204.292969 203.390625 204.292969 203.394531 C 204.175781 203.386719 204.066406 203.375 203.972656 203.375 Z M 207.734375 203.242188 C 207.6875 203.25 207.628906 203.253906 207.582031 203.257812 C 207.5625 203.25 207.542969 203.238281 207.519531 203.230469 C 207.601562 203.230469 207.675781 203.230469 207.734375 203.242188 Z M 273.820312 218.5625 C 274.03125 218.730469 274.199219 218.910156 274.289062 219.105469 C 274.167969 219.175781 274.054688 218.976562 273.9375 218.867188 C 273.808594 218.746094 273.628906 218.632812 273.601562 218.503906 C 273.582031 218.425781 273.691406 218.460938 273.820312 218.5625 Z M 270.367188 216.039062 C 270.386719 215.949219 270.390625 215.847656 270.578125 215.972656 C 270.835938 216.152344 271.125 215.863281 271.347656 216.40625 C 271.363281 216.441406 271.421875 216.492188 271.457031 216.535156 C 271.558594 216.660156 271.710938 216.78125 271.878906 216.914062 C 272.042969 217.042969 272.226562 217.171875 272.390625 217.292969 C 272.550781 217.414062 272.695312 217.527344 272.785156 217.628906 C 272.871094 217.734375 272.90625 217.828125 272.847656 217.898438 C 272.8125 217.945312 272.726562 217.890625 272.605469 217.792969 C 272.484375 217.695312 272.328125 217.550781 272.15625 217.398438 C 271.984375 217.246094 271.792969 217.085938 271.601562 216.96875 C 271.414062 216.855469 271.226562 216.777344 271.058594 216.777344 C 270.972656 216.578125 270.777344 216.46875 270.617188 216.375 C 270.457031 216.277344 270.332031 216.203125 270.367188 216.039062 Z M 268.507812 212.875 C 268.726562 213.011719 269.011719 213.140625 269.082031 213.34375 C 268.871094 213.253906 268.660156 213.164062 268.382812 213.050781 C 268.25 212.933594 268.089844 212.78125 267.929688 212.644531 C 268.109375 212.632812 268.324219 212.757812 268.507812 212.875 Z M 267.277344 213.90625 C 267.441406 213.914062 267.644531 213.96875 267.804688 214.140625 C 267.859375 214.203125 267.851562 214.265625 267.882812 214.363281 C 267.679688 214.253906 267.488281 214.164062 267.3125 214.054688 C 267.179688 213.980469 267.160156 213.902344 267.277344 213.90625 Z M 265.417969 211.234375 C 265.574219 211.285156 265.742188 211.332031 265.796875 211.472656 C 265.726562 211.460938 265.628906 211.464844 265.5625 211.429688 C 265.367188 211.324219 265.183594 211.203125 264.996094 211.089844 Z M 261.285156 210.933594 C 261.433594 210.8125 261.59375 211.0625 262.023438 211.144531 C 261.957031 211.132812 262.175781 211.191406 262.039062 211.316406 C 261.988281 211.367188 261.867188 211.371094 261.746094 211.34375 C 261.683594 211.296875 261.625 211.25 261.5625 211.226562 C 261.496094 211.203125 261.433594 211.175781 261.371094 211.148438 C 261.277344 211.074219 261.210938 210.996094 261.285156 210.933594 Z M 260.179688 210.515625 C 260.214844 210.5 260.351562 210.535156 260.429688 210.570312 C 260.480469 210.59375 260.5 210.660156 260.535156 210.707031 C 260.460938 210.707031 260.382812 210.722656 260.308594 210.703125 C 260.113281 210.648438 260.089844 210.566406 260.179688 210.519531 Z M 256.988281 209.371094 C 257.046875 209.179688 257.695312 209.40625 258.085938 209.617188 C 258.347656 209.757812 258.578125 209.503906 258.835938 209.796875 C 258.984375 209.964844 259.382812 209.898438 259.414062 210.082031 C 259.4375 210.25 259.171875 210.257812 258.898438 210.144531 C 258.851562 210.125 258.804688 210.109375 258.753906 210.089844 C 258.734375 210.0625 258.710938 210.039062 258.6875 210.011719 C 258.390625 209.636719 257.714844 209.488281 257.410156 209.507812 C 257.316406 209.515625 257.234375 209.523438 257.160156 209.53125 C 257.042969 209.476562 256.96875 209.429688 256.988281 209.371094 Z M 226.851562 201.984375 C 227.085938 202.039062 227.414062 202.183594 227.339844 202.226562 C 227.109375 202.367188 226.722656 202.285156 226.515625 202.148438 C 226.414062 202.078125 226.664062 202.007812 226.851562 201.984375 Z M 217.082031 201.730469 C 217.085938 201.703125 217.308594 201.675781 217.433594 201.671875 C 217.570312 201.671875 217.730469 201.699219 217.726562 201.796875 C 217.726562 201.882812 217.628906 201.941406 217.449219 201.925781 C 217.265625 201.898438 217.066406 201.863281 217.082031 201.730469 Z M 215.304688 201.578125 C 215.566406 201.578125 215.847656 201.554688 216.039062 201.703125 C 216.035156 201.730469 216.019531 201.753906 216.003906 201.777344 L 215.996094 201.777344 C 215.65625 201.78125 215.320312 201.75 214.984375 201.710938 C 214.984375 201.625 215.125 201.582031 215.304688 201.578125 Z M 209.789062 201.894531 C 209.816406 201.902344 209.855469 201.910156 209.894531 201.917969 C 209.769531 201.933594 209.640625 201.9375 209.515625 201.933594 C 209.605469 201.925781 209.707031 201.917969 209.789062 201.894531 Z M 192.382812 202.683594 C 192.386719 202.6875 192.308594 202.71875 192.242188 202.746094 C 192.136719 202.746094 192.03125 202.746094 191.929688 202.738281 C 191.925781 202.710938 191.925781 202.675781 191.929688 202.640625 C 191.96875 202.621094 192.011719 202.609375 192.046875 202.601562 C 192.1875 202.582031 192.320312 202.605469 192.382812 202.683594 Z M 181.386719 203.78125 C 181.335938 203.832031 181.285156 203.890625 181.230469 203.953125 C 181.21875 203.96875 181.195312 203.988281 181.171875 204.007812 C 181.058594 204.003906 180.960938 203.980469 180.902344 203.898438 C 181.0625 203.859375 181.222656 203.808594 181.386719 203.78125 Z M 177.195312 204.347656 C 177.445312 204.296875 177.699219 204.257812 177.957031 204.226562 C 178.019531 204.230469 178.082031 204.234375 178.148438 204.226562 C 178.292969 204.210938 178.4375 204.1875 178.582031 204.164062 C 178.625 204.160156 178.671875 204.15625 178.71875 204.152344 C 178.847656 204.140625 179.128906 204.050781 179.132812 204.214844 C 179.136719 204.277344 179.089844 204.324219 179.023438 204.363281 C 178.019531 204.378906 177.0625 204.601562 176.097656 204.800781 C 176.054688 204.769531 176.015625 204.722656 175.992188 204.65625 C 175.929688 204.484375 176.769531 204.4375 177.195312 204.347656 Z M 173.742188 204.941406 C 174.09375 204.914062 174.675781 204.59375 174.734375 204.894531 C 174.746094 204.960938 174.710938 205.011719 174.644531 205.050781 C 174.0625 205.132812 173.476562 205.199219 172.902344 205.332031 C 172.847656 205.308594 172.808594 205.269531 172.800781 205.210938 C 172.785156 205.074219 173.03125 205.050781 173.195312 205.015625 C 173.375 204.976562 173.5625 204.953125 173.742188 204.941406 Z M 166.507812 206.34375 C 166.515625 206.363281 166.523438 206.378906 166.527344 206.398438 C 166.285156 206.457031 166.046875 206.515625 165.808594 206.558594 C 165.863281 206.53125 165.917969 206.503906 165.976562 206.484375 C 166.15625 206.425781 166.347656 206.308594 166.507812 206.34375 Z M 162.082031 207.0625 C 162.179688 207.019531 162.253906 207.03125 162.296875 207.085938 L 162.25 207.238281 C 162.179688 207.226562 162.101562 207.222656 162.042969 207.199219 C 161.964844 207.164062 161.980469 207.109375 162.082031 207.0625 Z M 155.402344 208.671875 C 155.511719 208.628906 155.601562 208.628906 155.625 208.691406 C 155.644531 208.738281 155.644531 208.8125 155.597656 208.84375 C 155.515625 208.898438 155.40625 208.890625 155.378906 208.828125 C 155.363281 208.78125 155.394531 208.722656 155.402344 208.671875 Z M 147.839844 210.863281 C 147.851562 210.820312 147.980469 210.726562 148.011719 210.730469 C 148.09375 210.734375 148.167969 210.753906 148.242188 210.777344 C 148.121094 210.816406 148 210.851562 147.878906 210.890625 C 147.867188 210.894531 147.855469 210.898438 147.839844 210.902344 C 147.839844 210.890625 147.839844 210.878906 147.839844 210.863281 Z M 146.015625 211.324219 C 146.210938 211.261719 146.378906 211.285156 146.425781 211.386719 C 146.492188 211.527344 146.25 211.570312 146.125 211.632812 C 145.933594 211.660156 145.710938 211.738281 145.679688 211.601562 C 145.65625 211.476562 145.828125 211.378906 146.015625 211.324219 Z M 144.210938 211.871094 C 144.378906 211.871094 144.714844 211.65625 144.707031 211.882812 C 144.695312 212.074219 144.375 212.195312 144.097656 212.25 C 143.917969 212.289062 143.582031 212.472656 143.585938 212.25 C 143.59375 212.042969 143.949219 211.972656 144.210938 211.871094 Z M 142.699219 212.40625 C 142.847656 212.351562 142.945312 212.378906 142.933594 212.484375 C 142.925781 212.558594 142.867188 212.605469 142.699219 212.632812 C 142.625 212.621094 142.511719 212.605469 142.402344 212.589844 C 142.5 212.527344 142.589844 212.445312 142.699219 212.40625 Z M 134.179688 215.601562 C 134.769531 215.292969 135.425781 215.0625 136.054688 214.820312 C 136.238281 214.746094 136.460938 214.703125 136.484375 214.835938 C 136.503906 214.949219 136.339844 215.074219 136.132812 215.140625 C 135.5 215.34375 134.878906 215.578125 134.324219 215.910156 C 133.621094 216.027344 133.027344 216.542969 132.335938 216.585938 C 132.832031 216.121094 133.5625 215.914062 134.179688 215.601562 Z M 120.277344 222.714844 C 120.554688 222.558594 120.847656 222.324219 121.121094 222.375 C 120.929688 222.527344 120.734375 222.679688 120.5625 222.8125 C 120.292969 222.867188 119.988281 223.25 119.851562 223.050781 C 119.796875 222.976562 120.113281 222.808594 120.277344 222.71875 Z M 104.871094 239.863281 C 104.941406 239.699219 105.023438 239.542969 105.109375 239.402344 C 105.113281 239.425781 105.125 239.449219 105.136719 239.46875 C 105.222656 239.582031 105.433594 239.40625 105.5625 239.203125 C 105.601562 239.140625 105.644531 239.078125 105.683594 239.015625 C 105.660156 239.238281 105.339844 239.710938 105.238281 240.042969 C 105.023438 240.40625 104.820312 241.070312 104.605469 240.957031 C 104.425781 240.859375 104.667969 240.316406 104.871094 239.863281 Z M 102.988281 251.796875 C 102.804688 251.808594 102.710938 251.484375 102.699219 251.070312 C 102.6875 250.65625 102.699219 250.15625 102.699219 249.820312 C 102.6875 249.40625 102.671875 248.972656 102.714844 248.542969 C 102.757812 248.113281 102.816406 247.6875 102.933594 247.304688 C 103.046875 247.652344 103.058594 248.074219 103.035156 248.515625 C 103.019531 248.734375 103.015625 248.960938 103.015625 249.183594 C 103.015625 249.40625 103.023438 249.625 103.046875 249.828125 C 103.007812 250.171875 103.09375 250.664062 103.125 251.066406 C 103.140625 251.269531 103.152344 251.449219 103.140625 251.582031 C 103.125 251.710938 103.082031 251.792969 102.988281 251.796875 Z M 104.089844 256.445312 C 103.710938 256.015625 103.605469 255.210938 103.414062 254.570312 C 103.34375 254.347656 103.316406 254.140625 103.421875 254.09375 C 103.539062 254.378906 103.660156 254.664062 103.773438 254.964844 C 103.878906 255.265625 104.007812 255.570312 104.097656 255.894531 C 104.164062 256.128906 104.292969 256.667969 104.089844 256.445312 Z M 109.148438 264.285156 C 109.0625 264.402344 108.769531 264.113281 108.554688 263.878906 C 107.6875 262.921875 106.882812 261.90625 106.183594 260.824219 L 106.191406 260.820312 C 105.515625 259.808594 104.964844 258.722656 104.433594 257.644531 C 104.238281 257.21875 104.230469 257.09375 104.339844 257.074219 C 104.40625 257.066406 104.550781 257.257812 104.664062 257.371094 C 104.699219 257.40625 104.757812 257.5 104.777344 257.558594 C 104.882812 257.851562 105.003906 258.136719 105.132812 258.417969 C 105.195312 258.558594 105.261719 258.699219 105.328125 258.839844 C 105.398438 258.980469 105.472656 259.117188 105.546875 259.253906 C 105.699219 259.523438 105.859375 259.792969 106.019531 260.0625 C 106.191406 260.324219 106.367188 260.582031 106.542969 260.839844 L 106.8125 261.222656 L 107.097656 261.597656 L 107.671875 262.339844 C 108.066406 262.824219 108.460938 263.308594 108.851562 263.792969 C 108.988281 263.953125 109.175781 264.246094 109.148438 264.285156 Z M 110.445312 265.722656 C 110.238281 265.550781 110.066406 265.375 109.980469 265.179688 C 110.097656 265.105469 110.210938 265.308594 110.328125 265.417969 C 110.457031 265.535156 110.640625 265.648438 110.667969 265.777344 C 110.683594 265.855469 110.574219 265.824219 110.445312 265.722656 Z M 113.902344 268.246094 C 113.882812 268.335938 113.875 268.433594 113.6875 268.308594 C 113.429688 268.132812 113.140625 268.421875 112.917969 267.875 C 112.902344 267.839844 112.84375 267.792969 112.808594 267.75 C 112.707031 267.621094 112.554688 267.503906 112.386719 267.371094 C 112.222656 267.238281 112.039062 267.113281 111.875 266.992188 C 111.714844 266.871094 111.570312 266.753906 111.484375 266.652344 C 111.394531 266.550781 111.359375 266.453125 111.417969 266.382812 C 111.453125 266.339844 111.539062 266.394531 111.660156 266.492188 C 111.78125 266.585938 111.9375 266.734375 112.109375 266.886719 C 112.285156 267.035156 112.472656 267.199219 112.664062 267.316406 C 112.851562 267.429688 113.039062 267.503906 113.207031 267.503906 C 113.292969 267.707031 113.488281 267.8125 113.648438 267.910156 C 113.808594 268.007812 113.933594 268.082031 113.902344 268.246094 Z M 115.757812 271.410156 C 115.539062 271.269531 115.253906 271.144531 115.183594 270.9375 C 115.394531 271.027344 115.605469 271.117188 115.882812 271.234375 C 116.015625 271.351562 116.175781 271.5 116.335938 271.636719 C 116.15625 271.648438 115.945312 271.527344 115.757812 271.410156 Z M 116.988281 270.375 C 116.824219 270.367188 116.621094 270.316406 116.460938 270.140625 C 116.40625 270.082031 116.414062 270.015625 116.382812 269.921875 C 116.585938 270.027344 116.777344 270.117188 116.957031 270.226562 C 117.085938 270.300781 117.105469 270.382812 116.988281 270.375 Z M 118.847656 273.050781 C 118.691406 272.996094 118.523438 272.949219 118.46875 272.808594 C 118.539062 272.820312 118.640625 272.816406 118.703125 272.851562 C 118.898438 272.957031 119.082031 273.078125 119.269531 273.195312 Z M 122.980469 273.347656 C 122.832031 273.46875 122.671875 273.222656 122.242188 273.136719 C 122.3125 273.148438 122.089844 273.09375 122.226562 272.964844 C 122.277344 272.917969 122.398438 272.910156 122.523438 272.941406 C 122.582031 272.984375 122.640625 273.035156 122.703125 273.054688 C 122.769531 273.078125 122.832031 273.105469 122.894531 273.136719 C 122.988281 273.207031 123.054688 273.285156 122.980469 273.347656 Z M 124.085938 273.765625 C 124.050781 273.785156 123.914062 273.75 123.835938 273.714844 C 123.785156 273.691406 123.765625 273.625 123.730469 273.574219 C 123.808594 273.578125 123.882812 273.558594 123.957031 273.582031 C 124.152344 273.632812 124.179688 273.71875 124.085938 273.765625 Z M 127.277344 274.910156 C 127.21875 275.101562 126.570312 274.875 126.179688 274.664062 C 125.917969 274.523438 125.6875 274.777344 125.429688 274.484375 C 125.28125 274.316406 124.882812 274.382812 124.851562 274.199219 C 124.828125 274.035156 125.09375 274.027344 125.367188 274.136719 C 125.414062 274.160156 125.460938 274.175781 125.511719 274.191406 C 125.535156 274.21875 125.554688 274.242188 125.578125 274.273438 C 125.875 274.644531 126.550781 274.796875 126.855469 274.773438 C 126.949219 274.765625 127.03125 274.757812 127.105469 274.753906 C 127.222656 274.804688 127.296875 274.855469 127.277344 274.910156 Z M 157.414062 282.296875 C 157.179688 282.242188 156.851562 282.097656 156.925781 282.054688 C 157.15625 281.917969 157.542969 281.996094 157.75 282.136719 C 157.851562 282.207031 157.601562 282.277344 157.414062 282.296875 Z M 167.183594 282.554688 C 167.179688 282.578125 166.957031 282.605469 166.832031 282.609375 C 166.695312 282.613281 166.539062 282.585938 166.539062 282.488281 C 166.539062 282.402344 166.640625 282.34375 166.816406 282.355469 C 167 282.382812 167.199219 282.421875 167.183594 282.554688 Z M 168.960938 282.703125 C 168.699219 282.703125 168.417969 282.730469 168.226562 282.578125 C 168.234375 282.550781 168.246094 282.527344 168.261719 282.507812 L 168.273438 282.507812 C 168.609375 282.503906 168.945312 282.53125 169.28125 282.570312 C 169.28125 282.660156 169.140625 282.703125 168.964844 282.703125 Z M 174.476562 282.390625 C 174.449219 282.382812 174.410156 282.375 174.375 282.363281 C 174.496094 282.347656 174.625 282.34375 174.753906 282.347656 C 174.660156 282.355469 174.5625 282.363281 174.476562 282.390625 Z M 191.882812 281.597656 C 191.878906 281.59375 191.957031 281.566406 192.027344 281.539062 C 192.128906 281.539062 192.234375 281.539062 192.335938 281.542969 C 192.339844 281.574219 192.339844 281.609375 192.335938 281.644531 C 192.296875 281.660156 192.253906 281.675781 192.21875 281.679688 C 192.078125 281.703125 191.945312 281.675781 191.882812 281.597656 Z M 202.878906 280.503906 C 202.929688 280.449219 202.980469 280.390625 203.035156 280.328125 C 203.046875 280.3125 203.070312 280.292969 203.09375 280.273438 C 203.207031 280.277344 203.304688 280.304688 203.363281 280.382812 C 203.203125 280.421875 203.042969 280.476562 202.878906 280.503906 Z M 207.070312 279.933594 C 206.820312 279.988281 206.566406 280.023438 206.308594 280.054688 C 206.246094 280.050781 206.183594 280.050781 206.121094 280.054688 C 205.972656 280.070312 205.828125 280.09375 205.683594 280.117188 C 205.640625 280.121094 205.59375 280.125 205.546875 280.132812 C 205.417969 280.140625 205.136719 280.234375 205.132812 280.066406 C 205.128906 280.003906 205.175781 279.957031 205.242188 279.921875 C 206.246094 279.90625 207.203125 279.679688 208.167969 279.480469 C 208.210938 279.515625 208.25 279.558594 208.273438 279.628906 C 208.335938 279.796875 207.496094 279.847656 207.070312 279.933594 Z M 210.523438 279.34375 C 210.171875 279.371094 209.589844 279.691406 209.53125 279.386719 C 209.519531 279.320312 209.554688 279.269531 209.621094 279.230469 C 210.203125 279.152344 210.789062 279.082031 211.363281 278.949219 C 211.417969 278.972656 211.457031 279.011719 211.464844 279.074219 C 211.480469 279.210938 211.234375 279.234375 211.070312 279.265625 C 210.890625 279.304688 210.703125 279.328125 210.523438 279.34375 Z M 217.757812 277.9375 C 217.75 277.921875 217.742188 277.902344 217.738281 277.886719 C 217.980469 277.824219 218.21875 277.765625 218.457031 277.722656 C 218.402344 277.753906 218.347656 277.777344 218.289062 277.796875 C 218.109375 277.859375 217.917969 277.972656 217.757812 277.9375 Z M 222.183594 277.21875 C 222.089844 277.261719 222.011719 277.25 221.96875 277.199219 L 222.015625 277.046875 C 222.085938 277.058594 222.167969 277.0625 222.222656 277.085938 C 222.304688 277.121094 222.285156 277.175781 222.183594 277.21875 Z M 228.863281 275.609375 C 228.753906 275.65625 228.664062 275.652344 228.640625 275.589844 C 228.621094 275.546875 228.621094 275.46875 228.667969 275.4375 C 228.75 275.382812 228.863281 275.394531 228.886719 275.457031 C 228.902344 275.5 228.871094 275.558594 228.863281 275.609375 Z M 236.425781 273.421875 C 236.414062 273.460938 236.285156 273.554688 236.253906 273.554688 C 236.171875 273.546875 236.097656 273.527344 236.023438 273.507812 C 236.144531 273.46875 236.265625 273.429688 236.386719 273.390625 C 236.398438 273.386719 236.410156 273.382812 236.425781 273.378906 C 236.425781 273.390625 236.429688 273.40625 236.425781 273.421875 Z M 238.25 272.960938 C 238.054688 273.019531 237.886719 272.996094 237.839844 272.894531 C 237.773438 272.753906 238.015625 272.710938 238.140625 272.652344 C 238.332031 272.621094 238.554688 272.542969 238.585938 272.683594 C 238.609375 272.804688 238.4375 272.902344 238.25 272.960938 Z M 240.054688 272.410156 C 239.886719 272.414062 239.550781 272.625 239.5625 272.402344 C 239.570312 272.207031 239.890625 272.089844 240.167969 272.03125 C 240.347656 271.996094 240.683594 271.808594 240.679688 272.03125 C 240.671875 272.238281 240.316406 272.308594 240.054688 272.410156 Z M 241.566406 271.878906 C 241.417969 271.933594 241.320312 271.902344 241.332031 271.796875 C 241.339844 271.722656 241.398438 271.679688 241.566406 271.648438 C 241.640625 271.660156 241.753906 271.675781 241.863281 271.695312 C 241.765625 271.757812 241.675781 271.835938 241.566406 271.878906 Z M 250.085938 268.683594 C 249.496094 268.992188 248.839844 269.21875 248.210938 269.464844 C 248.027344 269.535156 247.804688 269.578125 247.78125 269.449219 C 247.761719 269.335938 247.929688 269.210938 248.132812 269.144531 C 248.765625 268.9375 249.386719 268.703125 249.941406 268.371094 C 250.644531 268.257812 251.238281 267.742188 251.929688 267.699219 C 251.4375 268.164062 250.703125 268.367188 250.085938 268.683594 Z M 263.992188 261.566406 C 263.710938 261.722656 263.421875 261.957031 263.144531 261.90625 C 263.335938 261.753906 263.53125 261.605469 263.703125 261.46875 C 263.972656 261.414062 264.277344 261.03125 264.414062 261.230469 C 264.46875 261.308594 264.152344 261.472656 263.988281 261.566406 Z M 279.394531 244.421875 C 279.324219 244.585938 279.242188 244.738281 279.15625 244.878906 C 279.152344 244.855469 279.140625 244.832031 279.128906 244.8125 C 279.042969 244.699219 278.832031 244.875 278.703125 245.078125 C 278.664062 245.144531 278.621094 245.207031 278.582031 245.269531 C 278.605469 245.046875 278.925781 244.570312 279.027344 244.242188 C 279.242188 243.878906 279.445312 243.214844 279.660156 243.328125 C 279.839844 243.421875 279.597656 243.96875 279.394531 244.421875 Z M 279.925781 227.207031 C 279.859375 227.21875 279.714844 227.027344 279.601562 226.910156 C 279.566406 226.875 279.507812 226.78125 279.488281 226.722656 C 279.382812 226.433594 279.261719 226.148438 279.132812 225.863281 C 279.070312 225.722656 279.003906 225.582031 278.9375 225.441406 C 278.867188 225.304688 278.792969 225.167969 278.71875 225.03125 C 278.566406 224.757812 278.40625 224.488281 278.246094 224.222656 C 278.074219 223.960938 277.898438 223.699219 277.722656 223.441406 L 277.453125 223.058594 L 277.167969 222.683594 L 276.59375 221.941406 C 276.199219 221.457031 275.804688 220.972656 275.410156 220.492188 C 275.277344 220.328125 275.089844 220.035156 275.117188 220 C 275.203125 219.878906 275.496094 220.171875 275.710938 220.402344 C 276.578125 221.363281 277.382812 222.378906 278.082031 223.457031 L 278.074219 223.460938 C 278.75 224.472656 279.300781 225.5625 279.832031 226.636719 C 280.027344 227.0625 280.035156 227.191406 279.925781 227.207031 Z M 280.167969 228.386719 C 280.101562 228.152344 279.976562 227.613281 280.175781 227.835938 C 280.554688 228.265625 280.660156 229.070312 280.851562 229.714844 C 280.921875 229.933594 280.949219 230.140625 280.84375 230.1875 C 280.726562 229.90625 280.605469 229.617188 280.492188 229.316406 C 280.386719 229.015625 280.257812 228.714844 280.167969 228.386719 Z M 281.566406 233.214844 C 281.578125 233.628906 281.566406 234.125 281.566406 234.464844 C 281.578125 234.875 281.59375 235.3125 281.550781 235.742188 C 281.507812 236.171875 281.453125 236.59375 281.332031 236.976562 C 281.21875 236.628906 281.207031 236.210938 281.230469 235.769531 C 281.246094 235.546875 281.25 235.320312 281.25 235.101562 C 281.25 234.878906 281.246094 234.660156 281.21875 234.453125 C 281.257812 234.109375 281.171875 233.617188 281.140625 233.214844 C 281.125 233.011719 281.113281 232.832031 281.125 232.703125 C 281.140625 232.570312 281.183594 232.488281 281.277344 232.484375 C 281.460938 232.476562 281.554688 232.800781 281.566406 233.214844 Z M 281.566406 233.214844 " fill-opacity="1" fill-rule="nonzero"/></g></g></g><g clip-path="url(#7c5ae99085)"><g clip-path="url(#b69923fddd)"><g clip-path="url(#873fcafc30)"><path fill="#a4b385" d="M 279.699219 223.378906 C 279.804688 223.558594 279.90625 223.6875 279.988281 223.640625 C 280.03125 223.613281 279.972656 223.457031 279.894531 223.292969 C 279.816406 223.132812 279.714844 222.972656 279.679688 222.933594 C 279.050781 222.039062 278.566406 221.46875 278.082031 220.894531 C 278.429688 221.5625 278.957031 222.179688 279.371094 222.835938 C 279.46875 222.980469 279.585938 223.207031 279.699219 223.382812 Z M 279.699219 223.378906 " fill-opacity="1" fill-rule="nonzero"/></g></g></g><g clip-path="url(#e3b0a696af)"><g clip-path="url(#488eab6111)"><g clip-path="url(#6e4459dc58)"><path fill="#a4b385" d="M 272.5 255.320312 C 272.332031 255.449219 272.15625 255.597656 272.121094 255.769531 C 272.179688 255.832031 272.285156 255.839844 272.433594 255.707031 C 272.59375 255.5625 272.839844 255.335938 272.863281 255.230469 C 272.90625 255.039062 272.671875 255.183594 272.5 255.320312 Z M 272.5 255.320312 " fill-opacity="1" fill-rule="nonzero"/></g></g></g><g clip-path="url(#be4b90179e)"><g clip-path="url(#5406ad1c32)"><g clip-path="url(#554bad88af)"><path fill="#a4b385" d="M 270.316406 257.113281 C 270.132812 257.242188 269.96875 257.375 270.003906 257.523438 C 270.09375 257.621094 270.3125 257.519531 270.46875 257.402344 C 270.636719 257.28125 270.90625 256.976562 270.886719 256.953125 C 270.796875 256.84375 270.566406 256.933594 270.316406 257.113281 Z M 270.316406 257.113281 " fill-opacity="1" fill-rule="nonzero"/></g></g></g><g clip-path="url(#90ab68fe9e)"><g clip-path="url(#fbb929a799)"><g clip-path="url(#11e7cff19f)"><path fill="#a4b385" d="M 261.492188 263.0625 C 261.308594 263.140625 261.144531 263.3125 261.21875 263.414062 C 261.304688 263.527344 261.527344 263.363281 261.691406 263.304688 C 261.875 263.199219 262.136719 263.050781 262.09375 262.953125 C 262.023438 262.800781 261.703125 262.972656 261.492188 263.0625 Z M 261.492188 263.0625 " fill-opacity="1" fill-rule="nonzero"/></g></g></g><g clip-path="url(#62a5abc675)"><g clip-path="url(#544cefc9cb)"><g clip-path="url(#4c43d27b16)"><path fill="#a4b385" d="M 221.113281 201.539062 C 220.988281 201.523438 220.859375 201.496094 220.738281 201.5 C 220.613281 201.503906 220.496094 201.535156 220.375 201.558594 C 220.484375 201.589844 220.589844 201.625 220.703125 201.648438 C 220.910156 201.695312 221.0625 201.671875 221.113281 201.539062 Z M 221.113281 201.539062 " fill-opacity="1" fill-rule="nonzero"/></g></g></g><g clip-path="url(#3a753db7d8)"><g clip-path="url(#d2404d47cb)"><g clip-path="url(#38397b6db4)"><path fill="#a4b385" d="M 220.375 201.558594 C 220.359375 201.550781 220.339844 201.546875 220.324219 201.542969 C 220.324219 201.550781 220.324219 201.554688 220.324219 201.5625 L 220.351562 201.5625 C 220.359375 201.558594 220.367188 201.558594 220.375 201.558594 Z M 220.375 201.558594 " fill-opacity="1" fill-rule="nonzero"/></g></g></g><g clip-path="url(#bd732ab394)"><g clip-path="url(#9adb0bd946)"><g clip-path="url(#de39c6bd04)"><path fill="#a4b385" d="M 258.695312 208.222656 L 258.425781 208.078125 L 258.140625 208.027344 C 258.210938 208.074219 258.277344 208.136719 258.355469 208.160156 C 258.464844 208.195312 258.605469 208.285156 258.695312 208.222656 Z M 258.695312 208.222656 " fill-opacity="1" fill-rule="nonzero"/></g></g></g><g clip-path="url(#e7f0c0f086)"><g clip-path="url(#646b179d10)"><g clip-path="url(#8dd7b705ec)"><path fill="#a4b385" d="M 257.136719 265.476562 C 257.011719 265.546875 256.800781 265.691406 256.8125 265.726562 C 256.835938 265.816406 257.003906 265.703125 257.117188 265.664062 C 257.242188 265.597656 257.390625 265.535156 257.386719 265.429688 C 257.386719 265.414062 257.207031 265.4375 257.136719 265.476562 Z M 257.136719 265.476562 " fill-opacity="1" fill-rule="nonzero"/></g></g></g><g clip-path="url(#4a48ff2ec5)"><g clip-path="url(#d0d5e7e923)"><g clip-path="url(#9a094cc9a1)"><path fill="#a4b385" d="M 269.230469 258.226562 C 269.292969 258.195312 269.355469 258.164062 269.417969 258.132812 L 269.507812 258.035156 C 269.445312 258.066406 269.382812 258.09375 269.320312 258.132812 C 269.289062 258.152344 269.261719 258.195312 269.230469 258.226562 Z M 269.230469 258.226562 " fill-opacity="1" fill-rule="nonzero"/></g></g></g><g clip-path="url(#ae05729e0f)"><path fill="#99dd90" d="M 164.394531 239.535156 C 164.394531 239.535156 153.699219 238.972656 144.253906 233.542969 C 135.886719 228.734375 128.582031 219.671875 127.183594 210.636719 C 123.9375 189.644531 135.320312 172.285156 135.320312 172.285156 C 135.320312 172.285156 128.984375 158.0625 139.230469 149.78125 C 148.457031 142.324219 161.4375 149.515625 163.238281 152.710938 C 165.0625 147.050781 192.738281 140.65625 202.609375 144.652344 C 204.742188 137.460938 214.507812 133.566406 222.375 137.796875 C 231.285156 142.589844 229.398438 151.113281 229.132812 153.417969 C 234.910156 155.90625 250.828125 167.089844 251.273438 188.484375 C 251.71875 209.878906 241.3125 227.992188 223.085938 232.339844 C 217.484375 244.5 212.546875 247.03125 210.015625 246.722656 C 207.480469 246.414062 206.859375 247.742188 204.144531 247.519531 C 201.429688 247.296875 197.917969 248.984375 196.761719 246.5 C 195.609375 244.011719 193.515625 238.554688 193.515625 238.554688 C 193.515625 238.554688 189.78125 245.125 187.914062 247.476562 C 186.046875 249.828125 183.554688 248.097656 183.289062 247.519531 C 183.023438 246.941406 181.511719 249.339844 179.15625 249.5625 C 176.796875 249.785156 176.398438 247.875 174.039062 248.628906 C 171.683594 249.382812 168.398438 249.65625 164.394531 239.535156 Z M 164.394531 239.535156 " fill-opacity="1" fill-rule="nonzero"/></g><path fill="#99dd90" d="M 128.4375 197.445312 C 128.4375 197.445312 115.820312 205.277344 113.539062 216.09375 C 112.539062 220.5625 116.695312 220.617188 117.839844 220.140625 C 118.984375 219.667969 118.976562 220.128906 118.492188 221.203125 C 117.535156 223.320312 119.074219 225.3125 121.800781 224.640625 C 123.5 224.222656 122.492188 227.589844 125.929688 226.835938 C 129.371094 226.078125 132.53125 223.378906 135.734375 219.214844 Z M 128.4375 197.445312 " fill-opacity="1" fill-rule="nonzero"/><path fill="#99dd90" d="M 249.566406 186.386719 C 262.453125 162.726562 257.957031 156.484375 254.5625 156.25 C 254.566406 152.636719 250.984375 152.6875 249.347656 153.914062 C 248.835938 151.832031 245.226562 151.0625 243.082031 154.992188 C 240.933594 158.925781 236.804688 160.542969 236.804688 160.542969 Z M 249.566406 186.386719 " fill-opacity="1" fill-rule="nonzero"/><path fill="#773c2c" d="M 156.570312 159.367188 C 156.570312 159.863281 156.523438 160.355469 156.425781 160.839844 C 156.328125 161.328125 156.183594 161.796875 155.996094 162.257812 C 155.804688 162.714844 155.574219 163.148438 155.296875 163.558594 C 155.019531 163.972656 154.707031 164.355469 154.355469 164.703125 C 154.007812 165.054688 153.625 165.367188 153.210938 165.640625 C 152.800781 165.917969 152.363281 166.148438 151.90625 166.339844 C 151.445312 166.527344 150.972656 166.671875 150.488281 166.769531 C 150 166.867188 149.507812 166.914062 149.011719 166.914062 C 148.515625 166.914062 148.023438 166.867188 147.539062 166.769531 C 147.050781 166.671875 146.578125 166.527344 146.121094 166.339844 C 145.660156 166.148438 145.226562 165.917969 144.8125 165.640625 C 144.402344 165.367188 144.019531 165.054688 143.667969 164.703125 C 143.316406 164.355469 143.003906 163.972656 142.730469 163.558594 C 142.453125 163.148438 142.21875 162.714844 142.03125 162.257812 C 141.839844 161.796875 141.695312 161.328125 141.601562 160.839844 C 141.503906 160.355469 141.453125 159.863281 141.453125 159.367188 C 141.453125 158.871094 141.503906 158.382812 141.601562 157.894531 C 141.695312 157.410156 141.839844 156.9375 142.03125 156.480469 C 142.21875 156.023438 142.453125 155.589844 142.730469 155.175781 C 143.003906 154.765625 143.316406 154.382812 143.667969 154.03125 C 144.019531 153.683594 144.402344 153.371094 144.8125 153.09375 C 145.226562 152.820312 145.660156 152.585938 146.121094 152.398438 C 146.578125 152.207031 147.050781 152.0625 147.539062 151.96875 C 148.023438 151.871094 148.515625 151.824219 149.011719 151.824219 C 149.507812 151.824219 150 151.871094 150.488281 151.96875 C 150.972656 152.0625 151.445312 152.207031 151.90625 152.398438 C 152.363281 152.585938 152.800781 152.820312 153.210938 153.09375 C 153.625 153.371094 154.007812 153.683594 154.355469 154.03125 C 154.707031 154.382812 155.019531 154.765625 155.296875 155.175781 C 155.574219 155.589844 155.804688 156.023438 155.996094 156.480469 C 156.183594 156.9375 156.328125 157.410156 156.425781 157.894531 C 156.523438 158.382812 156.570312 158.871094 156.570312 159.367188 Z M 156.570312 159.367188 " fill-opacity="1" fill-rule="nonzero"/><path fill="#773c2c" d="M 223.882812 147.917969 C 223.882812 148.414062 223.832031 148.902344 223.738281 149.390625 C 223.640625 149.875 223.496094 150.347656 223.308594 150.804688 C 223.117188 151.261719 222.882812 151.695312 222.609375 152.109375 C 222.332031 152.519531 222.019531 152.902344 221.667969 153.253906 C 221.316406 153.601562 220.9375 153.914062 220.523438 154.191406 C 220.109375 154.464844 219.675781 154.699219 219.214844 154.886719 C 218.757812 155.078125 218.285156 155.222656 217.796875 155.316406 C 217.3125 155.414062 216.820312 155.460938 216.324219 155.460938 C 215.828125 155.460938 215.335938 155.414062 214.851562 155.316406 C 214.363281 155.222656 213.890625 155.078125 213.433594 154.886719 C 212.972656 154.699219 212.539062 154.464844 212.125 154.191406 C 211.710938 153.914062 211.332031 153.601562 210.980469 153.253906 C 210.628906 152.902344 210.316406 152.519531 210.039062 152.109375 C 209.765625 151.695312 209.53125 151.261719 209.339844 150.804688 C 209.152344 150.347656 209.007812 149.875 208.910156 149.390625 C 208.816406 148.902344 208.765625 148.414062 208.765625 147.917969 C 208.765625 147.421875 208.816406 146.929688 208.910156 146.445312 C 209.007812 145.957031 209.152344 145.488281 209.339844 145.027344 C 209.53125 144.570312 209.765625 144.136719 210.039062 143.722656 C 210.316406 143.3125 210.628906 142.929688 210.980469 142.582031 C 211.332031 142.230469 211.710938 141.917969 212.125 141.644531 C 212.539062 141.367188 212.972656 141.136719 213.433594 140.945312 C 213.890625 140.753906 214.363281 140.613281 214.851562 140.515625 C 215.335938 140.417969 215.828125 140.371094 216.324219 140.371094 C 216.820312 140.371094 217.3125 140.417969 217.796875 140.515625 C 218.285156 140.613281 218.757812 140.753906 219.214844 140.945312 C 219.675781 141.136719 220.109375 141.367188 220.523438 141.644531 C 220.9375 141.917969 221.316406 142.230469 221.667969 142.582031 C 222.019531 142.929688 222.332031 143.3125 222.609375 143.722656 C 222.882812 144.136719 223.117188 144.570312 223.308594 145.027344 C 223.496094 145.488281 223.640625 145.957031 223.738281 146.445312 C 223.832031 146.929688 223.882812 147.421875 223.882812 147.917969 Z M 223.882812 147.917969 " fill-opacity="1" fill-rule="nonzero"/><path fill="#773c2c" d="M 178.066406 167.480469 C 175.617188 167.480469 174.144531 166.046875 174.074219 165.976562 C 173.761719 165.664062 173.761719 165.160156 174.074219 164.847656 C 174.386719 164.535156 174.890625 164.535156 175.203125 164.839844 C 175.265625 164.902344 176.640625 166.195312 178.90625 165.808594 C 180.105469 165.601562 180.867188 165.101562 181.753906 164.519531 C 182.667969 163.914062 183.710938 163.234375 185.308594 162.929688 C 186.910156 162.625 188.070312 163.015625 189.09375 163.359375 C 190.066406 163.6875 190.90625 163.96875 192.070312 163.644531 C 194.480469 162.976562 196.214844 160.5 196.230469 160.476562 C 196.480469 160.109375 196.980469 160.019531 197.34375 160.269531 C 197.707031 160.519531 197.800781 161.015625 197.546875 161.378906 C 197.464844 161.5 195.476562 164.359375 192.496094 165.183594 C 190.851562 165.636719 189.648438 165.230469 188.582031 164.871094 C 187.664062 164.5625 186.800781 164.273438 185.601562 164.496094 C 184.324219 164.738281 183.5 165.28125 182.628906 165.851562 C 181.683594 166.472656 180.703125 167.113281 179.175781 167.378906 C 178.785156 167.453125 178.417969 167.480469 178.066406 167.480469 Z M 178.066406 167.480469 " fill-opacity="1" fill-rule="nonzero"/><path fill="#e0e5a8" d="M 220.859375 207.878906 C 220.859375 208.746094 220.8125 209.613281 220.722656 210.476562 C 220.628906 211.34375 220.492188 212.203125 220.3125 213.054688 C 220.128906 213.90625 219.902344 214.75 219.632812 215.578125 C 219.359375 216.410156 219.046875 217.230469 218.6875 218.03125 C 218.332031 218.835938 217.933594 219.621094 217.492188 220.386719 C 217.050781 221.152344 216.574219 221.898438 216.054688 222.621094 C 215.535156 223.339844 214.980469 224.039062 214.386719 224.710938 C 213.796875 225.382812 213.167969 226.027344 212.507812 226.640625 C 211.847656 227.253906 211.15625 227.835938 210.4375 228.390625 C 209.714844 228.941406 208.964844 229.457031 208.1875 229.941406 C 207.414062 230.421875 206.613281 230.867188 205.789062 231.277344 C 204.964844 231.6875 204.121094 232.058594 203.261719 232.390625 C 202.398438 232.722656 201.519531 233.015625 200.625 233.269531 C 199.734375 233.523438 198.828125 233.734375 197.910156 233.902344 C 196.996094 234.070312 196.074219 234.199219 195.144531 234.285156 C 194.214844 234.371094 193.285156 234.410156 192.351562 234.410156 C 191.417969 234.410156 190.484375 234.371094 189.554688 234.285156 C 188.625 234.199219 187.703125 234.070312 186.789062 233.902344 C 185.871094 233.734375 184.96875 233.523438 184.074219 233.269531 C 183.179688 233.015625 182.304688 232.722656 181.441406 232.390625 C 180.578125 232.058594 179.734375 231.6875 178.910156 231.277344 C 178.089844 230.867188 177.289062 230.421875 176.511719 229.941406 C 175.734375 229.457031 174.988281 228.941406 174.265625 228.390625 C 173.542969 227.835938 172.851562 227.253906 172.191406 226.640625 C 171.53125 226.027344 170.90625 225.382812 170.3125 224.710938 C 169.71875 224.039062 169.164062 223.339844 168.644531 222.621094 C 168.128906 221.898438 167.648438 221.152344 167.207031 220.386719 C 166.769531 219.621094 166.371094 218.835938 166.011719 218.03125 C 165.65625 217.230469 165.339844 216.410156 165.070312 215.578125 C 164.796875 214.75 164.570312 213.90625 164.390625 213.054688 C 164.207031 212.203125 164.070312 211.34375 163.980469 210.476562 C 163.886719 209.613281 163.84375 208.746094 163.84375 207.878906 C 163.84375 207.007812 163.886719 206.140625 163.980469 205.277344 C 164.070312 204.410156 164.207031 203.554688 164.390625 202.699219 C 164.570312 201.847656 164.796875 201.007812 165.070312 200.175781 C 165.339844 199.34375 165.65625 198.527344 166.011719 197.722656 C 166.371094 196.921875 166.769531 196.136719 167.207031 195.371094 C 167.648438 194.601562 168.128906 193.859375 168.644531 193.136719 C 169.164062 192.414062 169.71875 191.714844 170.3125 191.042969 C 170.90625 190.371094 171.53125 189.730469 172.191406 189.113281 C 172.851562 188.5 173.542969 187.917969 174.265625 187.367188 C 174.988281 186.816406 175.734375 186.296875 176.511719 185.816406 C 177.289062 185.332031 178.089844 184.886719 178.910156 184.476562 C 179.734375 184.066406 180.578125 183.695312 181.441406 183.363281 C 182.304688 183.03125 183.179688 182.738281 184.074219 182.484375 C 184.96875 182.234375 185.871094 182.023438 186.789062 181.851562 C 187.703125 181.683594 188.625 181.554688 189.554688 181.472656 C 190.484375 181.386719 191.417969 181.34375 192.351562 181.34375 C 193.285156 181.34375 194.214844 181.386719 195.144531 181.472656 C 196.074219 181.554688 196.996094 181.683594 197.910156 181.851562 C 198.828125 182.023438 199.734375 182.234375 200.625 182.484375 C 201.519531 182.738281 202.398438 183.03125 203.261719 183.363281 C 204.121094 183.695312 204.964844 184.066406 205.789062 184.476562 C 206.613281 184.886719 207.414062 185.332031 208.1875 185.816406 C 208.964844 186.296875 209.714844 186.816406 210.4375 187.367188 C 211.15625 187.917969 211.847656 188.5 212.507812 189.113281 C 213.167969 189.730469 213.796875 190.371094 214.386719 191.042969 C 214.980469 191.714844 215.535156 192.414062 216.054688 193.136719 C 216.574219 193.859375 217.050781 194.601562 217.492188 195.371094 C 217.933594 196.136719 218.332031 196.921875 218.6875 197.722656 C 219.046875 198.527344 219.359375 199.34375 219.632812 200.175781 C 219.902344 201.007812 220.128906 201.847656 220.3125 202.699219 C 220.492188 203.554688 220.628906 204.410156 220.722656 205.277344 C 220.8125 206.140625 220.859375 207.007812 220.859375 207.878906 Z M 220.859375 207.878906 " fill-opacity="1" fill-rule="nonzero"/></svg>