<svg xmlns="http://www.w3.org/2000/svg" xmlns:xlink="http://www.w3.org/1999/xlink" width="1080" zoomAndPan="magnify" viewBox="0 0 810 809.999993" height="1080" preserveAspectRatio="xMidYMid meet" version="1.0"><path fill="#feab82" d="M 289.414062 418.851562 C 223.0625 455.167969 -5.265625 564.699219 21.792969 337.078125 C 50.265625 97.6875 263.367188 277.285156 305.636719 315.523438 C 304.070312 317.222656 302.570312 318.976562 301.132812 320.789062 C 299.699219 322.597656 298.332031 324.457031 297.03125 326.367188 C 295.730469 328.277344 294.503906 330.234375 293.347656 332.234375 C 292.191406 334.238281 291.113281 336.277344 290.109375 338.359375 C 289.101562 340.4375 288.175781 342.550781 287.324219 344.703125 C 286.476562 346.851562 285.707031 349.027344 285.015625 351.234375 C 284.328125 353.4375 283.71875 355.664062 283.195312 357.914062 C 282.667969 360.164062 282.226562 362.433594 281.871094 364.714844 C 281.511719 366.996094 281.238281 369.289062 281.046875 371.59375 C 280.859375 373.894531 280.753906 376.203125 280.734375 378.511719 C 280.710938 380.824219 280.777344 383.132812 280.929688 385.4375 C 281.078125 387.742188 281.3125 390.039062 281.632812 392.328125 C 281.949219 394.617188 282.355469 396.890625 282.839844 399.148438 C 283.328125 401.40625 283.894531 403.644531 284.546875 405.863281 C 285.199219 408.078125 285.929688 410.269531 286.742188 412.433594 C 287.554688 414.59375 288.445312 416.726562 289.414062 418.824219 Z M 289.414062 418.851562 " fill-opacity="1" fill-rule="nonzero"/><path fill="#feab82" d="M 216.144531 697.550781 C 11.394531 586.828125 233.195312 460.039062 294.734375 428.746094 C 295.949219 430.710938 297.234375 432.628906 298.59375 434.5 C 299.949219 436.371094 301.375 438.191406 302.863281 439.957031 C 304.355469 441.726562 305.910156 443.433594 307.527344 445.089844 C 309.144531 446.742188 310.816406 448.332031 312.550781 449.859375 C 314.285156 451.390625 316.074219 452.855469 317.914062 454.253906 C 319.753906 455.648438 321.644531 456.976562 323.585938 458.238281 C 325.523438 459.496094 327.507812 460.683594 329.53125 461.796875 C 331.558594 462.90625 333.625 463.945312 335.726562 464.90625 C 337.828125 465.867188 339.964844 466.75 342.132812 467.554688 C 344.300781 468.359375 346.492188 469.082031 348.714844 469.726562 C 350.933594 470.367188 353.175781 470.929688 355.4375 471.40625 C 357.699219 471.882812 359.976562 472.277344 362.265625 472.589844 C 364.558594 472.898438 366.859375 473.125 369.164062 473.265625 C 371.472656 473.40625 373.78125 473.464844 376.09375 473.433594 C 378.40625 473.40625 380.714844 473.292969 383.015625 473.09375 C 385.320312 472.898438 387.613281 472.613281 389.894531 472.246094 C 398.695312 537.601562 424.164062 810.070312 216.144531 697.550781 Z M 216.144531 697.550781 " fill-opacity="1" fill-rule="nonzero"/><path fill="#feab82" d="M 412.980469 293.210938 C 410.917969 292.300781 408.828125 291.464844 406.707031 290.703125 C 404.585938 289.941406 402.4375 289.257812 400.265625 288.652344 C 398.097656 288.042969 395.90625 287.515625 393.699219 287.066406 C 391.488281 286.617188 389.265625 286.246094 387.03125 285.953125 C 384.796875 285.664062 382.554688 285.453125 380.304688 285.324219 C 378.050781 285.195312 375.800781 285.148438 373.546875 285.179688 C 371.292969 285.210938 369.042969 285.324219 366.796875 285.519531 C 364.550781 285.710938 362.316406 285.984375 360.089844 286.339844 C 357.863281 286.691406 355.652344 287.125 353.457031 287.640625 C 351.261719 288.152344 349.089844 288.742188 346.9375 289.410156 C 344.785156 290.078125 342.65625 290.824219 340.558594 291.644531 C 338.460938 292.464844 336.390625 293.363281 334.355469 294.332031 C 332.320312 295.300781 330.324219 296.34375 328.363281 297.453125 C 326.402344 298.566406 324.484375 299.75 322.609375 301 C 320.734375 302.25 318.90625 303.566406 317.125 304.949219 C 315.34375 306.328125 313.617188 307.773438 311.9375 309.277344 C 269.21875 262 90.980469 49.046875 327.613281 24.433594 C 562.453125 0 444.261719 236.796875 412.980469 293.210938 Z M 412.980469 293.210938 " fill-opacity="1" fill-rule="nonzero"/><path fill="#feab82" d="M 630.039062 637.546875 C 453.453125 796.527344 410.1875 531.242188 402.695312 469.3125 C 404.734375 468.683594 406.746094 467.984375 408.738281 467.214844 C 410.730469 466.449219 412.691406 465.613281 414.628906 464.714844 C 416.5625 463.8125 418.464844 462.847656 420.332031 461.816406 C 422.203125 460.785156 424.03125 459.695312 425.828125 458.539062 C 427.621094 457.386719 429.375 456.171875 431.089844 454.898438 C 432.800781 453.625 434.46875 452.292969 436.089844 450.90625 C 437.710938 449.519531 439.285156 448.078125 440.808594 446.585938 C 442.332031 445.09375 443.804688 443.546875 445.222656 441.953125 C 446.640625 440.359375 448.003906 438.722656 449.3125 437.035156 C 450.621094 435.347656 451.871094 433.621094 453.058594 431.847656 C 454.25 430.078125 455.378906 428.269531 456.445312 426.421875 C 457.515625 424.574219 458.519531 422.691406 459.457031 420.773438 C 460.398438 418.859375 461.269531 416.914062 462.078125 414.9375 C 462.886719 412.960938 463.625 410.960938 464.296875 408.9375 C 464.96875 406.910156 465.570312 404.863281 466.101562 402.796875 C 466.636719 400.730469 467.097656 398.648438 467.488281 396.550781 C 510.402344 404.832031 815.285156 470.691406 630.039062 637.546875 Z M 630.039062 637.546875 " fill-opacity="1" fill-rule="nonzero"/><path fill="#feab82" d="M 468.75 386.839844 C 468.890625 385.085938 468.976562 383.320312 469.015625 381.535156 C 469.066406 379.460938 469.050781 377.386719 468.960938 375.3125 C 468.875 373.234375 468.71875 371.167969 468.496094 369.101562 C 468.269531 367.039062 467.980469 364.984375 467.617188 362.9375 C 467.257812 360.894531 466.832031 358.863281 466.335938 356.847656 C 465.839844 354.828125 465.277344 352.832031 464.652344 350.851562 C 464.023438 348.871094 463.332031 346.914062 462.574219 344.980469 C 461.816406 343.046875 461 341.140625 460.113281 339.261719 C 459.230469 337.382812 458.285156 335.535156 457.28125 333.71875 C 456.277344 331.902344 455.210938 330.121094 454.085938 328.375 C 452.964844 326.628906 451.78125 324.921875 450.546875 323.253906 C 449.308594 321.585938 448.019531 319.960938 446.675781 318.378906 C 445.328125 316.796875 443.933594 315.257812 442.488281 313.769531 C 441.042969 312.28125 439.546875 310.839844 438.007812 309.449219 C 436.464844 308.058594 434.878906 306.71875 433.246094 305.433594 C 431.617188 304.148438 429.945312 302.917969 428.234375 301.742188 C 426.523438 300.566406 424.773438 299.449219 422.988281 298.390625 C 451.292969 250.113281 606.828125 3.15625 701.695312 226.523438 C 794.570312 445.136719 529.882812 399.90625 468.75 386.839844 Z M 468.75 386.839844 " fill-opacity="1" fill-rule="nonzero"/><path fill="#ff5e41" d="M 469.015625 381.535156 C 469.015625 383.320312 468.890625 385.085938 468.75 386.839844 C 468.484375 390.101562 468.054688 393.335938 467.460938 396.550781 C 467.070312 398.648438 466.605469 400.730469 466.074219 402.796875 C 465.542969 404.863281 464.941406 406.910156 464.269531 408.933594 C 463.597656 410.960938 462.859375 412.960938 462.054688 414.933594 C 461.246094 416.910156 460.375 418.855469 459.433594 420.769531 C 458.496094 422.6875 457.492188 424.566406 456.425781 426.414062 C 455.359375 428.261719 454.230469 430.074219 453.039062 431.84375 C 451.851562 433.613281 450.601562 435.34375 449.296875 437.027344 C 447.988281 438.714844 446.625 440.355469 445.207031 441.949219 C 443.789062 443.542969 442.316406 445.085938 440.792969 446.578125 C 439.269531 448.074219 437.699219 449.515625 436.078125 450.902344 C 434.457031 452.289062 432.789062 453.617188 431.078125 454.890625 C 429.367188 456.167969 427.613281 457.378906 425.820312 458.535156 C 424.027344 459.691406 422.195312 460.78125 420.328125 461.8125 C 418.457031 462.84375 416.558594 463.808594 414.625 464.710938 C 412.691406 465.613281 410.726562 466.445312 408.738281 467.214844 C 406.746094 467.984375 404.730469 468.683594 402.695312 469.3125 C 398.511719 470.617188 394.253906 471.609375 389.921875 472.289062 C 387.640625 472.65625 385.347656 472.9375 383.042969 473.136719 C 380.742188 473.335938 378.433594 473.449219 376.121094 473.476562 C 373.808594 473.507812 371.5 473.449219 369.191406 473.308594 C 366.886719 473.167969 364.585938 472.941406 362.296875 472.628906 C 360.003906 472.320312 357.726562 471.925781 355.464844 471.449219 C 353.203125 470.96875 350.960938 470.410156 348.742188 469.765625 C 346.519531 469.125 344.328125 468.402344 342.160156 467.597656 C 339.992188 466.792969 337.855469 465.910156 335.753906 464.949219 C 333.652344 463.988281 331.585938 462.949219 329.5625 461.835938 C 327.535156 460.722656 325.550781 459.539062 323.613281 458.277344 C 321.675781 457.019531 319.785156 455.691406 317.941406 454.292969 C 316.101562 452.894531 314.3125 451.433594 312.578125 449.902344 C 310.847656 448.375 309.171875 446.78125 307.554688 445.128906 C 305.9375 443.476562 304.382812 441.769531 302.894531 440 C 301.402344 438.234375 299.976562 436.414062 298.621094 434.542969 C 297.265625 432.671875 295.976562 430.753906 294.761719 428.785156 C 292.785156 425.597656 291.011719 422.300781 289.441406 418.894531 C 288.472656 416.796875 287.582031 414.664062 286.769531 412.503906 C 285.957031 410.339844 285.226562 408.148438 284.574219 405.933594 C 283.921875 403.714844 283.355469 401.476562 282.867188 399.21875 C 282.382812 396.960938 281.980469 394.6875 281.660156 392.398438 C 281.339844 390.109375 281.105469 387.8125 280.957031 385.507812 C 280.804688 383.203125 280.742188 380.894531 280.761719 378.582031 C 280.78125 376.273438 280.886719 373.964844 281.074219 371.664062 C 281.265625 369.359375 281.539062 367.066406 281.898438 364.785156 C 282.257812 362.503906 282.699219 360.234375 283.222656 357.984375 C 283.75 355.734375 284.355469 353.507812 285.046875 351.300781 C 285.734375 349.097656 286.503906 346.921875 287.351562 344.773438 C 288.203125 342.621094 289.128906 340.507812 290.136719 338.429688 C 291.140625 336.347656 292.222656 334.308594 293.375 332.304688 C 294.53125 330.304688 295.757812 328.347656 297.058594 326.4375 C 298.359375 324.527344 299.726562 322.667969 301.164062 320.859375 C 302.597656 319.046875 304.101562 317.292969 305.664062 315.59375 C 307.6875 313.40625 309.804688 311.300781 312.023438 309.320312 C 313.699219 307.816406 315.429688 306.371094 317.210938 304.988281 C 318.992188 303.609375 320.820312 302.292969 322.695312 301.042969 C 324.570312 299.792969 326.488281 298.609375 328.449219 297.496094 C 330.410156 296.382812 332.40625 295.34375 334.441406 294.375 C 336.476562 293.402344 338.542969 292.507812 340.640625 291.6875 C 342.742188 290.867188 344.867188 290.121094 347.019531 289.453125 C 349.171875 288.785156 351.347656 288.195312 353.542969 287.679688 C 355.738281 287.167969 357.949219 286.734375 360.171875 286.382812 C 362.398438 286.027344 364.636719 285.753906 366.882812 285.558594 C 369.128906 285.367188 371.375 285.253906 373.628906 285.222656 C 375.882812 285.1875 378.136719 285.238281 380.386719 285.367188 C 382.636719 285.496094 384.878906 285.707031 387.117188 285.996094 C 389.351562 286.289062 391.574219 286.65625 393.78125 287.109375 C 395.992188 287.558594 398.179688 288.085938 400.351562 288.691406 C 402.523438 289.300781 404.667969 289.984375 406.789062 290.746094 C 408.910156 291.507812 411.003906 292.34375 413.066406 293.253906 C 416.507812 294.773438 419.839844 296.5 423.070312 298.429688 C 424.855469 299.492188 426.601562 300.609375 428.308594 301.785156 C 430.019531 302.960938 431.6875 304.191406 433.316406 305.480469 C 434.941406 306.765625 436.527344 308.101562 438.066406 309.496094 C 439.605469 310.886719 441.097656 312.324219 442.539062 313.816406 C 443.984375 315.304688 445.378906 316.839844 446.71875 318.421875 C 448.0625 320.003906 449.351562 321.628906 450.585938 323.296875 C 451.820312 324.964844 452.996094 326.671875 454.117188 328.417969 C 455.242188 330.160156 456.304688 331.941406 457.308594 333.757812 C 458.3125 335.574219 459.253906 337.417969 460.136719 339.296875 C 461.015625 341.175781 461.835938 343.082031 462.589844 345.011719 C 463.347656 346.945312 464.035156 348.898438 464.664062 350.878906 C 465.289062 352.855469 465.847656 354.851562 466.34375 356.867188 C 466.835938 358.882812 467.261719 360.910156 467.621094 362.953125 C 467.980469 364.996094 468.273438 367.050781 468.496094 369.113281 C 468.722656 371.175781 468.875 373.242188 468.964844 375.316406 C 469.050781 377.390625 469.066406 379.460938 469.015625 381.535156 Z M 469.015625 381.535156 " fill-opacity="1" fill-rule="nonzero"/></svg>