<svg xmlns="http://www.w3.org/2000/svg" xmlns:xlink="http://www.w3.org/1999/xlink" width="1080" zoomAndPan="magnify" viewBox="0 0 810 809.999993" height="1080" preserveAspectRatio="xMidYMid meet" version="1.0"><defs><clipPath id="0bb41e7275"><path d="M 499 94 L 546.429688 94 L 546.429688 159 L 499 159 Z M 499 94 " clip-rule="nonzero"/></clipPath><clipPath id="f0597247a8"><path d="M 480 10.453125 L 528 10.453125 L 528 76 L 480 76 Z M 480 10.453125 " clip-rule="nonzero"/></clipPath></defs><path fill="#a66fbe" d="M 378.398438 305.539062 L 342.007812 331.980469 L 342.007812 781.316406 C 342.007812 791.074219 349.921875 798.984375 359.652344 798.984375 L 397.171875 798.984375 C 406.933594 798.984375 414.816406 791.074219 414.816406 781.316406 L 414.816406 331.980469 L 378.398438 305.539062 " fill-opacity="1" fill-rule="nonzero"/><path fill="#fcdfc6" d="M 342.007812 660.769531 L 342.007812 781.316406 C 342.007812 791.074219 349.921875 798.984375 359.652344 798.984375 L 397.171875 798.984375 C 406.933594 798.984375 414.816406 791.074219 414.816406 781.316406 L 414.816406 660.769531 L 342.007812 660.769531 " fill-opacity="1" fill-rule="nonzero"/><path fill="#fab918" d="M 490.835938 206.527344 C 488.40625 198.125 480.984375 192.121094 472.234375 191.515625 L 417.386719 187.820312 L 397.808594 137.996094 C 394.660156 130.058594 386.976562 124.804688 378.398438 124.804688 C 369.847656 124.804688 362.167969 130.058594 359.019531 137.996094 L 339.410156 187.820312 L 284.589844 191.515625 C 275.839844 192.121094 268.417969 198.125 265.992188 206.527344 C 263.566406 214.953125 266.65625 223.988281 273.761719 229.15625 L 317.429688 260.851562 L 301.398438 315.351562 C 298.917969 323.898438 302.121094 333.105469 309.402344 338.214844 C 316.679688 343.351562 326.410156 343.296875 333.632812 338.070312 L 378.398438 305.539062 L 423.195312 338.070312 C 426.832031 340.699219 431.136719 342.027344 435.4375 342.027344 C 439.628906 342.027344 443.816406 340.753906 447.425781 338.214844 C 454.703125 333.105469 457.9375 323.898438 455.425781 315.351562 L 439.394531 260.851562 L 483.066406 229.15625 C 490.167969 223.988281 493.261719 214.953125 490.835938 206.527344 " fill-opacity="1" fill-rule="nonzero"/><path fill="#fab918" d="M 499.671875 101.363281 C 499.671875 101.363281 465.96875 94.726562 457.246094 43.066406 L 457.246094 43.054688 L 457.246094 43.066406 C 448.523438 94.726562 414.816406 101.363281 414.816406 101.363281 C 414.816406 101.363281 448.523438 107.976562 457.246094 159.648438 C 465.96875 107.976562 499.671875 101.363281 499.671875 101.363281 " fill-opacity="1" fill-rule="nonzero"/><g clip-path="url(#0bb41e7275)"><path fill="#fab918" d="M 546.402344 126.160156 C 546.402344 126.160156 527.832031 122.496094 523.035156 94.03125 C 518.214844 122.496094 499.671875 126.160156 499.671875 126.160156 C 499.671875 126.160156 518.214844 129.796875 523.035156 158.261719 C 527.832031 129.796875 546.402344 126.160156 546.402344 126.160156 " fill-opacity="1" fill-rule="nonzero"/></g><g clip-path="url(#f0597247a8)"><path fill="#fab918" d="M 527.371094 43.054688 C 527.371094 43.054688 508.796875 39.402344 504.003906 10.941406 C 499.179688 39.402344 480.609375 43.054688 480.609375 43.054688 C 480.609375 43.054688 499.179688 46.710938 504.003906 75.167969 C 508.796875 46.710938 527.371094 43.054688 527.371094 43.054688 " fill-opacity="1" fill-rule="nonzero"/></g></svg>