<svg xmlns="http://www.w3.org/2000/svg" xmlns:xlink="http://www.w3.org/1999/xlink" width="1080" zoomAndPan="magnify" viewBox="0 0 810 809.999993" height="1080" preserveAspectRatio="xMidYMid meet" version="1.0"><defs><clipPath id="4b9927e698"><path d="M 108.222656 17 L 699 17 L 699 795.253906 L 108.222656 795.253906 Z M 108.222656 17 " clip-rule="nonzero"/></clipPath><clipPath id="03aadc82e1"><path d="M 108.222656 15 L 699 15 L 699 795.253906 L 108.222656 795.253906 Z M 108.222656 15 " clip-rule="nonzero"/></clipPath></defs><g clip-path="url(#4b9927e698)"><path fill="#5d69b4" d="M 385.796875 17.835938 C 417.828125 21.121094 504 48.625 534.207031 59.582031 C 565.90625 71.082031 596.339844 77.277344 627.761719 89.519531 C 641.1875 94.75 654.980469 99.957031 667.003906 107.671875 C 695.96875 126.253906 701.035156 148.191406 697.308594 179.042969 C 692.625 217.816406 677.261719 253.546875 665.277344 290.199219 C 652.042969 330.667969 637.558594 370.726562 623.992188 411.089844 C 610.597656 450.941406 598.058594 491.082031 584.421875 530.847656 C 572.96875 564.234375 560.707031 597.347656 548.375 630.421875 C 537.691406 659.066406 526.898438 687.691406 515.203125 715.929688 C 508.601562 731.871094 502.101562 748.53125 491.921875 762.144531 C 478.433594 780.183594 462.078125 795.300781 436.011719 795.253906 C 412.25 795.214844 390.566406 787.277344 368.136719 782.167969 C 349.6875 777.96875 331.394531 772.761719 313.425781 766.8125 C 287.566406 758.25 261.953125 748.902344 236.429688 739.359375 C 209.300781 729.214844 182.1875 718.96875 155.488281 707.769531 C 138.550781 700.664062 120 693.617188 114.0625 673.902344 C 110.199219 661.078125 108.535156 647.023438 108.984375 633.621094 C 109.46875 619.320312 112.417969 604.800781 116.402344 590.988281 C 122.863281 568.605469 130.824219 546.640625 138.566406 524.644531 C 149.128906 494.65625 159.640625 464.640625 171 434.953125 C 180.5625 409.960938 191.597656 385.539062 201.4375 360.644531 C 211.660156 334.777344 221.195312 308.640625 231.085938 282.640625 C 251.832031 228.109375 271.785156 173.253906 293.730469 119.210938 C 304.621094 92.398438 318.421875 66.65625 332.449219 41.28125 C 343.851562 20.664062 361.59375 15.351562 385.796875 17.835938 Z M 385.796875 17.835938 " fill-opacity="1" fill-rule="nonzero"/></g><g clip-path="url(#03aadc82e1)"><path fill="#fecfa7" d="M 388.824219 16.355469 C 396.164062 16.964844 403.492188 18.289062 410.445312 19.914062 C 452.132812 29.636719 492.605469 39.269531 533.054688 53.941406 C 564.753906 65.441406 596.339844 77.277344 627.761719 89.519531 C 641.1875 94.75 654.980469 99.957031 667.003906 107.671875 C 695.96875 126.253906 701.035156 148.191406 697.308594 179.042969 C 690.089844 238.792969 662.496094 297.890625 643.410156 354.644531 C 612.410156 446.8125 582.351562 539.296875 548.375 630.421875 C 537.691406 659.066406 526.898438 687.691406 515.203125 715.929688 C 508.601562 731.871094 502.101562 748.53125 491.921875 762.144531 C 478.433594 780.183594 462.078125 795.300781 436.007812 795.253906 C 398.890625 795.1875 358.886719 780.328125 323.660156 769.632812 C 269.132812 753.078125 216.203125 732.097656 163.425781 710.726562 C 144.402344 703.023438 120.691406 695.914062 114.0625 673.902344 C 110.199219 661.078125 108.535156 647.023438 108.984375 633.621094 C 109.46875 619.320312 112.414062 604.800781 116.402344 590.988281 C 122.863281 568.605469 130.820312 546.640625 138.566406 524.644531 C 186.511719 388.5 239.421875 252.9375 293.730469 119.210938 C 304.621094 92.398438 318.421875 66.65625 332.449219 41.285156 C 344.707031 19.105469 366.804688 14.523438 388.824219 16.355469 Z M 403.578125 751.421875 C 426.6875 752.828125 447.105469 744.242188 457.128906 719.320312 C 509.476562 589.148438 553.71875 455.949219 598.664062 323.109375 C 617.042969 268.78125 641.734375 213.085938 651.910156 156.5 C 655.296875 137.660156 644.886719 122.421875 626.355469 117.0625 C 623.863281 116.34375 619.992188 117.414062 617.839844 119.0625 C 610.304688 124.835938 603.339844 131.34375 595.980469 137.347656 C 589.367188 142.746094 581.695312 143.523438 573.8125 140.96875 C 526.878906 125.75 480.800781 107.222656 434.414062 90.40625 C 425.464844 87.160156 421.171875 80.820312 420.75 71.402344 C 420.433594 64.425781 420.066406 57.402344 418.953125 50.527344 C 418.546875 47.992188 416.34375 44.285156 414.269531 43.734375 C 404.660156 41.191406 394.886719 38.828125 385.023438 37.796875 C 359.011719 35.078125 345.382812 57.390625 336.96875 78.523438 C 271.226562 243.609375 205.640625 408.945312 149.679688 577.628906 C 141.921875 601.015625 139.242188 624.179688 145.183594 648.328125 C 150.542969 670.125 165.363281 674.878906 184.144531 682.332031 C 208.511719 692.003906 233.089844 701.144531 257.863281 709.71875 C 299.582031 724.15625 341.851562 737.011719 384.546875 748.25 C 390.984375 749.945312 397.378906 751.042969 403.578125 751.421875 Z M 685.402344 150.089844 C 684.242188 149.605469 683.078125 149.121094 681.914062 148.636719 C 680.355469 150.992188 678.191406 153.152344 677.339844 155.742188 C 672.488281 170.476562 668.179688 185.394531 663.25 200.105469 C 654.085938 227.453125 644.5 254.664062 635.300781 282 C 614.964844 342.425781 595.0625 403 574.414062 463.316406 C 555.746094 517.859375 536.796875 572.320312 517.074219 626.488281 C 503.136719 664.769531 487.730469 702.511719 472.894531 740.464844 C 471.101562 745.050781 470.046875 749.929688 475.558594 751.578125 C 477.496094 752.15625 482.070312 748.167969 483.519531 745.296875 C 487.121094 738.164062 489.6875 730.496094 492.546875 722.996094 C 505.792969 688.265625 519.28125 653.621094 532.140625 618.746094 C 547.871094 576.097656 563.660156 533.457031 578.34375 490.441406 C 599.390625 428.777344 619.78125 366.882812 639.839844 304.886719 C 653.910156 261.394531 667.066406 217.601562 680.367188 173.863281 C 682.714844 166.140625 683.757812 158.023438 685.402344 150.089844 Z M 549.398438 118.132812 C 551.535156 116.105469 556.582031 113.144531 556.203125 111.300781 C 555.460938 107.714844 552.304688 102.933594 549.0625 101.820312 C 519.417969 91.644531 489.578125 82.019531 459.644531 72.703125 C 451.230469 70.121094 448.21875 79.511719 454.347656 84.515625 C 457.675781 87.230469 462.199219 88.652344 466.390625 90.113281 C 489.5 98.167969 512.65625 106.089844 535.816406 114.003906 C 539.746094 115.347656 543.761719 116.429688 549.398438 118.132812 Z M 549.398438 118.132812 " fill-opacity="1" fill-rule="nonzero"/></g><path fill="#fff5ac" d="M 217.609375 650.449219 C 218.777344 650.78125 221.378906 651.367188 223.792969 652.226562 C 260.003906 665.105469 296.199219 678 332.367188 690.9375 C 344.511719 695.28125 356.578125 699.742188 368.671875 704.160156 C 378.136719 707.621094 381.972656 713.015625 378.59375 718.054688 C 375.417969 722.785156 366.5625 723.707031 356.964844 720.359375 C 309.234375 703.710938 261.503906 687.066406 213.75 670.457031 C 205.722656 667.664062 198.726562 664.515625 199.1875 658.082031 C 199.625 652.007812 206.535156 648.855469 217.609375 650.449219 Z M 334.65625 279.890625 C 340.667969 279.457031 344.996094 278.910156 349.328125 278.875 C 363.960938 278.757812 370.972656 286.679688 368.421875 301.320312 C 366.746094 310.914062 364.269531 320.425781 361.378906 329.734375 C 358.648438 338.519531 355.046875 347.050781 351.558594 355.582031 C 347.84375 364.675781 334.070312 363.828125 333.914062 353.296875 C 333.824219 347.058594 339.746094 338.144531 342.023438 332.445312 C 345.527344 323.667969 348.996094 314.871094 352.175781 305.96875 C 356.09375 294.992188 353.652344 292.734375 342.582031 295.019531 C 329.234375 297.773438 321.996094 306.457031 318.277344 318.894531 C 317.484375 321.546875 317.324219 325.199219 315.507812 326.554688 C 312.414062 328.855469 308.132812 331.597656 304.21875 329.625 C 294.140625 324.550781 303.703125 299.945312 305.257812 291.996094 C 302.601562 292.308594 290.695312 295.542969 290.6875 290.210938 C 290.6875 287.546875 293.0625 284.785156 295.652344 284.46875 C 306.953125 283.089844 311.539062 275.378906 315.285156 265.628906 C 320.285156 252.617188 325.828125 239.574219 337.835938 230.988281 C 344.117188 226.496094 350.429688 222.003906 358.144531 228.511719 C 363.980469 233.433594 366.796875 242.886719 361.855469 250.691406 C 356.164062 259.667969 348.175781 267.203125 341.042969 275.242188 C 339.671875 276.789062 337.644531 277.753906 334.65625 279.890625 Z M 350.15625 240.335938 C 340.636719 246.222656 336.390625 255.425781 333.425781 265.457031 C 341.777344 258.910156 350.75 252.804688 350.15625 240.335938 Z M 494.5 391.25 C 481.925781 391.90625 469.550781 381.554688 469.738281 368.5625 C 470 350.679688 492.214844 290.972656 518.242188 313.34375 C 523.175781 317.585938 526.882812 323.394531 530.613281 328.859375 C 534.390625 334.394531 537.355469 340.472656 540.960938 346.132812 C 544.1875 351.203125 542.433594 356.996094 537.144531 360.488281 C 533.464844 362.921875 529.988281 366.082031 527.359375 369.621094 C 518.964844 380.917969 509.644531 390.460938 494.5 391.25 Z M 489.183594 344.125 C 487.328125 349.925781 484.929688 355.574219 483.773438 361.464844 C 482.042969 370.308594 487.761719 377.230469 495.320312 375.621094 C 503.910156 373.792969 509.917969 368.378906 513.570312 361.027344 C 505.351562 355.332031 497.890625 350.164062 489.183594 344.125 Z M 508.113281 325.644531 C 505.460938 334.863281 508.1875 337.9375 517.964844 337.960938 C 514.179688 333.226562 511.144531 329.4375 508.113281 325.644531 Z M 386.238281 318.972656 C 383 325.890625 382.4375 332.324219 387.484375 338.535156 C 388.363281 339.617188 389.449219 340.550781 390.230469 341.695312 C 393.078125 345.867188 398.722656 350.027344 393.097656 355.351562 C 387.625 360.53125 382.152344 357.09375 377.511719 353.113281 C 368.195312 345.117188 365.589844 335.078125 367.6875 323.019531 C 369.855469 310.539062 374.617188 299.800781 384.082031 291.226562 C 391.464844 284.535156 400.121094 282.421875 409.699219 283.964844 C 419.183594 285.492188 426.808594 295.21875 425.457031 303.59375 C 423.574219 315.289062 411.425781 325.113281 401.144531 323.007812 C 396.300781 322.015625 391.582031 320.4375 386.238281 318.972656 Z M 393.480469 306.101562 C 399.984375 311.613281 405.683594 311.78125 408.972656 306.144531 C 409.933594 304.496094 409.253906 299.800781 408.246094 299.425781 C 401.433594 296.898438 396.601562 299.832031 393.480469 306.101562 Z M 426.597656 349.894531 C 429.984375 349.492188 434.726562 346.8125 435.929688 343.871094 C 444.632812 322.605469 456.371094 300.289062 462.046875 278.023438 C 465.640625 263.925781 457.109375 262.925781 450.847656 275.6875 C 447.558594 282.394531 444.328125 289.136719 441.113281 295.878906 C 434.679688 309.371094 428.351562 322.910156 422.011719 336.445312 C 421.207031 338.160156 421.195312 340.246094 420.449219 343.992188 C 422.054688 345.640625 424.605469 350.132812 426.597656 349.894531 Z M 484.226562 271.425781 C 482.554688 271.550781 481.15625 272.738281 480.097656 274.035156 C 473.339844 282.296875 470.453125 295.023438 466.558594 304.898438 C 461.914062 316.667969 457.328125 328.464844 452.714844 340.246094 C 450.683594 345.433594 452.730469 349.226562 457.582031 350.945312 C 462.542969 352.703125 465.230469 349.882812 466.707031 345.128906 C 471.992188 328.113281 477.632812 311.203125 482.785156 294.148438 C 483.804688 290.773438 490.742188 270.945312 484.226562 271.425781 Z M 455.378906 387.035156 C 456.554688 385.015625 457.261719 382.675781 457.339844 380.015625 C 457.351562 379.542969 457.359375 379.042969 457.121094 378.632812 C 456.839844 378.152344 456.292969 377.910156 455.765625 377.730469 C 444.605469 373.890625 437.867188 386.109375 426.574219 376.519531 C 421.640625 372.332031 418.335938 366.277344 413.914062 361.40625 C 412.304688 359.636719 409.550781 358.90625 407.324219 357.699219 C 406.332031 359.792969 404.949219 361.796875 404.472656 364 C 404.082031 365.804688 404.503906 367.914062 405.023438 369.761719 C 407.773438 379.566406 415.691406 388.433594 424.414062 393.441406 C 433.859375 398.863281 449.828125 396.546875 455.378906 387.035156 Z M 455.378906 387.035156 " fill-opacity="1" fill-rule="nonzero"/></svg>