<svg xmlns="http://www.w3.org/2000/svg" xmlns:xlink="http://www.w3.org/1999/xlink" width="1080" zoomAndPan="magnify" viewBox="0 0 810 809.999993" height="1080" preserveAspectRatio="xMidYMid meet" version="1.0"><defs><clipPath id="f921f958cb"><path d="M 393 622 L 416 622 L 416 732.945312 L 393 732.945312 Z M 393 622 " clip-rule="nonzero"/></clipPath><clipPath id="aa573361c6"><path d="M 380 76.695312 L 420 76.695312 L 420 98 L 380 98 Z M 380 76.695312 " clip-rule="nonzero"/></clipPath><clipPath id="95ad1cc16d"><path d="M 778 389 L 803.644531 389 L 803.644531 415 L 778 415 Z M 778 389 " clip-rule="nonzero"/></clipPath><clipPath id="98c3d01fc4"><path d="M 6.394531 395 L 32 395 L 32 421 L 6.394531 421 Z M 6.394531 395 " clip-rule="nonzero"/></clipPath></defs><path fill="#15130d" d="M 405.019531 703.703125 C 402.777344 703.703125 400.964844 701.890625 400.964844 699.652344 L 400.964844 407.6875 C 400.964844 405.449219 402.777344 403.636719 405.019531 403.636719 C 407.257812 403.636719 409.070312 405.449219 409.070312 407.6875 L 409.070312 699.652344 C 409.070312 701.890625 407.257812 703.703125 405.019531 703.703125 Z M 405.019531 703.703125 " fill-opacity="1" fill-rule="nonzero"/><g clip-path="url(#f921f958cb)"><path fill="#e74b2f" d="M 404.171875 622.667969 C 404.894531 622.667969 405.613281 622.738281 406.324219 622.878906 C 407.035156 623.019531 407.722656 623.226562 408.390625 623.503906 C 409.0625 623.78125 409.695312 624.121094 410.296875 624.523438 C 410.898438 624.925781 411.457031 625.382812 411.96875 625.894531 C 412.480469 626.40625 412.9375 626.960938 413.339844 627.5625 C 413.742188 628.164062 414.082031 628.800781 414.359375 629.46875 C 414.636719 630.136719 414.847656 630.828125 414.988281 631.535156 C 415.128906 632.246094 415.199219 632.964844 415.199219 633.6875 L 415.199219 721.855469 C 415.199219 722.578125 415.128906 723.292969 414.988281 724.003906 C 414.847656 724.714844 414.636719 725.402344 414.359375 726.070312 C 414.082031 726.738281 413.742188 727.375 413.339844 727.976562 C 412.9375 728.578125 412.480469 729.136719 411.96875 729.648438 C 411.457031 730.15625 410.898438 730.613281 410.296875 731.015625 C 409.695312 731.417969 409.0625 731.757812 408.390625 732.035156 C 407.722656 732.3125 407.035156 732.523438 406.324219 732.664062 C 405.613281 732.804688 404.894531 732.875 404.171875 732.875 C 403.449219 732.875 402.730469 732.804688 402.019531 732.664062 C 401.308594 732.523438 400.621094 732.3125 399.953125 732.035156 C 399.28125 731.757812 398.648438 731.417969 398.046875 731.015625 C 397.441406 730.613281 396.886719 730.15625 396.375 729.648438 C 395.863281 729.136719 395.40625 728.578125 395.003906 727.976562 C 394.601562 727.375 394.261719 726.738281 393.984375 726.070312 C 393.707031 725.402344 393.496094 724.714844 393.355469 724.003906 C 393.214844 723.292969 393.144531 722.578125 393.144531 721.855469 L 393.144531 633.6875 C 393.144531 632.964844 393.214844 632.246094 393.355469 631.535156 C 393.496094 630.828125 393.707031 630.136719 393.984375 629.46875 C 394.261719 628.800781 394.601562 628.164062 395.003906 627.5625 C 395.40625 626.960938 395.863281 626.40625 396.375 625.894531 C 396.886719 625.382812 397.441406 624.925781 398.046875 624.523438 C 398.648438 624.121094 399.28125 623.78125 399.953125 623.503906 C 400.621094 623.226562 401.308594 623.019531 402.019531 622.878906 C 402.730469 622.738281 403.449219 622.667969 404.171875 622.667969 Z M 404.171875 622.667969 " fill-opacity="1" fill-rule="nonzero"/></g><path fill="#fd6c30" d="M 18.777344 406.769531 C 18.777344 406.769531 114.914062 201.046875 199.738281 150.179688 C 284.566406 99.3125 397.667969 92 397.667969 92 C 397.667969 92 493.804688 88.011719 603.515625 150.179688 C 713.222656 212.347656 791.265625 399.988281 791.265625 399.988281 C 791.265625 399.988281 752.808594 367.207031 747.15625 422.59375 C 747.15625 422.59375 637.445312 388.683594 541.308594 445.203125 C 541.308594 445.203125 378.441406 414.683594 275.519531 450.851562 C 275.519531 450.851562 190.691406 410.160156 70.800781 433.898438 C 70.800781 433.898438 61.753906 396.597656 18.777344 406.769531 Z M 18.777344 406.769531 " fill-opacity="1" fill-rule="nonzero"/><g clip-path="url(#aa573361c6)"><path fill="#e74b2f" d="M 419.015625 93.625 C 406.730469 99.296875 392.570312 99.296875 380.285156 93.625 C 380.285156 84.28125 387.863281 76.707031 397.210938 76.707031 L 402.085938 76.707031 C 411.4375 76.707031 419.015625 84.28125 419.015625 93.625 Z M 419.015625 93.625 " fill-opacity="1" fill-rule="nonzero"/></g><path fill="#e74b2f" d="M 552.242188 445.203125 C 552.242188 446.140625 552.148438 447.074219 551.964844 447.996094 C 551.78125 448.917969 551.511719 449.8125 551.152344 450.679688 C 550.792969 451.550781 550.351562 452.375 549.828125 453.15625 C 549.304688 453.9375 548.710938 454.660156 548.046875 455.324219 C 547.378906 455.992188 546.65625 456.585938 545.875 457.105469 C 545.09375 457.628906 544.265625 458.070312 543.398438 458.429688 C 542.527344 458.789062 541.632812 459.0625 540.710938 459.246094 C 539.789062 459.429688 538.855469 459.519531 537.914062 459.519531 C 536.972656 459.519531 536.042969 459.429688 535.121094 459.246094 C 534.199219 459.0625 533.300781 458.789062 532.433594 458.429688 C 531.5625 458.070312 530.738281 457.628906 529.957031 457.105469 C 529.171875 456.585938 528.449219 455.992188 527.785156 455.324219 C 527.121094 454.660156 526.527344 453.9375 526.003906 453.15625 C 525.480469 452.375 525.039062 451.550781 524.679688 450.679688 C 524.320312 449.8125 524.046875 448.917969 523.863281 447.996094 C 523.679688 447.074219 523.589844 446.140625 523.589844 445.203125 C 523.589844 444.261719 523.679688 443.332031 523.863281 442.410156 C 524.046875 441.484375 524.320312 440.589844 524.679688 439.722656 C 525.039062 438.855469 525.480469 438.027344 526.003906 437.246094 C 526.527344 436.464844 527.121094 435.742188 527.785156 435.078125 C 528.449219 434.414062 529.171875 433.820312 529.957031 433.296875 C 530.738281 432.773438 531.5625 432.332031 532.433594 431.972656 C 533.300781 431.613281 534.199219 431.34375 535.121094 431.160156 C 536.042969 430.976562 536.972656 430.882812 537.914062 430.882812 C 538.855469 430.882812 539.789062 430.976562 540.710938 431.160156 C 541.632812 431.34375 542.527344 431.613281 543.398438 431.972656 C 544.265625 432.332031 545.09375 432.773438 545.875 433.296875 C 546.65625 433.820312 547.378906 434.414062 548.046875 435.078125 C 548.710938 435.742188 549.304688 436.464844 549.828125 437.246094 C 550.351562 438.027344 550.792969 438.855469 551.152344 439.722656 C 551.511719 440.589844 551.78125 441.484375 551.964844 442.410156 C 552.148438 443.332031 552.242188 444.261719 552.242188 445.203125 Z M 552.242188 445.203125 " fill-opacity="1" fill-rule="nonzero"/><path fill="#e74b2f" d="M 290.21875 450.855469 C 290.21875 451.792969 290.125 452.726562 289.941406 453.648438 C 289.757812 454.570312 289.488281 455.464844 289.128906 456.332031 C 288.765625 457.203125 288.324219 458.027344 287.804688 458.808594 C 287.28125 459.589844 286.6875 460.3125 286.019531 460.976562 C 285.355469 461.644531 284.632812 462.238281 283.851562 462.757812 C 283.066406 463.28125 282.242188 463.722656 281.375 464.082031 C 280.503906 464.441406 279.609375 464.714844 278.6875 464.898438 C 277.761719 465.082031 276.832031 465.171875 275.890625 465.171875 C 274.949219 465.171875 274.019531 465.082031 273.097656 464.898438 C 272.171875 464.714844 271.277344 464.441406 270.410156 464.082031 C 269.539062 463.722656 268.714844 463.28125 267.929688 462.757812 C 267.148438 462.238281 266.425781 461.644531 265.761719 460.976562 C 265.09375 460.3125 264.5 459.589844 263.980469 458.808594 C 263.457031 458.027344 263.015625 457.203125 262.65625 456.332031 C 262.296875 455.464844 262.023438 454.570312 261.839844 453.648438 C 261.65625 452.726562 261.566406 451.792969 261.566406 450.855469 C 261.566406 449.914062 261.65625 448.984375 261.839844 448.0625 C 262.023438 447.136719 262.296875 446.242188 262.65625 445.375 C 263.015625 444.507812 263.457031 443.679688 263.980469 442.898438 C 264.5 442.117188 265.09375 441.394531 265.761719 440.730469 C 266.425781 440.066406 267.148438 439.472656 267.929688 438.949219 C 268.714844 438.425781 269.539062 437.984375 270.410156 437.625 C 271.277344 437.265625 272.171875 436.996094 273.097656 436.8125 C 274.019531 436.628906 274.949219 436.535156 275.890625 436.535156 C 276.832031 436.535156 277.761719 436.628906 278.6875 436.8125 C 279.609375 436.996094 280.503906 437.265625 281.375 437.625 C 282.242188 437.984375 283.066406 438.425781 283.851562 438.949219 C 284.632812 439.472656 285.355469 440.066406 286.019531 440.730469 C 286.6875 441.394531 287.28125 442.117188 287.804688 442.898438 C 288.324219 443.679688 288.765625 444.507812 289.128906 445.375 C 289.488281 446.242188 289.757812 447.136719 289.941406 448.0625 C 290.125 448.984375 290.21875 449.914062 290.21875 450.855469 Z M 290.21875 450.855469 " fill-opacity="1" fill-rule="nonzero"/><path fill="#e74b2f" d="M 85.507812 436.535156 C 85.507812 437.476562 85.414062 438.40625 85.230469 439.328125 C 85.046875 440.25 84.777344 441.148438 84.414062 442.015625 C 84.054688 442.882812 83.613281 443.707031 83.089844 444.492188 C 82.570312 445.273438 81.976562 445.996094 81.308594 446.660156 C 80.644531 447.324219 79.921875 447.917969 79.140625 448.441406 C 78.355469 448.964844 77.53125 449.40625 76.664062 449.765625 C 75.792969 450.125 74.898438 450.394531 73.972656 450.578125 C 73.050781 450.761719 72.121094 450.855469 71.179688 450.855469 C 70.238281 450.855469 69.308594 450.761719 68.382812 450.578125 C 67.460938 450.394531 66.566406 450.125 65.695312 449.765625 C 64.828125 449.40625 64.003906 448.964844 63.21875 448.441406 C 62.4375 447.917969 61.714844 447.324219 61.050781 446.660156 C 60.382812 445.996094 59.789062 445.273438 59.265625 444.492188 C 58.746094 443.707031 58.304688 442.882812 57.945312 442.015625 C 57.582031 441.148438 57.3125 440.25 57.128906 439.328125 C 56.945312 438.40625 56.851562 437.476562 56.851562 436.535156 C 56.851562 435.597656 56.945312 434.664062 57.128906 433.742188 C 57.3125 432.820312 57.582031 431.925781 57.945312 431.054688 C 58.304688 430.1875 58.746094 429.363281 59.265625 428.582031 C 59.789062 427.800781 60.382812 427.078125 61.050781 426.410156 C 61.714844 425.746094 62.4375 425.152344 63.21875 424.632812 C 64.003906 424.109375 64.828125 423.667969 65.695312 423.308594 C 66.566406 422.949219 67.460938 422.675781 68.382812 422.492188 C 69.308594 422.308594 70.238281 422.21875 71.179688 422.21875 C 72.121094 422.21875 73.050781 422.308594 73.972656 422.492188 C 74.898438 422.675781 75.792969 422.949219 76.664062 423.308594 C 77.53125 423.667969 78.355469 424.109375 79.140625 424.632812 C 79.921875 425.152344 80.644531 425.746094 81.308594 426.410156 C 81.976562 427.078125 82.570312 427.800781 83.089844 428.582031 C 83.613281 429.363281 84.054688 430.1875 84.414062 431.054688 C 84.777344 431.925781 85.046875 432.820312 85.230469 433.742188 C 85.414062 434.664062 85.507812 435.597656 85.507812 436.535156 Z M 85.507812 436.535156 " fill-opacity="1" fill-rule="nonzero"/><path fill="#e74b2f" d="M 761.859375 424.855469 C 761.859375 425.796875 761.765625 426.726562 761.582031 427.648438 C 761.398438 428.570312 761.128906 429.464844 760.765625 430.335938 C 760.40625 431.203125 759.964844 432.027344 759.445312 432.808594 C 758.921875 433.589844 758.328125 434.316406 757.660156 434.980469 C 756.996094 435.644531 756.273438 436.238281 755.492188 436.761719 C 754.707031 437.28125 753.882812 437.722656 753.015625 438.082031 C 752.144531 438.441406 751.25 438.714844 750.328125 438.898438 C 749.402344 439.082031 748.472656 439.171875 747.53125 439.171875 C 746.589844 439.171875 745.660156 439.082031 744.738281 438.898438 C 743.8125 438.714844 742.917969 438.441406 742.046875 438.082031 C 741.179688 437.722656 740.355469 437.28125 739.570312 436.761719 C 738.789062 436.238281 738.066406 435.644531 737.402344 434.980469 C 736.734375 434.316406 736.140625 433.589844 735.621094 432.808594 C 735.097656 432.027344 734.65625 431.203125 734.296875 430.335938 C 733.933594 429.464844 733.664062 428.570312 733.480469 427.648438 C 733.296875 426.726562 733.203125 425.796875 733.203125 424.855469 C 733.203125 423.914062 733.296875 422.984375 733.480469 422.0625 C 733.664062 421.140625 733.933594 420.246094 734.296875 419.375 C 734.65625 418.507812 735.097656 417.683594 735.621094 416.902344 C 736.140625 416.117188 736.734375 415.394531 737.402344 414.730469 C 738.066406 414.066406 738.789062 413.472656 739.570312 412.949219 C 740.355469 412.429688 741.179688 411.988281 742.046875 411.628906 C 742.917969 411.265625 743.8125 410.996094 744.738281 410.8125 C 745.660156 410.628906 746.589844 410.539062 747.53125 410.539062 C 748.472656 410.539062 749.402344 410.628906 750.328125 410.8125 C 751.25 410.996094 752.144531 411.265625 753.015625 411.628906 C 753.882812 411.988281 754.707031 412.429688 755.492188 412.949219 C 756.273438 413.472656 756.996094 414.066406 757.660156 414.730469 C 758.328125 415.394531 758.921875 416.117188 759.445312 416.902344 C 759.964844 417.683594 760.40625 418.507812 760.765625 419.375 C 761.128906 420.246094 761.398438 421.140625 761.582031 422.0625 C 761.765625 422.984375 761.859375 423.914062 761.859375 424.855469 Z M 761.859375 424.855469 " fill-opacity="1" fill-rule="nonzero"/><g clip-path="url(#95ad1cc16d)"><path fill="#e74b2f" d="M 803.644531 401.847656 C 803.644531 402.660156 803.566406 403.464844 803.40625 404.261719 C 803.25 405.058594 803.011719 405.832031 802.703125 406.582031 C 802.390625 407.332031 802.011719 408.046875 801.558594 408.722656 C 801.105469 409.398438 800.59375 410.023438 800.019531 410.597656 C 799.445312 411.171875 798.820312 411.683594 798.144531 412.132812 C 797.46875 412.585938 796.753906 412.96875 796.003906 413.277344 C 795.25 413.589844 794.476562 413.824219 793.679688 413.980469 C 792.882812 414.140625 792.078125 414.21875 791.265625 414.21875 C 790.453125 414.21875 789.648438 414.140625 788.851562 413.980469 C 788.054688 413.824219 787.277344 413.589844 786.527344 413.277344 C 785.777344 412.96875 785.0625 412.585938 784.386719 412.132812 C 783.710938 411.683594 783.085938 411.171875 782.511719 410.597656 C 781.9375 410.023438 781.421875 409.398438 780.972656 408.722656 C 780.519531 408.046875 780.140625 407.332031 779.828125 406.582031 C 779.515625 405.832031 779.28125 405.058594 779.125 404.261719 C 778.964844 403.464844 778.886719 402.660156 778.886719 401.847656 C 778.886719 401.035156 778.964844 400.230469 779.125 399.433594 C 779.28125 398.636719 779.515625 397.863281 779.828125 397.113281 C 780.140625 396.363281 780.519531 395.648438 780.972656 394.972656 C 781.421875 394.296875 781.9375 393.671875 782.511719 393.097656 C 783.085938 392.523438 783.710938 392.011719 784.386719 391.558594 C 785.0625 391.109375 785.777344 390.726562 786.527344 390.417969 C 787.277344 390.105469 788.054688 389.871094 788.851562 389.710938 C 789.648438 389.554688 790.453125 389.476562 791.265625 389.476562 C 792.078125 389.476562 792.882812 389.554688 793.679688 389.710938 C 794.476562 389.871094 795.25 390.105469 796.003906 390.417969 C 796.753906 390.726562 797.46875 391.109375 798.144531 391.558594 C 798.820312 392.011719 799.445312 392.523438 800.019531 393.097656 C 800.59375 393.671875 801.105469 394.296875 801.558594 394.972656 C 802.011719 395.648438 802.390625 396.363281 802.703125 397.113281 C 803.011719 397.863281 803.25 398.636719 803.40625 399.433594 C 803.566406 400.230469 803.644531 401.035156 803.644531 401.847656 Z M 803.644531 401.847656 " fill-opacity="1" fill-rule="nonzero"/></g><g clip-path="url(#98c3d01fc4)"><path fill="#e74b2f" d="M 31.15625 407.691406 C 31.15625 408.5 31.074219 409.304688 30.917969 410.101562 C 30.757812 410.898438 30.523438 411.671875 30.210938 412.425781 C 29.902344 413.175781 29.519531 413.886719 29.066406 414.5625 C 28.617188 415.238281 28.101562 415.863281 27.527344 416.4375 C 26.953125 417.011719 26.328125 417.523438 25.652344 417.976562 C 24.976562 418.429688 24.261719 418.808594 23.511719 419.121094 C 22.761719 419.429688 21.988281 419.664062 21.191406 419.824219 C 20.394531 419.984375 19.585938 420.0625 18.773438 420.0625 C 17.960938 420.0625 17.15625 419.984375 16.359375 419.824219 C 15.5625 419.664062 14.789062 419.429688 14.039062 419.121094 C 13.285156 418.808594 12.574219 418.429688 11.898438 417.976562 C 11.222656 417.523438 10.597656 417.011719 10.019531 416.4375 C 9.445312 415.863281 8.933594 415.238281 8.480469 414.5625 C 8.03125 413.886719 7.648438 413.175781 7.335938 412.425781 C 7.027344 411.671875 6.792969 410.898438 6.632812 410.101562 C 6.472656 409.304688 6.394531 408.5 6.394531 407.691406 C 6.394531 406.878906 6.472656 406.074219 6.632812 405.277344 C 6.792969 404.480469 7.027344 403.707031 7.335938 402.953125 C 7.648438 402.203125 8.03125 401.492188 8.480469 400.816406 C 8.933594 400.140625 9.445312 399.515625 10.019531 398.941406 C 10.597656 398.367188 11.222656 397.855469 11.898438 397.402344 C 12.574219 396.949219 13.285156 396.570312 14.039062 396.257812 C 14.789062 395.949219 15.5625 395.714844 16.359375 395.554688 C 17.15625 395.394531 17.960938 395.316406 18.773438 395.316406 C 19.585938 395.316406 20.394531 395.394531 21.191406 395.554688 C 21.988281 395.714844 22.761719 395.949219 23.511719 396.257812 C 24.261719 396.570312 24.976562 396.949219 25.652344 397.402344 C 26.328125 397.855469 26.953125 398.367188 27.527344 398.941406 C 28.101562 399.515625 28.617188 400.140625 29.066406 400.816406 C 29.519531 401.492188 29.902344 402.203125 30.210938 402.953125 C 30.523438 403.707031 30.757812 404.480469 30.917969 405.277344 C 31.074219 406.074219 31.15625 406.878906 31.15625 407.691406 Z M 31.15625 407.691406 " fill-opacity="1" fill-rule="nonzero"/></g><path fill="#ffaa99" d="M 419.914062 387.082031 C 426.472656 387.082031 431.789062 381.769531 431.789062 375.214844 C 431.789062 368.660156 426.472656 363.347656 419.914062 363.347656 C 413.355469 363.347656 408.039062 368.660156 408.039062 375.214844 C 408.039062 381.769531 413.355469 387.082031 419.914062 387.082031 Z M 419.914062 387.082031 " fill-opacity="1" fill-rule="nonzero"/><path fill="#ffaa99" d="M 715.488281 294.207031 C 715.488281 287.652344 710.171875 282.335938 703.613281 282.335938 C 697.054688 282.335938 691.738281 287.652344 691.738281 294.207031 C 691.738281 300.761719 697.054688 306.074219 703.613281 306.074219 C 710.171875 306.074219 715.488281 300.761719 715.488281 294.207031 Z M 715.488281 294.207031 " fill-opacity="1" fill-rule="nonzero"/><path fill="#ffaa99" d="M 408.039062 213.199219 C 408.039062 219.753906 413.355469 225.066406 419.914062 225.066406 C 426.472656 225.066406 431.789062 219.753906 431.789062 213.199219 C 431.789062 206.640625 426.472656 201.328125 419.914062 201.328125 C 413.355469 201.328125 408.039062 206.640625 408.039062 213.199219 Z M 408.039062 213.199219 " fill-opacity="1" fill-rule="nonzero"/><path fill="#ffaa99" d="M 541.5 444.355469 C 540.519531 444.355469 539.582031 444.507812 538.671875 444.730469 C 540.386719 445.027344 541.308594 445.203125 541.308594 445.203125 C 541.746094 444.945312 542.1875 444.722656 542.625 444.46875 C 542.25 444.433594 541.886719 444.355469 541.5 444.355469 Z M 541.5 444.355469 " fill-opacity="1" fill-rule="nonzero"/><path fill="#ffaa99" d="M 663.085938 363.347656 C 656.527344 363.347656 651.210938 368.660156 651.210938 375.214844 C 651.210938 381.769531 656.527344 387.082031 663.085938 387.082031 C 669.644531 387.082031 674.960938 381.769531 674.960938 375.214844 C 674.960938 368.660156 669.644531 363.347656 663.085938 363.347656 Z M 663.085938 363.347656 " fill-opacity="1" fill-rule="nonzero"/><path fill="#ffaa99" d="M 622.558594 306.074219 C 629.117188 306.074219 634.433594 300.761719 634.433594 294.207031 C 634.433594 287.652344 629.117188 282.335938 622.558594 282.335938 C 616 282.335938 610.679688 287.652344 610.679688 294.207031 C 610.679688 300.761719 615.996094 306.074219 622.558594 306.074219 Z M 622.558594 306.074219 " fill-opacity="1" fill-rule="nonzero"/><path fill="#ffaa99" d="M 663.085938 201.328125 C 656.527344 201.328125 651.210938 206.640625 651.210938 213.199219 C 651.210938 219.753906 656.527344 225.066406 663.085938 225.066406 C 669.644531 225.066406 674.960938 219.753906 674.960938 213.199219 C 674.960938 212.15625 674.785156 211.160156 674.53125 210.199219 C 672.078125 207.445312 669.59375 204.738281 667.082031 202.066406 C 665.828125 201.617188 664.496094 201.328125 663.085938 201.328125 Z M 663.085938 201.328125 " fill-opacity="1" fill-rule="nonzero"/><path fill="#ffaa99" d="M 460.441406 282.335938 C 453.882812 282.335938 448.566406 287.652344 448.566406 294.207031 C 448.566406 300.761719 453.882812 306.074219 460.441406 306.074219 C 467 306.074219 472.320312 300.761719 472.320312 294.207031 C 472.320312 287.652344 467 282.335938 460.441406 282.335938 Z M 460.441406 282.335938 " fill-opacity="1" fill-rule="nonzero"/><path fill="#ffaa99" d="M 582.027344 201.328125 C 575.46875 201.328125 570.152344 206.640625 570.152344 213.199219 C 570.152344 219.753906 575.46875 225.066406 582.027344 225.066406 C 588.585938 225.066406 593.902344 219.753906 593.902344 213.199219 C 593.902344 206.640625 588.585938 201.328125 582.027344 201.328125 Z M 582.027344 201.328125 " fill-opacity="1" fill-rule="nonzero"/><path fill="#ffaa99" d="M 529.625 132.1875 C 529.625 138.742188 534.941406 144.058594 541.5 144.058594 C 548.058594 144.058594 553.375 138.742188 553.375 132.1875 C 553.375 129.195312 552.230469 126.492188 550.398438 124.402344 C 547.023438 123.023438 543.683594 121.699219 540.371094 120.433594 C 534.351562 121.011719 529.625 126.019531 529.625 132.1875 Z M 529.625 132.1875 " fill-opacity="1" fill-rule="nonzero"/><path fill="#ffaa99" d="M 744.140625 363.347656 C 737.582031 363.347656 732.265625 368.660156 732.265625 375.214844 C 732.265625 381.769531 737.582031 387.082031 744.140625 387.082031 C 750.699219 387.082031 756.015625 381.769531 756.015625 375.214844 C 756.015625 368.660156 750.699219 363.347656 744.140625 363.347656 Z M 744.140625 363.347656 " fill-opacity="1" fill-rule="nonzero"/><path fill="#ffaa99" d="M 500.972656 363.347656 C 494.414062 363.347656 489.09375 368.660156 489.09375 375.214844 C 489.09375 381.769531 494.414062 387.082031 500.972656 387.082031 C 507.53125 387.082031 512.847656 381.769531 512.847656 375.214844 C 512.847656 368.660156 507.53125 363.347656 500.972656 363.347656 Z M 500.972656 363.347656 " fill-opacity="1" fill-rule="nonzero"/><path fill="#ffaa99" d="M 541.5 282.335938 C 534.941406 282.335938 529.625 287.652344 529.625 294.207031 C 529.625 300.761719 534.941406 306.074219 541.5 306.074219 C 548.058594 306.074219 553.375 300.761719 553.375 294.207031 C 553.375 287.652344 548.058594 282.335938 541.5 282.335938 Z M 541.5 282.335938 " fill-opacity="1" fill-rule="nonzero"/><path fill="#ffaa99" d="M 460.441406 120.320312 C 453.882812 120.320312 448.566406 125.632812 448.566406 132.1875 C 448.566406 138.742188 453.882812 144.058594 460.441406 144.058594 C 467 144.058594 472.320312 138.742188 472.320312 132.1875 C 472.320312 125.632812 467 120.320312 460.441406 120.320312 Z M 460.441406 120.320312 " fill-opacity="1" fill-rule="nonzero"/><path fill="#ffaa99" d="M 500.972656 201.328125 C 494.414062 201.328125 489.09375 206.640625 489.09375 213.199219 C 489.09375 219.753906 494.414062 225.066406 500.972656 225.066406 C 507.53125 225.066406 512.847656 219.753906 512.847656 213.199219 C 512.847656 206.640625 507.53125 201.328125 500.972656 201.328125 Z M 500.972656 201.328125 " fill-opacity="1" fill-rule="nonzero"/><path fill="#ffaa99" d="M 582.027344 363.347656 C 575.46875 363.347656 570.152344 368.660156 570.152344 375.214844 C 570.152344 381.769531 575.46875 387.082031 582.027344 387.082031 C 588.585938 387.082031 593.902344 381.769531 593.902344 375.214844 C 593.902344 368.660156 588.585938 363.347656 582.027344 363.347656 Z M 582.027344 363.347656 " fill-opacity="1" fill-rule="nonzero"/><path fill="#ffaa99" d="M 338.859375 201.328125 C 332.296875 201.328125 326.980469 206.640625 326.980469 213.199219 C 326.980469 219.753906 332.296875 225.066406 338.859375 225.066406 C 345.417969 225.066406 350.734375 219.753906 350.734375 213.199219 C 350.734375 206.640625 345.417969 201.328125 338.859375 201.328125 Z M 338.859375 201.328125 " fill-opacity="1" fill-rule="nonzero"/><path fill="#ffaa99" d="M 338.859375 363.347656 C 332.296875 363.347656 326.980469 368.660156 326.980469 375.214844 C 326.980469 381.769531 332.296875 387.082031 338.859375 387.082031 C 345.417969 387.082031 350.734375 381.769531 350.734375 375.214844 C 350.734375 368.660156 345.417969 363.347656 338.859375 363.347656 Z M 338.859375 363.347656 " fill-opacity="1" fill-rule="nonzero"/><path fill="#ffaa99" d="M 379.386719 120.320312 C 372.828125 120.320312 367.511719 125.632812 367.511719 132.1875 C 367.511719 138.742188 372.828125 144.058594 379.386719 144.058594 C 385.945312 144.058594 391.261719 138.742188 391.261719 132.1875 C 391.261719 125.632812 385.945312 120.320312 379.386719 120.320312 Z M 379.386719 120.320312 " fill-opacity="1" fill-rule="nonzero"/><path fill="#ffaa99" d="M 124.339844 294.207031 C 124.339844 300.761719 129.65625 306.074219 136.214844 306.074219 C 142.773438 306.074219 148.089844 300.761719 148.089844 294.207031 C 148.089844 287.652344 142.773438 282.335938 136.214844 282.335938 C 129.65625 282.335938 124.339844 287.652344 124.339844 294.207031 Z M 124.339844 294.207031 " fill-opacity="1" fill-rule="nonzero"/><path fill="#ffaa99" d="M 293.660156 445.3125 C 294.679688 445.042969 295.703125 444.773438 296.730469 444.515625 C 295.660156 444.660156 294.621094 444.902344 293.660156 445.3125 Z M 293.660156 445.3125 " fill-opacity="1" fill-rule="nonzero"/><path fill="#ffaa99" d="M 286.453125 132.1875 C 286.453125 138.742188 291.769531 144.058594 298.328125 144.058594 C 304.886719 144.058594 310.203125 138.742188 310.203125 132.1875 C 310.203125 125.632812 304.886719 120.320312 298.328125 120.320312 C 291.769531 120.320312 286.453125 125.632812 286.453125 132.1875 Z M 286.453125 132.1875 " fill-opacity="1" fill-rule="nonzero"/><path fill="#ffaa99" d="M 298.328125 306.074219 C 304.886719 306.074219 310.203125 300.761719 310.203125 294.207031 C 310.203125 287.652344 304.886719 282.335938 298.328125 282.335938 C 291.769531 282.335938 286.453125 287.652344 286.453125 294.207031 C 286.453125 300.761719 291.769531 306.074219 298.328125 306.074219 Z M 298.328125 306.074219 " fill-opacity="1" fill-rule="nonzero"/><path fill="#ffaa99" d="M 379.386719 282.335938 C 372.828125 282.335938 367.511719 287.652344 367.511719 294.207031 C 367.511719 300.761719 372.828125 306.074219 379.386719 306.074219 C 385.945312 306.074219 391.261719 300.761719 391.261719 294.207031 C 391.261719 287.652344 385.945312 282.335938 379.386719 282.335938 Z M 379.386719 282.335938 " fill-opacity="1" fill-rule="nonzero"/><path fill="#ffaa99" d="M 164.867188 213.199219 C 164.867188 219.753906 170.183594 225.066406 176.742188 225.066406 C 183.304688 225.066406 188.621094 219.753906 188.621094 213.199219 C 188.621094 206.640625 183.300781 201.328125 176.742188 201.328125 C 170.183594 201.328125 164.867188 206.640625 164.867188 213.199219 Z M 164.867188 213.199219 " fill-opacity="1" fill-rule="nonzero"/><path fill="#ffaa99" d="M 176.742188 387.082031 C 183.300781 387.082031 188.621094 381.769531 188.621094 375.214844 C 188.621094 368.660156 183.300781 363.347656 176.742188 363.347656 C 170.183594 363.347656 164.867188 368.660156 164.867188 375.214844 C 164.867188 381.769531 170.183594 387.082031 176.742188 387.082031 Z M 176.742188 387.082031 " fill-opacity="1" fill-rule="nonzero"/><path fill="#ffaa99" d="M 95.6875 387.082031 C 102.246094 387.082031 107.5625 381.769531 107.5625 375.214844 C 107.5625 368.660156 102.246094 363.347656 95.6875 363.347656 C 89.128906 363.347656 83.8125 368.660156 83.8125 375.214844 C 83.8125 381.769531 89.128906 387.082031 95.6875 387.082031 Z M 95.6875 387.082031 " fill-opacity="1" fill-rule="nonzero"/><path fill="#ffaa99" d="M 269.675781 375.214844 C 269.675781 368.660156 264.359375 363.347656 257.800781 363.347656 C 251.242188 363.347656 245.925781 368.660156 245.925781 375.214844 C 245.925781 381.769531 251.242188 387.082031 257.800781 387.082031 C 264.359375 387.082031 269.675781 381.769531 269.675781 375.214844 Z M 269.675781 375.214844 " fill-opacity="1" fill-rule="nonzero"/><path fill="#ffaa99" d="M 257.800781 201.328125 C 251.242188 201.328125 245.925781 206.640625 245.925781 213.199219 C 245.925781 219.753906 251.242188 225.066406 257.800781 225.066406 C 264.359375 225.066406 269.675781 219.753906 269.675781 213.199219 C 269.675781 206.640625 264.359375 201.328125 257.800781 201.328125 Z M 257.800781 201.328125 " fill-opacity="1" fill-rule="nonzero"/><path fill="#ffaa99" d="M 217.273438 306.074219 C 223.832031 306.074219 229.148438 300.761719 229.148438 294.207031 C 229.148438 287.652344 223.832031 282.335938 217.273438 282.335938 C 210.714844 282.335938 205.398438 287.652344 205.398438 294.207031 C 205.398438 300.761719 210.714844 306.074219 217.273438 306.074219 Z M 217.273438 306.074219 " fill-opacity="1" fill-rule="nonzero"/><path fill="#ffaa99" d="M 217.273438 144.058594 C 222.914062 144.058594 227.617188 140.113281 228.828125 134.839844 C 223.308594 137.414062 217.84375 140.136719 212.453125 143.019531 C 213.929688 143.675781 215.554688 144.058594 217.273438 144.058594 Z M 217.273438 144.058594 " fill-opacity="1" fill-rule="nonzero"/><path fill="#e74b2f" d="M 747.15625 422.59375 C 747.425781 419.949219 747.792969 417.566406 748.203125 415.308594 C 740.828125 397.476562 720.785156 350.570312 694.070312 300.675781 C 648.382812 215.351562 605.964844 162.382812 567.992188 143.242188 C 528.101562 123.136719 487.542969 107.808594 454.796875 96.980469 C 419.761719 91.105469 397.667969 92 397.667969 92 C 397.667969 92 392.140625 92.359375 382.636719 93.460938 C 345.515625 122.757812 315.996094 180.988281 294.570312 267.597656 C 272.570312 356.527344 267.710938 444.035156 267.667969 444.90625 C 267.601562 446.140625 268.101562 447.242188 268.90625 448.042969 C 270.007812 448.480469 270.992188 448.882812 271.824219 449.230469 C 273.910156 449.171875 275.644531 447.511719 275.761719 445.355469 C 275.929688 442.199219 292.476562 156.0625 399.117188 92.160156 C 510.921875 143.578125 535.695312 426.019531 537.191406 444.476562 C 539.875 444.933594 541.308594 445.203125 541.308594 445.203125 C 542.601562 444.441406 543.90625 443.761719 545.207031 443.03125 C 544.164062 430.363281 536.980469 350.726562 515.246094 269.820312 C 491.453125 181.246094 459.570312 122.675781 420.144531 94.796875 C 455.117188 105.019531 510.378906 123.402344 564.390625 150.628906 C 644.628906 191.070312 728.101562 387.734375 741.8125 421.136719 C 745.257812 422.011719 747.15625 422.59375 747.15625 422.59375 Z M 747.15625 422.59375 " fill-opacity="1" fill-rule="nonzero"/><path fill="#e74b2f" d="M 68.625 428.035156 C 70.210938 431.472656 70.800781 433.898438 70.800781 433.898438 C 72.34375 433.59375 73.851562 433.34375 75.382812 433.058594 C 84.5625 409.582031 171.339844 192.453125 254.320312 150.628906 C 301.007812 127.09375 347.546875 107.222656 381.273438 93.625 C 372.644531 94.652344 361.03125 96.265625 347.417969 98.722656 C 318.453125 110.988281 284.625 126.152344 250.71875 143.242188 C 212.726562 162.394531 170.238281 216.925781 124.425781 305.324219 C 95.546875 361.054688 74.417969 413.328125 68.625 428.035156 Z M 68.625 428.035156 " fill-opacity="1" fill-rule="nonzero"/></svg>