<svg xmlns="http://www.w3.org/2000/svg" xmlns:xlink="http://www.w3.org/1999/xlink" width="1080" zoomAndPan="magnify" viewBox="0 0 810 809.999993" height="1080" preserveAspectRatio="xMidYMid meet" version="1.0"><path fill="#335869" d="M 698.109375 599.375 C 696.003906 599.878906 694 600.277344 691.894531 600.78125 C 689.488281 601.382812 687.082031 601.882812 684.777344 602.386719 C 665.828125 606.597656 646.980469 610.410156 628.332031 613.820312 C 625.925781 614.21875 623.417969 614.722656 621.011719 615.121094 C 599.957031 618.933594 579.105469 622.242188 558.351562 625.050781 C 555.945312 625.351562 553.539062 625.753906 551.132812 626.054688 C 529.175781 628.863281 507.320312 631.171875 485.5625 632.976562 C 483.15625 633.175781 480.75 633.375 478.34375 633.578125 C 454.28125 635.382812 430.421875 636.386719 406.558594 636.785156 C 404.152344 636.785156 401.746094 636.886719 399.339844 636.886719 C 373.675781 637.085938 348.210938 636.386719 322.644531 634.882812 C 320.238281 634.78125 317.832031 634.582031 315.425781 634.378906 C 290.160156 632.675781 264.894531 630.066406 239.53125 626.65625 C 237.125 626.355469 234.71875 625.953125 232.3125 625.652344 C 206.542969 621.941406 180.777344 617.230469 154.910156 611.511719 C 152.503906 611.011719 150.199219 610.507812 147.792969 609.90625 C 133.054688 606.597656 118.417969 602.988281 103.679688 598.976562 C 109.695312 442.8125 149.898438 316.136719 321.441406 239.007812 C 328.457031 235.898438 335.578125 232.789062 342.996094 229.882812 C 363.449219 221.65625 385.605469 214.132812 409.667969 207.214844 C 415.183594 205.609375 420.695312 204.105469 426.410156 202.601562 C 428.015625 202.199219 429.71875 201.699219 431.324219 201.296875 C 434.730469 200.394531 438.140625 199.492188 441.550781 198.6875 C 442.753906 198.988281 443.957031 199.191406 445.160156 199.492188 C 446.261719 199.691406 447.363281 199.992188 448.566406 200.292969 C 451.175781 200.894531 453.679688 201.597656 456.289062 202.199219 C 459.496094 203 462.703125 203.902344 465.8125 204.808594 C 469.222656 205.710938 472.53125 206.8125 475.738281 207.816406 C 486.265625 211.226562 496.390625 214.9375 506.117188 219.148438 C 510.828125 221.15625 515.339844 223.160156 519.851562 225.367188 C 532.183594 231.285156 543.714844 237.804688 554.640625 244.824219 C 562.660156 250.039062 570.382812 255.558594 577.699219 261.273438 C 677.757812 340.308594 712.046875 472 698.109375 599.375 Z M 698.109375 599.375 " fill-opacity="1" fill-rule="nonzero"/><path fill="#284657" d="M 342.894531 229.882812 C 331.265625 239.507812 319.234375 250.542969 307.003906 263.179688 C 249.453125 322.855469 178.273438 430.777344 154.8125 611.511719 C 152.40625 611.011719 150.097656 610.507812 147.691406 609.90625 C 171.554688 427.265625 243.738281 318.144531 302.089844 257.765625 C 308.507812 251.042969 315.023438 244.824219 321.339844 239.007812 C 328.257812 235.898438 335.476562 232.789062 342.894531 229.882812 Z M 342.894531 229.882812 " fill-opacity="1" fill-rule="nonzero"/><path fill="#284657" d="M 691.894531 600.78125 C 689.488281 601.382812 687.082031 601.882812 684.777344 602.386719 C 677.355469 442.007812 624.421875 337 579.605469 275.71875 C 571.285156 264.28125 562.863281 253.953125 554.742188 244.726562 C 562.761719 249.941406 570.480469 255.457031 577.800781 261.175781 C 580.308594 264.382812 582.714844 267.59375 585.21875 271.003906 C 630.636719 333.085938 684.175781 439.203125 691.894531 600.78125 Z M 691.894531 600.78125 " fill-opacity="1" fill-rule="nonzero"/><path fill="#284657" d="M 426.308594 202.601562 C 418.289062 208.820312 373.273438 245.527344 329.761719 315.132812 C 290.058594 378.722656 244.242188 482.429688 239.429688 626.65625 C 237.023438 626.355469 234.617188 625.953125 232.210938 625.652344 C 237.222656 480.023438 283.644531 375.210938 323.847656 310.921875 C 357.03125 257.863281 391.21875 223.664062 409.566406 207.214844 C 414.980469 205.609375 420.597656 204.105469 426.308594 202.601562 Z M 426.308594 202.601562 " fill-opacity="1" fill-rule="nonzero"/><path fill="#284657" d="M 628.230469 613.917969 C 625.824219 614.320312 623.316406 614.820312 620.910156 615.222656 C 621.011719 464.976562 585.21875 359.664062 553.238281 295.574219 C 536.894531 262.777344 520.050781 237.402344 505.914062 219.148438 C 510.628906 221.15625 515.140625 223.160156 519.652344 225.367188 C 531.984375 242.617188 545.816406 264.683594 559.453125 291.964844 C 591.9375 356.554688 628.128906 462.769531 628.230469 613.917969 Z M 628.230469 613.917969 " fill-opacity="1" fill-rule="nonzero"/><path fill="#284657" d="M 445.058594 199.492188 C 436.835938 250.644531 410.46875 428.871094 406.359375 636.785156 C 403.953125 636.785156 401.546875 636.886719 399.140625 636.886719 C 402.949219 438.398438 427.113281 266.890625 436.535156 206.613281 C 431.625 215.941406 426.511719 225.066406 421.597656 233.992188 C 379.992188 308.816406 337.082031 386.042969 322.441406 634.980469 C 320.035156 634.882812 317.628906 634.679688 315.222656 634.480469 C 329.960938 383.9375 373.273438 306.007812 415.28125 230.484375 C 420.796875 220.652344 426.007812 211.125 431.222656 201.398438 C 434.632812 200.492188 438.039062 199.589844 441.449219 198.789062 C 442.652344 198.890625 443.855469 199.191406 445.058594 199.492188 Z M 445.058594 199.492188 " fill-opacity="1" fill-rule="nonzero"/><path fill="#284657" d="M 558.25 625.152344 C 555.84375 625.453125 553.4375 625.855469 551.03125 626.15625 C 548.324219 388.75 492.378906 255.15625 465.710938 204.90625 C 469.121094 205.808594 472.429688 206.914062 475.636719 207.917969 C 485.363281 227.074219 497.996094 255.65625 510.527344 294.574219 C 531.882812 360.96875 556.445312 470.191406 558.25 625.152344 Z M 558.25 625.152344 " fill-opacity="1" fill-rule="nonzero"/><path fill="#284657" d="M 485.460938 633.074219 C 483.058594 633.277344 480.652344 633.476562 478.246094 633.675781 C 477.742188 565.777344 474.035156 356.65625 448.46875 200.394531 C 451.074219 200.996094 453.582031 201.699219 456.1875 202.300781 C 481.351562 358.261719 484.960938 564.875 485.460938 633.074219 Z M 485.460938 633.074219 " fill-opacity="1" fill-rule="nonzero"/><path fill="#f19663" d="M 453.28125 63.589844 C 453.28125 63.589844 439.542969 9.128906 427.210938 16.851562 C 414.882812 24.574219 430.121094 75.222656 430.121094 75.222656 C 430.121094 75.222656 405.757812 23.769531 395.53125 31.394531 C 385.304688 39.015625 404.152344 79.9375 404.152344 79.9375 C 404.152344 79.9375 378.1875 45.035156 366.65625 51.953125 C 355.027344 58.773438 383 104.910156 383 104.910156 C 383 104.910156 362.546875 60.179688 343.597656 65.09375 C 324.648438 70.007812 369.863281 117.347656 369.863281 117.347656 C 369.863281 117.347656 327.957031 92.773438 320.238281 103.105469 C 312.515625 113.4375 362.347656 144.929688 362.347656 144.929688 C 362.347656 144.929688 318.03125 121.761719 312.71875 136.503906 C 307.402344 151.25 352.320312 156.363281 352.320312 156.363281 C 352.320312 156.363281 316.125 163.285156 318.132812 174.71875 C 321.539062 193.875 368.660156 175.820312 368.660156 175.820312 C 368.660156 175.820312 329.960938 185.046875 326.050781 203.402344 C 322.140625 221.65625 375.179688 203.804688 375.179688 203.804688 C 375.179688 203.804688 342.496094 223.964844 349.414062 241.515625 C 356.332031 259.066406 389.515625 222.558594 389.515625 222.558594 C 389.515625 222.558594 359.039062 257.261719 367.960938 265.886719 C 376.882812 274.511719 404.453125 234.796875 404.453125 234.796875 C 404.453125 234.796875 388.3125 272.308594 397.535156 285.847656 C 406.761719 299.386719 426.007812 247.535156 426.007812 247.535156 C 426.007812 247.535156 415.683594 293.769531 421.699219 297.382812 C 432.226562 303.699219 450.472656 249.941406 450.472656 249.941406 C 450.472656 249.941406 442.351562 293.371094 448.667969 301.894531 C 460.097656 317.339844 468.320312 252.246094 468.320312 252.246094 C 468.320312 252.246094 464.308594 296.175781 478.144531 301.191406 C 491.980469 306.207031 484.160156 249.339844 484.160156 249.339844 C 484.160156 249.339844 493.683594 314.128906 512.433594 298.484375 C 517.34375 294.371094 503.609375 251.546875 503.609375 251.546875 C 503.609375 251.546875 515.039062 293.871094 530.277344 286.25 C 541.40625 280.632812 523.660156 248.4375 523.660156 248.4375 C 523.660156 248.4375 544.515625 280.230469 555.140625 273.609375 C 565.066406 267.390625 541.507812 234.496094 541.507812 234.496094 C 541.507812 234.496094 568.277344 262.378906 576.597656 254.753906 C 587.625 244.625 552.234375 218.949219 552.234375 218.949219 C 552.234375 218.949219 588.828125 235.097656 595.445312 224.464844 C 602.0625 213.832031 557.949219 189.160156 557.949219 189.160156 C 557.949219 189.160156 596.347656 199.289062 598.753906 190.265625 C 603.867188 171.507812 560.457031 165.191406 560.457031 165.191406 C 560.457031 165.191406 616.300781 162.882812 613.59375 145.53125 C 610.886719 128.179688 562.5625 132.492188 562.5625 132.492188 C 562.5625 132.492188 617.402344 123.867188 606.875 110.425781 C 596.347656 97.085938 557.449219 109.222656 557.449219 109.222656 C 557.449219 109.222656 604.769531 71.710938 588.328125 61.984375 C 571.886719 52.253906 538.097656 87.859375 538.097656 87.859375 C 538.097656 87.859375 568.375 23.972656 549.628906 25.875 C 530.878906 27.78125 506.117188 69.003906 506.117188 69.003906 C 506.117188 69.003906 526.46875 16.851562 507.921875 8.425781 C 489.371094 0 479.449219 68 479.449219 68 C 479.449219 68 482.15625 16.550781 468.019531 9.027344 C 453.882812 1.503906 453.28125 63.589844 453.28125 63.589844 Z M 453.28125 63.589844 " fill-opacity="1" fill-rule="nonzero"/><path fill="#c78768" d="M 433.527344 119.054688 C 433.527344 119.679688 433.46875 120.296875 433.347656 120.910156 C 433.222656 121.523438 433.042969 122.121094 432.804688 122.699219 C 432.566406 123.277344 432.269531 123.828125 431.921875 124.347656 C 431.578125 124.867188 431.179688 125.347656 430.738281 125.789062 C 430.296875 126.234375 429.816406 126.628906 429.296875 126.976562 C 428.777344 127.324219 428.226562 127.617188 427.648438 127.855469 C 427.070312 128.09375 426.476562 128.277344 425.863281 128.398438 C 425.25 128.519531 424.628906 128.582031 424.003906 128.582031 C 423.378906 128.582031 422.757812 128.519531 422.144531 128.398438 C 421.53125 128.277344 420.9375 128.09375 420.359375 127.855469 C 419.78125 127.617188 419.234375 127.324219 418.714844 126.976562 C 418.191406 126.628906 417.710938 126.234375 417.269531 125.789062 C 416.828125 125.347656 416.433594 124.867188 416.085938 124.347656 C 415.738281 123.828125 415.445312 123.277344 415.203125 122.699219 C 414.964844 122.121094 414.785156 121.523438 414.664062 120.910156 C 414.539062 120.296875 414.480469 119.679688 414.480469 119.054688 C 414.480469 118.425781 414.539062 117.808594 414.664062 117.195312 C 414.785156 116.582031 414.964844 115.984375 415.203125 115.40625 C 415.445312 114.828125 415.738281 114.28125 416.085938 113.757812 C 416.433594 113.238281 416.828125 112.757812 417.269531 112.316406 C 417.710938 111.871094 418.191406 111.476562 418.714844 111.128906 C 419.234375 110.78125 419.78125 110.488281 420.359375 110.25 C 420.9375 110.011719 421.53125 109.828125 422.144531 109.707031 C 422.757812 109.585938 423.378906 109.523438 424.003906 109.523438 C 424.628906 109.523438 425.25 109.585938 425.863281 109.707031 C 426.476562 109.828125 427.070312 110.011719 427.648438 110.25 C 428.226562 110.488281 428.777344 110.78125 429.296875 111.128906 C 429.816406 111.476562 430.296875 111.871094 430.738281 112.316406 C 431.179688 112.757812 431.578125 113.238281 431.921875 113.757812 C 432.269531 114.28125 432.566406 114.828125 432.804688 115.40625 C 433.042969 115.984375 433.222656 116.582031 433.347656 117.195312 C 433.46875 117.808594 433.527344 118.425781 433.527344 119.054688 Z M 433.527344 119.054688 " fill-opacity="1" fill-rule="nonzero"/><path fill="#c78768" d="M 505.714844 95.984375 C 505.714844 96.609375 505.652344 97.230469 505.53125 97.84375 C 505.410156 98.457031 505.230469 99.050781 504.988281 99.628906 C 504.75 100.207031 504.457031 100.757812 504.109375 101.277344 C 503.761719 101.796875 503.367188 102.28125 502.925781 102.722656 C 502.484375 103.164062 502.003906 103.558594 501.480469 103.90625 C 500.960938 104.253906 500.414062 104.546875 499.835938 104.789062 C 499.257812 105.027344 498.660156 105.207031 498.046875 105.328125 C 497.433594 105.453125 496.816406 105.511719 496.191406 105.511719 C 495.566406 105.511719 494.945312 105.453125 494.332031 105.328125 C 493.71875 105.207031 493.125 105.027344 492.546875 104.789062 C 491.96875 104.546875 491.417969 104.253906 490.898438 103.90625 C 490.378906 103.558594 489.898438 103.164062 489.457031 102.722656 C 489.011719 102.28125 488.617188 101.796875 488.269531 101.277344 C 487.921875 100.757812 487.628906 100.207031 487.390625 99.628906 C 487.152344 99.050781 486.972656 98.457031 486.847656 97.84375 C 486.726562 97.230469 486.664062 96.609375 486.664062 95.984375 C 486.664062 95.359375 486.726562 94.738281 486.847656 94.125 C 486.972656 93.511719 487.152344 92.917969 487.390625 92.339844 C 487.628906 91.761719 487.921875 91.210938 488.269531 90.691406 C 488.617188 90.171875 489.011719 89.6875 489.457031 89.246094 C 489.898438 88.804688 490.378906 88.410156 490.898438 88.0625 C 491.417969 87.714844 491.96875 87.421875 492.546875 87.179688 C 493.125 86.941406 493.71875 86.761719 494.332031 86.640625 C 494.945312 86.515625 495.566406 86.457031 496.191406 86.457031 C 496.816406 86.457031 497.433594 86.515625 498.046875 86.640625 C 498.660156 86.761719 499.257812 86.941406 499.835938 87.179688 C 500.414062 87.421875 500.960938 87.714844 501.480469 88.0625 C 502.003906 88.410156 502.484375 88.804688 502.925781 89.246094 C 503.367188 89.6875 503.761719 90.171875 504.109375 90.691406 C 504.457031 91.210938 504.75 91.761719 504.988281 92.339844 C 505.230469 92.917969 505.410156 93.511719 505.53125 94.125 C 505.652344 94.738281 505.714844 95.359375 505.714844 95.984375 Z M 505.714844 95.984375 " fill-opacity="1" fill-rule="nonzero"/><path fill="#c78768" d="M 541.609375 180.335938 C 541.609375 180.960938 541.546875 181.578125 541.425781 182.191406 C 541.300781 182.808594 541.121094 183.402344 540.882812 183.980469 C 540.644531 184.558594 540.351562 185.109375 540.003906 185.628906 C 539.65625 186.148438 539.261719 186.628906 538.816406 187.070312 C 538.375 187.515625 537.894531 187.910156 537.375 188.257812 C 536.855469 188.605469 536.304688 188.898438 535.726562 189.136719 C 535.148438 189.375 534.554688 189.558594 533.941406 189.679688 C 533.328125 189.800781 532.707031 189.863281 532.082031 189.863281 C 531.457031 189.863281 530.839844 189.800781 530.226562 189.679688 C 529.613281 189.558594 529.015625 189.375 528.4375 189.136719 C 527.859375 188.898438 527.3125 188.605469 526.792969 188.257812 C 526.269531 187.910156 525.789062 187.515625 525.347656 187.070312 C 524.90625 186.628906 524.511719 186.148438 524.164062 185.628906 C 523.816406 185.109375 523.523438 184.558594 523.285156 183.980469 C 523.042969 183.402344 522.863281 182.808594 522.742188 182.191406 C 522.621094 181.578125 522.558594 180.960938 522.558594 180.335938 C 522.558594 179.707031 522.621094 179.089844 522.742188 178.476562 C 522.863281 177.863281 523.042969 177.265625 523.285156 176.6875 C 523.523438 176.109375 523.816406 175.5625 524.164062 175.039062 C 524.511719 174.519531 524.90625 174.039062 525.347656 173.597656 C 525.789062 173.15625 526.269531 172.757812 526.792969 172.410156 C 527.3125 172.0625 527.859375 171.769531 528.4375 171.53125 C 529.015625 171.292969 529.613281 171.109375 530.226562 170.988281 C 530.839844 170.867188 531.457031 170.804688 532.082031 170.804688 C 532.707031 170.804688 533.328125 170.867188 533.941406 170.988281 C 534.554688 171.109375 535.148438 171.292969 535.726562 171.53125 C 536.304688 171.769531 536.855469 172.0625 537.375 172.410156 C 537.894531 172.757812 538.375 173.15625 538.816406 173.597656 C 539.261719 174.039062 539.65625 174.519531 540.003906 175.039062 C 540.351562 175.5625 540.644531 176.109375 540.882812 176.6875 C 541.121094 177.265625 541.300781 177.863281 541.425781 178.476562 C 541.546875 179.089844 541.609375 179.707031 541.609375 180.335938 Z M 541.609375 180.335938 " fill-opacity="1" fill-rule="nonzero"/><path fill="#c78768" d="M 463.003906 217.84375 C 463.003906 218.472656 462.945312 219.089844 462.820312 219.703125 C 462.699219 220.316406 462.519531 220.914062 462.28125 221.492188 C 462.039062 222.070312 461.746094 222.617188 461.398438 223.140625 C 461.050781 223.660156 460.65625 224.140625 460.214844 224.582031 C 459.773438 225.023438 459.292969 225.421875 458.773438 225.769531 C 458.253906 226.117188 457.703125 226.410156 457.125 226.648438 C 456.546875 226.886719 455.953125 227.070312 455.339844 227.191406 C 454.726562 227.3125 454.105469 227.375 453.480469 227.375 C 452.855469 227.375 452.234375 227.3125 451.621094 227.191406 C 451.007812 227.070312 450.414062 226.886719 449.835938 226.648438 C 449.257812 226.410156 448.707031 226.117188 448.1875 225.769531 C 447.667969 225.421875 447.1875 225.023438 446.746094 224.582031 C 446.304688 224.140625 445.910156 223.660156 445.5625 223.140625 C 445.214844 222.617188 444.921875 222.070312 444.679688 221.492188 C 444.441406 220.914062 444.261719 220.316406 444.140625 219.703125 C 444.015625 219.089844 443.957031 218.472656 443.957031 217.84375 C 443.957031 217.21875 444.015625 216.601562 444.140625 215.988281 C 444.261719 215.371094 444.441406 214.777344 444.679688 214.199219 C 444.921875 213.621094 445.214844 213.070312 445.5625 212.550781 C 445.910156 212.03125 446.304688 211.550781 446.746094 211.109375 C 447.1875 210.664062 447.667969 210.269531 448.1875 209.921875 C 448.707031 209.574219 449.257812 209.28125 449.835938 209.042969 C 450.414062 208.804688 451.007812 208.621094 451.621094 208.5 C 452.234375 208.378906 452.855469 208.316406 453.480469 208.316406 C 454.105469 208.316406 454.726562 208.378906 455.339844 208.5 C 455.953125 208.621094 456.546875 208.804688 457.125 209.042969 C 457.703125 209.28125 458.253906 209.574219 458.773438 209.921875 C 459.292969 210.269531 459.773438 210.664062 460.214844 211.109375 C 460.65625 211.550781 461.050781 212.03125 461.398438 212.550781 C 461.746094 213.070312 462.039062 213.621094 462.28125 214.199219 C 462.519531 214.777344 462.699219 215.371094 462.820312 215.988281 C 462.945312 216.601562 463.003906 217.21875 463.003906 217.84375 Z M 463.003906 217.84375 " fill-opacity="1" fill-rule="nonzero"/><path fill="#c78768" d="M 392.824219 183.144531 C 392.824219 183.769531 392.761719 184.386719 392.640625 185 C 392.519531 185.613281 392.339844 186.210938 392.097656 186.789062 C 391.859375 187.367188 391.566406 187.917969 391.21875 188.4375 C 390.871094 188.957031 390.476562 189.4375 390.035156 189.878906 C 389.59375 190.324219 389.109375 190.71875 388.589844 191.066406 C 388.070312 191.414062 387.523438 191.707031 386.945312 191.945312 C 386.367188 192.183594 385.769531 192.367188 385.15625 192.488281 C 384.542969 192.609375 383.925781 192.671875 383.300781 192.671875 C 382.675781 192.671875 382.054688 192.609375 381.441406 192.488281 C 380.828125 192.367188 380.234375 192.183594 379.65625 191.945312 C 379.078125 191.707031 378.527344 191.414062 378.007812 191.066406 C 377.488281 190.71875 377.007812 190.324219 376.566406 189.878906 C 376.121094 189.4375 375.726562 188.957031 375.378906 188.4375 C 375.03125 187.917969 374.738281 187.367188 374.5 186.789062 C 374.261719 186.210938 374.082031 185.613281 373.957031 185 C 373.835938 184.386719 373.773438 183.769531 373.773438 183.144531 C 373.773438 182.515625 373.835938 181.898438 373.957031 181.285156 C 374.082031 180.671875 374.261719 180.074219 374.5 179.496094 C 374.738281 178.917969 375.03125 178.371094 375.378906 177.847656 C 375.726562 177.328125 376.121094 176.847656 376.566406 176.40625 C 377.007812 175.960938 377.488281 175.566406 378.007812 175.21875 C 378.527344 174.871094 379.078125 174.578125 379.65625 174.339844 C 380.234375 174.101562 380.828125 173.917969 381.441406 173.796875 C 382.054688 173.675781 382.675781 173.613281 383.300781 173.613281 C 383.925781 173.613281 384.542969 173.675781 385.15625 173.796875 C 385.769531 173.917969 386.367188 174.101562 386.945312 174.339844 C 387.523438 174.578125 388.070312 174.871094 388.589844 175.21875 C 389.109375 175.566406 389.59375 175.960938 390.035156 176.40625 C 390.476562 176.847656 390.871094 177.328125 391.21875 177.847656 C 391.566406 178.371094 391.859375 178.917969 392.097656 179.496094 C 392.339844 180.074219 392.519531 180.671875 392.640625 181.285156 C 392.761719 181.898438 392.824219 182.515625 392.824219 183.144531 Z M 392.824219 183.144531 " fill-opacity="1" fill-rule="nonzero"/><path fill="#c78768" d="M 477.945312 164.1875 C 477.945312 164.8125 477.882812 165.433594 477.761719 166.046875 C 477.636719 166.660156 477.457031 167.253906 477.21875 167.832031 C 476.980469 168.410156 476.6875 168.960938 476.339844 169.480469 C 475.992188 170 475.597656 170.480469 475.152344 170.925781 C 474.710938 171.367188 474.230469 171.761719 473.710938 172.109375 C 473.191406 172.457031 472.640625 172.75 472.0625 172.988281 C 471.484375 173.230469 470.890625 173.410156 470.277344 173.53125 C 469.664062 173.652344 469.042969 173.714844 468.417969 173.714844 C 467.792969 173.714844 467.175781 173.652344 466.5625 173.53125 C 465.949219 173.410156 465.351562 173.230469 464.773438 172.988281 C 464.195312 172.75 463.648438 172.457031 463.128906 172.109375 C 462.605469 171.761719 462.125 171.367188 461.683594 170.925781 C 461.242188 170.480469 460.847656 170 460.5 169.480469 C 460.152344 168.960938 459.859375 168.410156 459.621094 167.832031 C 459.378906 167.253906 459.199219 166.660156 459.078125 166.046875 C 458.957031 165.433594 458.894531 164.8125 458.894531 164.1875 C 458.894531 163.5625 458.957031 162.941406 459.078125 162.328125 C 459.199219 161.714844 459.378906 161.117188 459.621094 160.539062 C 459.859375 159.960938 460.152344 159.414062 460.5 158.894531 C 460.847656 158.371094 461.242188 157.890625 461.683594 157.449219 C 462.125 157.007812 462.605469 156.613281 463.128906 156.265625 C 463.648438 155.917969 464.195312 155.621094 464.773438 155.382812 C 465.351562 155.144531 465.949219 154.964844 466.5625 154.839844 C 467.175781 154.71875 467.792969 154.660156 468.417969 154.660156 C 469.042969 154.660156 469.664062 154.71875 470.277344 154.839844 C 470.890625 154.964844 471.484375 155.144531 472.0625 155.382812 C 472.640625 155.621094 473.191406 155.917969 473.710938 156.265625 C 474.230469 156.613281 474.710938 157.007812 475.152344 157.449219 C 475.597656 157.890625 475.992188 158.371094 476.339844 158.894531 C 476.6875 159.414062 476.980469 159.960938 477.21875 160.539062 C 477.457031 161.117188 477.636719 161.714844 477.761719 162.328125 C 477.882812 162.941406 477.945312 163.5625 477.945312 164.1875 Z M 477.945312 164.1875 " fill-opacity="1" fill-rule="nonzero"/><path fill="#f19663" d="M 742.425781 754.835938 C 737.410156 765.066406 725.78125 789.238281 695.804688 794.152344 C 687.984375 795.457031 680.164062 796.660156 672.34375 797.765625 C 666.230469 798.667969 660.113281 799.46875 653.996094 800.269531 C 634.949219 802.679688 615.898438 804.683594 596.949219 806.089844 C 591.035156 806.589844 585.121094 806.992188 579.304688 807.292969 C 557.148438 808.695312 534.890625 809.5 512.832031 809.800781 C 507.019531 809.898438 501.203125 809.898438 495.289062 809.898438 C 473.632812 809.898438 452.175781 809.296875 430.722656 808.394531 C 425.105469 808.09375 419.394531 807.792969 413.777344 807.492188 C 388.113281 806.089844 362.546875 803.980469 337.28125 801.273438 C 331.566406 800.671875 325.851562 800.070312 320.238281 799.46875 C 293.667969 796.460938 267.300781 792.847656 241.234375 788.835938 C 235.320312 787.933594 229.503906 787.03125 223.589844 786.027344 C 195.816406 781.515625 168.347656 776.5 141.277344 771.085938 C 135.359375 769.882812 129.34375 768.675781 123.429688 767.472656 C 113.203125 765.367188 102.976562 763.160156 92.851562 760.953125 C 70.695312 756.140625 54.050781 739.691406 51.246094 719.433594 C 46.230469 682.019531 42.621094 604.089844 49.839844 573.902344 C 56.457031 546.417969 80.21875 544.3125 88.941406 546.417969 C 106.085938 550.632812 122.929688 554.742188 139.570312 558.554688 C 145.1875 559.859375 150.699219 561.0625 156.214844 562.367188 C 184.488281 568.683594 212.460938 574.203125 240.734375 578.914062 C 246.347656 579.816406 251.960938 580.71875 257.675781 581.625 C 281.636719 585.335938 306 588.34375 331.164062 590.550781 C 336.78125 591.050781 342.394531 591.554688 348.109375 591.953125 C 370.464844 593.660156 393.425781 594.761719 417.289062 595.164062 C 422.902344 595.265625 428.515625 595.363281 434.230469 595.363281 C 457.492188 595.464844 481.554688 594.960938 506.917969 593.757812 C 512.53125 593.457031 518.246094 593.15625 523.960938 592.855469 C 543.3125 591.652344 563.261719 590.148438 584.117188 588.242188 C 589.730469 587.742188 595.347656 587.140625 601.0625 586.539062 C 619.40625 584.632812 638.355469 582.425781 658.007812 579.917969 C 663.621094 579.214844 669.234375 578.414062 674.949219 577.710938 C 690.691406 575.605469 706.832031 573.199219 723.476562 570.691406 C 753.152344 566.078125 750.144531 593.15625 753.152344 602.785156 C 767.089844 648.121094 762.375 714.316406 742.425781 754.835938 Z M 742.425781 754.835938 " fill-opacity="1" fill-rule="nonzero"/><path fill="#c78768" d="M 141.175781 771.183594 C 135.261719 769.980469 129.246094 768.777344 123.328125 767.574219 C 108.390625 674.296875 129.546875 590.949219 139.570312 558.753906 C 145.1875 560.058594 150.699219 561.261719 156.214844 562.566406 C 146.890625 592.757812 124.832031 678.308594 141.175781 771.183594 Z M 141.175781 771.183594 " fill-opacity="1" fill-rule="nonzero"/><path fill="#c78768" d="M 241.132812 788.9375 C 235.21875 788.035156 229.402344 787.132812 223.488281 786.128906 C 210.554688 699.972656 230.707031 614.320312 240.832031 579.015625 C 246.445312 579.917969 252.0625 580.820312 257.777344 581.722656 C 248.152344 614.921875 226.898438 703.382812 241.132812 788.9375 Z M 241.132812 788.9375 " fill-opacity="1" fill-rule="nonzero"/><path fill="#c78768" d="M 337.179688 801.375 C 331.464844 800.773438 325.75 800.171875 320.136719 799.570312 C 314.824219 705.089844 326.453125 620.136719 331.265625 590.648438 C 336.878906 591.152344 342.496094 591.652344 348.210938 592.054688 C 343.597656 619.734375 331.464844 705.890625 337.179688 801.375 Z M 337.179688 801.375 " fill-opacity="1" fill-rule="nonzero"/><path fill="#c78768" d="M 512.734375 809.898438 C 506.917969 810 501.101562 810 495.1875 810 C 518.949219 715.921875 510.828125 624.652344 506.917969 593.757812 C 512.53125 593.457031 518.246094 593.15625 523.960938 592.855469 C 528.171875 625.554688 535.894531 714.917969 512.734375 809.898438 Z M 512.734375 809.898438 " fill-opacity="1" fill-rule="nonzero"/><path fill="#c78768" d="M 672.34375 797.863281 C 666.230469 798.765625 660.113281 799.570312 653.996094 800.371094 C 653.996094 800.070312 654.097656 799.769531 654.199219 799.46875 C 680.363281 715.921875 665.726562 618.832031 657.90625 579.917969 C 663.523438 579.214844 669.136719 578.414062 674.851562 577.710938 C 682.972656 617.628906 697.007812 712.109375 672.34375 797.863281 Z M 672.34375 797.863281 " fill-opacity="1" fill-rule="nonzero"/><path fill="#c78768" d="M 596.949219 806.1875 C 591.035156 806.691406 585.121094 807.089844 579.304688 807.390625 C 599.957031 719.433594 587.625 613.417969 584.21875 588.144531 C 589.832031 587.640625 595.445312 587.039062 601.160156 586.4375 C 604.769531 613.519531 616.699219 716.421875 596.949219 806.1875 Z M 596.949219 806.1875 " fill-opacity="1" fill-rule="nonzero"/><path fill="#c78768" d="M 430.621094 808.496094 C 425.007812 808.195312 419.292969 807.894531 413.679688 807.59375 C 419.492188 739.992188 418.089844 635.882812 417.289062 595.265625 C 422.902344 595.363281 428.515625 595.464844 434.230469 595.464844 C 435.132812 636.484375 436.535156 739.691406 430.621094 808.496094 Z M 430.621094 808.496094 " fill-opacity="1" fill-rule="nonzero"/></svg>