<svg xmlns="http://www.w3.org/2000/svg" xmlns:xlink="http://www.w3.org/1999/xlink" width="1080" zoomAndPan="magnify" viewBox="0 0 810 809.999993" height="1080" preserveAspectRatio="xMidYMid meet" version="1.0"><path fill="#df8787" d="M 441.472656 330.863281 L 424.03125 462.898438 C 424.03125 462.898438 351.832031 485.335938 279.628906 480.351562 C 207.429688 475.363281 179.960938 467.886719 90.394531 383.179688 C 0.832031 298.472656 26.394531 181.097656 26.394531 181.097656 C 111.800781 233.121094 441.472656 330.863281 441.472656 330.863281 Z M 441.472656 330.863281 " fill-opacity="1" fill-rule="nonzero"/><path fill="#f2aba0" d="M 407.15625 432.863281 C 407.382812 433.039062 407.480469 433.265625 407.453125 433.550781 C 407.222656 434.332031 406.730469 434.882812 405.980469 435.199219 C 405.410156 435.53125 404.820312 435.832031 404.214844 436.101562 L 403.175781 436.515625 L 401.625 437.046875 L 398.546875 438.105469 C 396.328125 438.988281 393.992188 439.617188 391.738281 440.363281 L 385.007812 442.542969 L 378.21875 444.503906 C 373.570312 445.9375 368.820312 446.9375 364.113281 448.136719 C 361.757812 448.765625 359.363281 449.136719 356.988281 449.628906 C 354.617188 450.121094 352.242188 450.589844 349.847656 451.003906 L 342 452.140625 L 338.078125 452.671875 L 334.152344 453.042969 L 326.304688 453.789062 L 318.457031 454.144531 C 315.199219 454.359375 311.921875 454.359375 308.648438 454.359375 C 305.371094 454.359375 302.113281 454.359375 298.835938 454.222656 C 294.558594 454.046875 290.28125 453.949219 286.023438 453.476562 L 278.511719 452.789062 L 271.054688 451.691406 L 267.132812 451.121094 L 263.207031 450.375 L 255.359375 448.921875 L 247.511719 447.214844 L 243.585938 446.371094 L 239.664062 445.328125 L 231.816406 443.210938 L 224.144531 440.714844 L 220.417969 439.480469 L 216.746094 438.066406 L 209.449219 435.21875 L 202.503906 432 L 198.933594 430.390625 L 195.441406 428.605469 L 188.417969 425.011719 L 181.570312 421.085938 L 178.15625 419.121094 L 174.820312 417.023438 L 168.1875 412.839844 L 161.617188 408.265625 L 158.378906 405.96875 L 155.199219 403.515625 L 148.570312 398.429688 L 142.25 393.070312 C 140.289062 391.5 138.445312 389.832031 136.582031 388.164062 L 130.910156 383.199219 L 125.242188 377.742188 L 122.492188 375.070312 L 119.785156 372.203125 L 114.371094 366.53125 L 109.171875 360.640625 L 106.5625 357.714844 L 104.070312 354.695312 L 99.046875 348.6875 L 94.085938 342.265625 C 93.261719 341.1875 92.417969 340.128906 91.613281 339.027344 L 89.296875 335.710938 C 87.785156 333.53125 86.253906 331.371094 84.785156 329.171875 L 80.527344 322.460938 C 74.933594 313.621094 69.929688 304.460938 65.515625 294.976562 C 64.359375 292.621094 63.339844 290.109375 62.242188 287.675781 C 61.140625 285.238281 60.277344 282.804688 59.355469 280.351562 L 57.964844 276.757812 L 56.6875 273.109375 L 55.433594 269.457031 L 54.394531 265.746094 L 53.351562 262.210938 L 52.429688 258.621094 C 51.824219 256.246094 51.214844 253.851562 50.820312 251.394531 C 50.429688 248.941406 49.839844 246.3125 49.585938 243.71875 C 49.332031 241.128906 48.9375 238.558594 48.878906 235.867188 C 48.820312 233.179688 48.605469 230.585938 48.761719 228.015625 C 48.769531 225.332031 48.925781 222.652344 49.234375 219.988281 L 49.742188 215.863281 C 49.9375 214.488281 50.273438 213.136719 50.546875 211.78125 L 51.371094 207.660156 C 51.664062 206.539062 51.921875 205.421875 52.175781 204.300781 L 52.46875 202.847656 C 52.609375 202.023438 52.746094 201.21875 52.84375 200.375 L 52.84375 200.238281 C 52.875 200.039062 52.980469 199.898438 53.15625 199.804688 C 53.273438 199.804688 53.390625 199.804688 53.371094 200.121094 C 53.34375 201.027344 53.265625 201.929688 53.136719 202.828125 C 53.136719 203.359375 53.019531 203.871094 52.921875 204.398438 C 52.824219 204.929688 52.785156 205.421875 52.667969 205.929688 L 52.351562 207.460938 L 51.824219 210.503906 L 51.175781 214.097656 C 50.722656 216.058594 50.625 218.023438 50.351562 220.105469 L 50.039062 223.109375 L 49.917969 226.132812 C 49.917969 228.25 49.722656 230.351562 49.917969 232.472656 L 50.214844 238.773438 C 50.605469 242.945312 51.207031 247.089844 52.019531 251.199219 L 52.019531 250.964844 C 52.546875 254.183594 53.453125 257.304688 54.253906 260.445312 C 55.609375 265.355469 57.140625 270.261719 58.90625 274.972656 C 60.671875 279.683594 62.496094 284.316406 64.535156 288.890625 C 66.753906 293.917969 69.1875 298.84375 71.796875 303.691406 C 74.40625 308.542969 76.9375 312.820312 79.644531 317.277344 C 80.976562 319.515625 82.488281 321.65625 83.882812 323.875 C 85.273438 326.089844 86.628906 328.289062 88.179688 330.410156 L 92.75 336.90625 C 94.261719 339.066406 95.96875 341.109375 97.578125 343.210938 C 100.617188 347.253906 103.972656 351.0625 107.210938 354.988281 C 108.859375 356.953125 110.722656 358.914062 112.449219 360.878906 C 114.175781 362.839844 115.921875 364.804688 117.785156 366.589844 C 121.414062 370.28125 125.042969 373.953125 128.910156 377.386719 C 132.773438 380.824219 136.402344 384.042969 140.191406 387.339844 L 141.09375 388.125 C 144.742188 391.148438 148.351562 394.230469 152.0625 397.175781 C 156.316406 400.375 160.515625 403.652344 164.96875 406.578125 C 173.71875 412.609375 182.804688 418.085938 192.222656 423.007812 L 199.128906 426.523438 C 201.425781 427.71875 203.816406 428.683594 206.171875 429.78125 C 210.84375 432 215.707031 433.707031 220.535156 435.671875 C 230.363281 439.164062 240.382812 441.984375 250.589844 444.132812 C 255.476562 445.308594 260.402344 446.09375 265.347656 447.058594 C 267.894531 447.605469 270.503906 447.882812 273.195312 448.292969 C 275.882812 448.707031 278.355469 449.136719 281.042969 449.335938 L 289.949219 450.140625 C 292.910156 450.375 295.835938 450.414062 298.875 450.550781 C 303.527344 450.824219 308.175781 450.550781 312.84375 450.667969 C 323.40625 450.484375 333.917969 449.640625 344.375 448.136719 C 350.261719 447.429688 356.148438 446.171875 362.03125 444.976562 C 366.347656 443.875 370.722656 443.011719 375 441.71875 C 379.945312 440.285156 384.949219 438.949219 389.8125 437.242188 C 392.265625 436.417969 394.757812 435.75 397.171875 434.828125 L 398.878906 434.238281 L 401.253906 433.472656 C 401.761719 433.316406 402.292969 433.136719 402.78125 433.019531 L 403.84375 432.785156 C 404.445312 432.667969 405.054688 432.597656 405.667969 432.570312 C 406.199219 432.496094 406.695312 432.597656 407.15625 432.863281 Z M 407.15625 432.863281 " fill-opacity="1" fill-rule="nonzero"/><path fill="#f2aba0" d="M 806.402344 602.179688 C 809.148438 638.753906 752.449219 652.808594 716.386719 659.382812 C 680.324219 665.960938 643.183594 661.445312 607.125 654.808594 C 578.441406 649.53125 549.617188 642.777344 523.777344 629.191406 C 429.601562 579.703125 401.820312 458.207031 327.855469 381.84375 C 320.675781 374.453125 313.089844 367.507812 305.089844 361.015625 C 297.09375 354.523438 288.742188 348.523438 280.035156 343.019531 C 271.328125 337.511719 262.324219 332.539062 253.03125 328.101562 C 243.734375 323.660156 234.210938 319.785156 224.457031 316.472656 C 186.789062 303.730469 145.742188 299.453125 111.527344 279.171875 C 73.894531 256.894531 49.429688 218.316406 26.394531 181.117188 C 26.394531 181.117188 257.203125 261.132812 292.066406 281.058594 C 292.066406 281.058594 355.421875 81.058594 541.0625 173.933594 C 700.417969 253.652344 585.875 445.488281 585.875 445.488281 C 585.875 445.488281 802.8125 554.613281 806.402344 602.179688 Z M 806.402344 602.179688 " fill-opacity="1" fill-rule="nonzero"/><path fill="#303b4a" d="M 588.425781 440.933594 C 536.433594 418.886719 499.824219 361.542969 444.984375 341.894531 C 421.285156 333.414062 395.621094 332.53125 371.332031 325.992188 C 363.847656 323.976562 356.542969 321.449219 349.414062 318.410156 C 342.28125 315.371094 335.398438 311.847656 328.761719 307.84375 C 322.125 303.839844 315.800781 299.394531 309.785156 294.503906 C 303.769531 289.613281 298.128906 284.324219 292.851562 278.644531 C 294.089844 275.167969 296.777344 267.964844 301.171875 258.699219 C 307.210938 257.945312 313.257812 257.832031 319.320312 258.363281 C 325.382812 258.890625 331.320312 260.050781 337.136719 261.839844 C 356.753906 267.492188 374.84375 277.542969 394.523438 282.824219 C 423.953125 290.796875 455.519531 287.8125 485.324219 294.601562 C 512.300781 300.667969 536.824219 314.429688 560.917969 327.976562 L 619.113281 360.757812 C 612.296875 388.792969 602.070312 415.515625 588.425781 440.933594 Z M 588.425781 440.933594 " fill-opacity="1" fill-rule="evenodd"/><path fill="#303b4a" d="M 571.90625 472.773438 C 570.730469 475.355469 568.984375 477.472656 566.667969 479.113281 C 564.222656 480.789062 561.523438 481.71875 558.566406 481.902344 C 557.148438 481.984375 555.742188 481.925781 554.335938 481.722656 C 552.933594 481.523438 551.566406 481.1875 550.230469 480.714844 C 548.894531 480.238281 547.617188 479.640625 546.402344 478.910156 C 545.1875 478.183594 544.054688 477.339844 543.007812 476.386719 C 541.035156 474.46875 539.339844 472.332031 537.914062 469.984375 C 536.488281 467.632812 535.378906 465.140625 534.589844 462.507812 C 533.054688 457.5625 531.996094 452.515625 531.410156 447.371094 C 531.019531 444.328125 530.761719 441.265625 530.625 438.164062 C 528.429688 444.445312 525.820312 452.121094 523.425781 459.855469 C 517.8125 477.386719 513.339844 495.191406 511.652344 494.859375 C 509.964844 494.523438 511.476562 476.167969 515.007812 457.753906 C 515.675781 454.164062 516.402344 450.589844 517.167969 447.15625 C 515.203125 449.648438 513.027344 452.199219 510.90625 454.734375 C 498.585938 469.496094 485.714844 483.414062 484.382812 482.351562 C 483.046875 481.292969 493.484375 465.550781 504 449.570312 L 515.949219 431.351562 C 514.339844 432.195312 512.714844 432.980469 511.085938 433.726562 C 502.765625 437.472656 494.074219 439.847656 485.011719 440.855469 C 480.144531 441.671875 475.324219 441.460938 470.550781 440.226562 C 467.539062 439.308594 464.96875 437.695312 462.839844 435.375 C 460.792969 433.0625 459.453125 430.390625 458.816406 427.367188 C 458.304688 424.804688 458.246094 422.234375 458.644531 419.652344 C 459.042969 417.070312 459.871094 414.636719 461.132812 412.347656 C 463.445312 408.332031 466.597656 405.144531 470.589844 402.789062 C 476.460938 399.519531 482.691406 397.242188 489.285156 395.957031 C 494.03125 394.847656 498.816406 393.984375 503.648438 393.367188 C 508.402344 392.738281 513.175781 392.363281 517.972656 392.246094 C 527.132812 392.03125 534.175781 396.171875 533.667969 400.101562 C 533.15625 404.027344 526.328125 406.636719 518.226562 406.832031 C 517.324219 406.832031 512.714844 406.832031 505.296875 407.617188 C 501.609375 408.011719 497.214844 408.660156 492.289062 409.582031 C 487.15625 410.441406 482.265625 412.039062 477.613281 414.371094 C 475.644531 415.449219 474.035156 416.921875 472.785156 418.789062 C 472.265625 419.675781 471.902344 420.625 471.703125 421.632812 C 471.507812 422.644531 471.480469 423.660156 471.628906 424.675781 C 471.675781 425.0625 471.777344 425.429688 471.933594 425.78125 C 472.089844 426.136719 472.292969 426.460938 472.542969 426.753906 C 472.796875 427.046875 473.082031 427.296875 473.410156 427.503906 C 473.734375 427.714844 474.082031 427.871094 474.453125 427.976562 C 477.527344 428.710938 480.628906 428.84375 483.753906 428.367188 C 491.570312 427.679688 499.105469 425.835938 506.355469 422.832031 C 510.125 421.269531 513.753906 419.429688 517.246094 417.316406 C 518.128906 416.785156 518.972656 416.195312 519.835938 415.648438 L 520.484375 415.214844 C 520.78125 415.035156 521.0625 414.832031 521.328125 414.605469 L 523.660156 412.78125 C 527.0625 410.101562 530.230469 407.160156 533.15625 403.96875 C 537.082031 405.105469 538.609375 404.910156 539.945312 404.457031 C 540.660156 406.710938 541.898438 408.628906 543.652344 410.210938 C 542.464844 414.664062 541.589844 419.179688 541.023438 423.753906 L 540.691406 426.738281 L 540.535156 428.523438 C 540.417969 429.722656 540.378906 430.902344 540.296875 432.097656 C 540.085938 436.84375 540.195312 441.582031 540.632812 446.3125 C 541.515625 455.695312 543.203125 465.058594 548.636719 470.4375 C 549.90625 471.699219 551.371094 472.667969 553.027344 473.347656 C 554.679688 474.027344 556.402344 474.367188 558.191406 474.363281 C 558.972656 474.367188 559.742188 474.265625 560.492188 474.050781 C 561.246094 473.839844 561.953125 473.527344 562.617188 473.113281 C 563.277344 472.699219 563.871094 472.203125 564.394531 471.621094 C 564.917969 471.039062 565.347656 470.394531 565.6875 469.691406 C 567.171875 466.28125 567.878906 462.714844 567.804688 458.992188 C 567.957031 455.257812 567.804688 451.535156 567.355469 447.824219 C 566.660156 442 565.335938 436.324219 563.390625 430.792969 C 561.445312 425.265625 558.921875 420.011719 555.816406 415.039062 C 551.363281 407.734375 547.851562 404.183594 548.304688 403.730469 C 548.753906 403.28125 552.796875 406.34375 558.230469 413.351562 C 560.722656 416.617188 562.941406 420.058594 564.886719 423.679688 C 566.832031 427.296875 568.480469 431.046875 569.828125 434.929688 C 571.179688 438.8125 572.214844 442.773438 572.933594 446.820312 C 573.652344 450.867188 574.050781 454.941406 574.125 459.050781 C 574.421875 463.792969 573.683594 468.367188 571.90625 472.773438 Z M 571.90625 472.773438 " fill-opacity="1" fill-rule="nonzero"/><path fill="#516fa2" d="M 318.042969 296.195312 C 316.082031 296.390625 314.238281 296.527344 312.472656 296.683594 C 309.882812 294.722656 307.332031 292.582031 304.878906 290.402344 C 305.917969 290.226562 306.960938 290.070312 308.039062 289.949219 C 311.316406 289.597656 314.375 289.617188 317.554688 289.441406 C 323.773438 289.144531 330.148438 288.339844 334.367188 284.335938 C 338.585938 280.332031 341.390625 273.8125 345.433594 268.414062 C 346.214844 267.386719 347.066406 266.417969 347.984375 265.511719 C 349.476562 266.058594 350.949219 266.589844 352.417969 267.160156 C 351.164062 268.328125 350.078125 269.636719 349.160156 271.085938 C 347.535156 273.578125 346.140625 276.484375 344.550781 279.488281 C 342.921875 282.785156 340.867188 285.796875 338.390625 288.519531 C 336.996094 289.921875 335.445312 291.125 333.742188 292.128906 C 332.054688 293.070312 330.289062 293.820312 328.441406 294.386719 C 325.039062 295.34375 321.574219 295.945312 318.042969 296.195312 Z M 312.394531 275.757812 C 314.230469 275.1875 315.988281 274.433594 317.671875 273.5 C 319.386719 272.492188 320.945312 271.285156 322.339844 269.867188 C 324.820312 267.160156 326.867188 264.15625 328.484375 260.859375 C 328.660156 260.542969 328.816406 260.230469 328.972656 259.914062 C 327.1875 259.542969 325.363281 259.230469 323.539062 258.953125 C 322.101562 261.449219 320.363281 263.714844 318.320312 265.746094 C 314.101562 269.671875 307.726562 270.554688 301.484375 270.851562 C 299.640625 271.027344 297.679688 271.027344 295.71875 271.027344 C 294.441406 274.1875 293.5 276.699219 292.890625 278.40625 C 295.519531 278.015625 298.679688 277.859375 301.9375 277.542969 C 305.484375 277.308594 308.96875 276.710938 312.394531 275.757812 Z M 349.378906 312.859375 C 352.558594 312.363281 355.449219 311.167969 358.050781 309.269531 C 363.152344 305.339844 365.898438 300.277344 369.449219 296.820312 C 371.289062 295.078125 373.34375 293.640625 375.609375 292.503906 C 377.875 291.367188 380.253906 290.582031 382.75 290.148438 C 385.34375 289.644531 387.957031 289.386719 390.597656 289.382812 C 393.304688 289.382812 395.699219 289.695312 398.996094 289.695312 C 400.820312 289.695312 402.542969 289.269531 404.15625 288.417969 C 405.394531 287.710938 406.460938 286.800781 407.355469 285.691406 C 405.078125 285.296875 402.820312 284.867188 400.566406 284.375 C 400.027344 284.464844 399.484375 284.511719 398.9375 284.511719 C 396.699219 284.511719 393.5625 283.886719 390.636719 283.886719 C 387.636719 283.789062 384.65625 283.984375 381.691406 284.472656 C 378.59375 284.929688 375.628906 285.828125 372.800781 287.164062 C 369.96875 288.503906 367.394531 290.222656 365.074219 292.328125 C 360.601562 296.605469 357.734375 301.355469 354.105469 303.808594 C 350.476562 306.265625 346.257812 306.402344 341.429688 306.125 C 336.644531 305.714844 331.847656 305.636719 327.050781 305.890625 C 326.578125 305.890625 326.128906 305.890625 325.675781 306.027344 C 329.71875 308.644531 333.871094 311.042969 338.136719 313.214844 L 341.136719 313.214844 C 343.894531 313.359375 346.640625 313.242188 349.378906 312.859375 Z M 384.890625 327.289062 C 387.648438 327.417969 390.394531 327.28125 393.128906 326.875 C 396.308594 326.371094 399.199219 325.175781 401.800781 323.285156 C 406.921875 319.359375 409.648438 314.292969 413.199219 310.839844 C 415.042969 309.097656 417.09375 307.65625 419.359375 306.519531 C 421.625 305.382812 424.007812 304.597656 426.503906 304.164062 C 429.09375 303.652344 431.710938 303.390625 434.351562 303.378906 C 437.058594 303.378906 439.453125 303.691406 442.75 303.710938 C 444.574219 303.710938 446.292969 303.289062 447.910156 302.4375 C 449.398438 301.5625 450.648438 300.425781 451.65625 299.019531 C 453.460938 296.546875 454.636719 294.582031 456.285156 292.464844 C 456.757812 291.816406 457.265625 291.207031 457.757812 290.5 L 452.285156 290.050781 C 450.714844 292.011719 449.183594 294.191406 447.832031 295.9375 C 447.191406 296.742188 446.429688 297.398438 445.535156 297.902344 C 444.632812 298.300781 443.691406 298.46875 442.710938 298.410156 C 440.453125 298.410156 437.3125 297.804688 434.410156 297.785156 C 431.410156 297.703125 428.425781 297.90625 425.464844 298.390625 C 422.363281 298.847656 419.394531 299.742188 416.5625 301.082031 C 413.726562 302.417969 411.148438 304.140625 408.824219 306.246094 C 404.351562 310.523438 401.507812 315.273438 397.859375 317.710938 C 394.210938 320.144531 390.011719 320.320312 385.183594 320.046875 C 380.394531 319.628906 375.601562 319.542969 370.800781 319.789062 C 366.710938 320.042969 362.722656 320.824219 358.835938 322.125 C 362.953125 323.578125 367.113281 324.894531 371.332031 326.050781 C 372.726562 326.425781 374.136719 326.777344 375.53125 327.113281 L 377.808594 327.113281 C 380.082031 327.074219 382.339844 327.210938 384.890625 327.289062 Z M 456.265625 333.335938 C 458.105469 331.59375 460.15625 330.15625 462.417969 329.019531 C 464.679688 327.882812 467.054688 327.097656 469.550781 326.660156 C 472.140625 326.164062 474.757812 325.902344 477.398438 325.875 C 480.105469 325.875 482.5 326.210938 485.792969 326.210938 C 487.621094 326.210938 489.339844 325.785156 490.953125 324.933594 C 492.445312 324.066406 493.691406 322.933594 494.703125 321.535156 C 496.488281 319.042969 497.722656 317.023438 499.3125 314.960938 C 502.742188 310.460938 506.613281 306.386719 510.925781 302.730469 C 509.621094 302.179688 508.246094 301.652344 506.808594 301.140625 C 502.75 304.433594 499.0625 308.097656 495.742188 312.132812 C 494.035156 314.097656 492.347656 316.628906 490.875 318.496094 C 490.238281 319.304688 489.464844 319.960938 488.5625 320.457031 C 487.660156 320.855469 486.71875 321.03125 485.734375 320.988281 C 483.5 320.988281 480.359375 320.359375 477.4375 320.359375 C 474.433594 320.261719 471.453125 320.460938 468.488281 320.949219 C 465.390625 321.398438 462.425781 322.292969 459.59375 323.628906 C 456.761719 324.96875 454.1875 326.691406 451.871094 328.800781 C 447.398438 333.078125 444.535156 337.832031 440.90625 340.285156 L 440.648438 340.441406 C 442.082031 340.894531 443.535156 341.382812 444.964844 341.894531 C 445.964844 342.246094 446.925781 342.660156 447.949219 343.03125 C 451.222656 339.734375 453.5 336.023438 456.265625 333.335938 Z M 501.726562 347.351562 C 503.566406 345.609375 505.617188 344.167969 507.882812 343.03125 C 510.148438 341.894531 512.53125 341.109375 515.027344 340.675781 C 517.621094 340.167969 520.234375 339.90625 522.875 339.890625 C 525.601562 339.890625 527.996094 340.207031 531.292969 340.226562 C 533.113281 340.226562 534.824219 339.800781 536.433594 338.949219 C 537.929688 338.082031 539.175781 336.941406 540.179688 335.535156 C 541.984375 333.058594 543.203125 331.039062 544.8125 328.976562 C 546.597656 326.625 548.515625 324.378906 550.558594 322.242188 L 546.851562 320.105469 C 544.90625 322.007812 543.070312 324.011719 541.339844 326.109375 C 539.632812 328.074219 537.945312 330.625 536.472656 332.472656 C 535.839844 333.28125 535.074219 333.933594 534.175781 334.433594 C 533.277344 334.832031 532.335938 335.003906 531.351562 334.945312 C 529.113281 334.945312 525.957031 334.335938 523.050781 334.316406 C 520.050781 334.238281 517.070312 334.433594 514.105469 334.90625 C 511.007812 335.367188 508.039062 336.265625 505.207031 337.601562 C 502.375 338.9375 499.792969 340.65625 497.46875 342.757812 C 492.996094 347.039062 490.148438 351.789062 486.5 354.222656 C 483.261719 356.558594 479.027344 356.8125 474.511719 356.597656 C 477.671875 358.5625 480.753906 360.699219 483.8125 362.878906 C 486.222656 362.253906 488.433594 361.207031 490.445312 359.738281 C 495.488281 355.929688 498.214844 350.808594 501.726562 347.351562 Z M 538.472656 377.132812 C 540.3125 375.386719 542.363281 373.945312 544.628906 372.808594 C 546.894531 371.671875 549.277344 370.886719 551.777344 370.457031 C 554.367188 369.941406 556.984375 369.679688 559.625 369.671875 C 562.332031 369.671875 564.726562 369.984375 568.019531 370.003906 C 569.84375 369.996094 571.5625 369.570312 573.179688 368.730469 C 574.667969 367.851562 575.914062 366.710938 576.929688 365.3125 C 578.714844 362.839844 579.949219 360.820312 581.539062 358.738281 C 585.011719 354.171875 588.933594 350.035156 593.3125 346.332031 L 589.742188 344.367188 C 585.410156 347.816406 581.488281 351.675781 577.96875 355.949219 C 576.242188 357.914062 574.554688 360.464844 573.101562 362.308594 C 572.46875 363.128906 571.699219 363.78125 570.789062 364.273438 C 569.886719 364.671875 568.945312 364.847656 567.960938 364.804688 C 565.726562 364.804688 562.585938 364.175781 559.664062 364.175781 C 556.660156 364.078125 553.679688 364.277344 550.714844 364.765625 C 547.617188 365.214844 544.652344 366.109375 541.820312 367.445312 C 538.988281 368.785156 536.414062 370.507812 534.097656 372.617188 C 529.625 376.914062 526.761719 381.648438 523.132812 384.101562 C 521.621094 385.03125 520.007812 385.707031 518.28125 386.117188 C 516.558594 386.53125 514.8125 386.664062 513.046875 386.515625 L 520.265625 392.777344 C 522.738281 392.160156 525.007812 391.105469 527.074219 389.617188 C 532.234375 385.710938 535.078125 380.566406 538.511719 377.132812 Z M 563.84375 417.589844 C 568.964844 413.664062 571.691406 408.601562 575.242188 405.144531 C 577.078125 403.398438 579.132812 401.957031 581.398438 400.820312 C 583.664062 399.683594 586.046875 398.902344 588.542969 398.46875 C 591.136719 397.960938 593.75 397.699219 596.390625 397.683594 C 599.097656 397.683594 601.492188 398 604.789062 398.019531 C 605.84375 398 606.875 397.84375 607.890625 397.546875 C 608.933594 394.734375 609.96875 391.828125 610.988281 388.832031 C 610.617188 389.34375 610.242188 389.832031 609.871094 390.285156 C 609.238281 391.09375 608.472656 391.75 607.574219 392.246094 C 606.667969 392.648438 605.71875 392.816406 604.730469 392.757812 C 602.492188 392.757812 599.355469 392.148438 596.449219 392.128906 C 593.449219 392.050781 590.46875 392.25 587.503906 392.71875 C 584.40625 393.183594 581.441406 394.082031 578.605469 395.417969 C 575.773438 396.757812 573.195312 398.472656 570.867188 400.570312 C 566.394531 404.871094 563.546875 409.601562 559.898438 412.054688 C 556.25 414.507812 552.050781 414.664062 547.222656 414.390625 L 545.832031 414.390625 C 548.8125 416.761719 551.816406 419.0625 554.835938 421.300781 L 555.171875 421.300781 C 558.371094 420.765625 561.277344 419.53125 563.882812 417.589844 Z M 595.585938 424.148438 L 596.941406 423.953125 C 597.824219 421.988281 598.746094 420.023438 599.667969 417.925781 C 597.945312 418.011719 596.230469 418.195312 594.527344 418.472656 C 591.429688 418.929688 588.46875 419.828125 585.636719 421.167969 C 582.804688 422.503906 580.230469 424.222656 577.910156 426.328125 C 575.875 428.351562 573.953125 430.480469 572.140625 432.707031 C 574.105469 433.824219 576.066406 434.925781 578.027344 435.945312 C 579.363281 434.15625 580.808594 432.460938 582.363281 430.863281 C 584.191406 429.121094 586.230469 427.675781 588.484375 426.535156 C 590.734375 425.390625 593.101562 424.59375 595.585938 424.148438 Z M 595.585938 424.148438 " fill-opacity="1" fill-rule="nonzero"/><path fill="#df8787" d="M 800.851562 588.4375 C 802.144531 590.386719 803.285156 592.421875 804.265625 594.542969 L 803.714844 594.777344 L 798.023438 597.429688 L 794.90625 598.921875 L 791.746094 600.257812 L 785.429688 602.964844 C 781.269531 604.671875 777.050781 606.164062 772.871094 607.792969 L 760.160156 612.113281 C 742.652344 617.765625 724.84375 622.207031 706.734375 625.441406 C 687.15625 628.945312 667.425781 630.765625 647.539062 630.898438 L 638.222656 630.742188 C 635.121094 630.644531 632 630.390625 628.902344 630.210938 C 622.601562 629.832031 616.363281 629 610.183594 627.71875 C 602.113281 626.074219 594.207031 623.847656 586.464844 621.046875 C 577.5 617.78125 568.757812 614.003906 560.230469 609.71875 C 551.148438 605.183594 542.300781 600.355469 533.410156 595.5625 C 524.523438 590.773438 515.753906 585.75 507.375 580.035156 C 498.8125 574.304688 490.917969 567.757812 483.695312 560.40625 C 469.550781 546.035156 459.445312 528.582031 450.929688 510.894531 C 442.414062 493.207031 435.117188 474.617188 426.816406 456.714844 C 422.597656 447.585938 418.007812 438.578125 412.925781 429.859375 L 409.003906 423.066406 L 404.765625 416.453125 C 402.039062 411.976562 398.878906 407.777344 395.894531 403.457031 C 393.109375 399.53125 390.011719 395.898438 387.125 392.148438 C 384.242188 388.398438 380.867188 384.945312 377.628906 381.429688 C 370.742188 374.148438 363.71875 366.960938 356.207031 360.308594 C 341.292969 346.785156 325.054688 335.113281 307.488281 325.285156 C 302.898438 322.851562 298.40625 320.261719 293.753906 318.101562 L 286.75 314.707031 L 279.609375 311.585938 C 274.960938 309.484375 270.328125 307.65625 265.699219 305.695312 L 251.808594 299.921875 C 233.503906 292.347656 215.097656 285.121094 196.695312 277.839844 C 187.304688 274.160156 177.945312 270.582031 168.621094 267.101562 C 159.546875 263.671875 150.765625 259.613281 142.269531 254.929688 C 134.144531 250.425781 126.292969 245.480469 118.726562 240.089844 C 110.738281 234.378906 103.21875 228.113281 96.164062 221.28125 C 89.027344 214.4375 82.625 206.964844 76.957031 198.863281 L 80.566406 200.160156 C 82.058594 202.121094 83.585938 204.183594 85.214844 206.046875 C 95.394531 218.210938 106.960938 228.855469 119.921875 237.988281 C 122.375 239.65625 124.789062 241.363281 127.261719 242.953125 L 135.109375 247.785156 C 143.355469 252.613281 151.859375 256.945312 160.613281 260.78125 L 167.070312 263.429688 L 173.78125 265.902344 L 187.21875 270.910156 L 216.648438 282.058594 L 244.707031 292.816406 C 253.964844 296.429688 263.1875 300.21875 272.410156 303.988281 C 277.039062 305.851562 281.867188 308.03125 286.613281 310.054688 C 291.363281 312.074219 295.992188 314.488281 300.660156 316.746094 C 309.453125 321.320312 318.144531 326.148438 326.441406 331.570312 L 332.699219 335.808594 C 334.820312 337.242188 336.878906 338.753906 338.980469 340.226562 C 341.078125 341.699219 343.179688 343.152344 345.179688 344.742188 L 351.203125 349.492188 L 354.203125 351.867188 L 357.089844 354.339844 L 362.972656 359.289062 C 366.78125 362.644531 370.46875 366.136719 374.195312 369.59375 C 377.925781 373.046875 381.222656 376.523438 384.535156 380.175781 C 387.851562 383.824219 391.265625 387.417969 394.347656 391.304688 L 395.835938 393.152344 C 397.289062 394.957031 398.761719 396.761719 400.171875 398.609375 L 404.273438 404.28125 C 405.609375 406.246094 407.019531 408.03125 408.199219 409.992188 L 412.121094 415.882812 C 415.066406 420.203125 417.597656 424.777344 420.324219 429.210938 C 423.050781 433.648438 425.367188 438.359375 427.855469 442.953125 C 437.3125 461.386719 444.867188 480.253906 453.167969 498.527344 C 457.207031 507.382812 461.445312 516.195312 466.214844 524.480469 C 470.941406 532.816406 476.371094 540.667969 482.5 548.039062 C 494.722656 562.996094 510.789062 574.460938 527.839844 584.238281 C 535.980469 588.929688 544.359375 593.347656 552.699219 597.800781 C 561.390625 602.453125 570.199219 606.832031 579.242188 610.640625 C 584.402344 612.761719 589.640625 614.703125 594.941406 616.414062 C 600.238281 618.121094 605.632812 619.496094 611.066406 620.632812 C 615.304688 621.457031 619.582031 622.203125 623.898438 622.597656 L 627.136719 622.929688 L 630.394531 623.125 L 636.925781 623.519531 C 656.820312 624.109375 676.609375 622.945312 696.296875 620.023438 C 707.441406 618.296875 718.546875 616.3125 729.492188 613.566406 C 733.59375 612.644531 737.617188 611.601562 741.675781 610.40625 C 745.738281 609.207031 749.742188 608.109375 753.742188 606.851562 C 763.042969 604.003906 772.167969 600.628906 781.210938 597.035156 L 787.921875 594.171875 C 790.15625 593.226562 792.414062 592.304688 794.589844 591.226562 L 797.710938 589.792969 C 798.671875 589.378906 799.769531 588.890625 800.851562 588.4375 Z M 800.851562 588.4375 " fill-opacity="1" fill-rule="nonzero"/></svg>